{"glyphs":{"0":{"ha":696,"x_min":92,"x_max":604,"o":"m 349 938 q 604 460 604 938 q 539 103 604 221 q 349 -15 474 -15 q 157 104 222 -15 q 92 463 92 224 q 157 819 92 701 q 349 938 222 938 m 349 883 q 204 782 253 883 q 156 463 156 681 q 205 141 156 243 q 349 39 254 39 q 492 140 443 39 q 540 460 540 242 q 492 781 540 679 q 349 883 444 883 z "},"1":{"ha":510,"x_min":53,"x_max":351,"o":"m 351 922 l 351 0 l 289 0 l 289 850 l 82 707 l 53 753 l 299 922 l 351 922 z "},"2":{"ha":585,"x_min":36,"x_max":519,"o":"m 272 938 q 435 872 375 938 q 496 704 496 807 q 463 533 496 614 q 356 352 429 451 q 119 57 282 253 l 519 57 l 508 0 l 47 0 l 47 56 q 292 362 215 257 q 401 542 369 467 q 432 701 432 617 q 388 835 432 786 q 269 883 344 883 q 165 856 210 883 q 79 776 119 829 l 36 808 q 142 906 85 875 q 272 938 200 938 z "},"3":{"ha":604,"x_min":26,"x_max":524,"o":"m 274 938 q 439 874 378 938 q 500 708 500 810 q 453 562 500 617 q 328 492 407 507 q 469 426 414 485 q 524 260 524 367 q 492 117 524 179 q 401 19 460 54 q 265 -15 343 -15 q 133 14 190 -15 q 26 103 76 43 l 68 136 q 159 61 114 83 q 264 39 204 39 q 407 99 354 39 q 460 258 460 158 q 406 412 460 363 q 258 461 353 461 l 204 461 l 211 514 l 254 514 q 384 563 329 514 q 439 707 439 613 q 394 838 439 790 q 271 885 349 885 q 174 865 218 885 q 86 799 131 844 l 50 835 q 153 912 99 886 q 274 938 207 938 z "},"4":{"ha":644,"x_min":58,"x_max":599,"o":"m 599 301 l 599 249 l 485 249 l 485 0 l 425 0 l 425 249 l 58 249 l 58 297 l 313 938 l 365 917 l 124 301 l 425 301 l 432 581 l 485 581 l 485 301 l 599 301 z "},"5":{"ha":606,"x_min":44,"x_max":540,"o":"m 503 868 l 163 868 l 163 536 q 308 582 228 582 q 478 506 415 582 q 540 297 540 431 q 508 135 540 206 q 417 24 476 64 q 278 -15 357 -15 q 149 13 206 -15 q 44 94 93 40 l 86 131 q 172 63 126 85 q 278 40 217 40 q 422 109 369 40 q 475 299 475 178 q 427 472 475 415 q 296 529 379 529 q 221 518 254 529 q 150 482 188 507 l 103 482 l 103 922 l 514 922 l 503 868 z "},"6":{"ha":660,"x_min":92,"x_max":590,"o":"m 371 599 q 528 525 467 599 q 590 310 590 451 q 524 70 590 156 q 351 -15 458 -15 q 154 99 217 -15 q 92 410 92 214 q 127 695 92 576 q 229 876 163 814 q 388 938 296 938 q 468 924 432 938 q 539 885 504 911 l 508 840 q 386 883 456 883 q 220 769 281 883 q 154 460 160 656 q 371 599 240 599 m 351 39 q 483 111 438 39 q 528 308 528 183 q 483 486 528 428 q 365 544 439 544 q 247 502 300 544 q 154 385 193 460 q 204 128 157 217 q 351 39 251 39 z "},"7":{"ha":544,"x_min":40,"x_max":499,"o":"m 499 922 l 499 872 l 167 -10 l 108 10 l 435 867 l 40 867 l 40 922 l 499 922 z "},"8":{"ha":671,"x_min":71,"x_max":600,"o":"m 410 486 q 556 385 511 442 q 600 238 600 329 q 526 53 600 121 q 333 -15 453 -15 q 142 53 213 -15 q 71 235 71 122 q 119 394 71 328 q 258 499 167 461 q 142 585 178 536 q 107 710 107 633 q 138 833 107 782 q 222 911 169 885 q 336 938 274 938 q 499 878 432 938 q 565 710 565 819 q 528 584 565 636 q 410 486 492 532 m 169 708 q 201 603 169 642 q 321 525 233 564 l 365 506 q 471 594 439 547 q 503 708 503 642 q 458 841 503 796 q 336 886 413 886 q 215 841 261 886 q 169 708 169 796 m 335 39 q 482 89 426 39 q 538 236 538 139 q 519 333 538 294 q 463 399 501 371 q 353 457 424 426 l 307 476 q 174 381 215 438 q 133 235 133 324 q 188 89 133 139 q 335 39 243 39 z "},"9":{"ha":649,"x_min":69,"x_max":567,"o":"m 318 938 q 567 561 567 938 q 521 274 567 386 q 386 92 475 161 q 154 -25 297 24 l 139 24 q 402 189 313 86 q 501 478 492 292 q 296 349 422 349 q 179 383 231 349 q 99 482 128 417 q 69 636 69 547 q 138 858 69 778 q 318 938 207 938 m 304 401 q 413 438 365 401 q 504 549 460 475 q 460 803 503 722 q 319 885 417 885 q 183 822 232 885 q 133 635 133 758 q 179 462 133 522 q 304 401 225 401 z "},"\r":{"ha":353,"x_min":0,"x_max":0,"o":""}," ":{"ha":353,"x_min":0,"x_max":0,"o":""},"A":{"ha":714,"x_min":29,"x_max":685,"o":"m 618 0 l 540 268 l 171 268 l 92 0 l 29 0 l 317 950 l 397 950 l 685 0 l 618 0 m 188 324 l 524 324 l 356 897 l 188 324 z "},"Á":{"ha":714,"x_min":29,"x_max":685,"o":"m 618 0 l 540 268 l 171 268 l 92 0 l 29 0 l 317 950 l 397 950 l 685 0 l 618 0 m 188 324 l 524 324 l 356 897 l 188 324 m 457 1218 l 486 1160 l 244 1054 l 226 1093 l 457 1218 z "},"Ă":{"ha":714,"x_min":29,"x_max":685,"o":"m 618 0 l 540 268 l 171 268 l 92 0 l 29 0 l 317 950 l 397 950 l 685 0 l 618 0 m 188 324 l 524 324 l 356 897 l 188 324 m 357 1065 q 252 1101 294 1065 q 201 1193 210 1136 l 243 1203 q 285 1142 256 1164 q 357 1119 314 1119 q 430 1142 400 1119 q 471 1203 460 1164 l 513 1193 q 463 1101 506 1136 q 357 1065 419 1065 z "},"Ắ":{"ha":714,"x_min":29,"x_max":685,"o":"m 618 0 l 540 268 l 171 268 l 92 0 l 29 0 l 317 950 l 397 950 l 685 0 l 618 0 m 188 324 l 524 324 l 356 897 l 188 324 m 356 1025 q 251 1060 293 1025 q 200 1153 208 1096 l 242 1163 q 283 1101 254 1124 q 356 1079 313 1079 q 428 1101 399 1079 q 469 1163 458 1124 l 511 1153 q 461 1060 504 1096 q 356 1025 418 1025 m 464 1393 l 510 1354 l 361 1188 l 331 1214 l 464 1393 z "},"Ặ":{"ha":714,"x_min":29,"x_max":685,"o":"m 618 0 l 540 268 l 171 268 l 92 0 l 29 0 l 317 950 l 397 950 l 685 0 l 618 0 m 188 324 l 524 324 l 356 897 l 188 324 m 357 1065 q 252 1101 294 1065 q 201 1193 210 1136 l 243 1203 q 285 1142 256 1164 q 357 1119 314 1119 q 430 1142 400 1119 q 471 1203 460 1164 l 513 1193 q 463 1101 506 1136 q 357 1065 419 1065 m 357 -221 q 322 -207 335 -221 q 308 -174 308 -193 q 322 -140 308 -153 q 357 -126 335 -126 q 391 -140 378 -126 q 404 -174 404 -154 q 391 -207 404 -193 q 357 -221 378 -221 z "},"Ằ":{"ha":714,"x_min":29,"x_max":685,"o":"m 618 0 l 540 268 l 171 268 l 92 0 l 29 0 l 317 950 l 397 950 l 685 0 l 618 0 m 188 324 l 524 324 l 356 897 l 188 324 m 354 1025 q 249 1060 292 1025 q 199 1153 207 1096 l 240 1163 q 282 1101 253 1124 q 354 1079 311 1079 q 427 1101 397 1079 q 468 1163 457 1124 l 510 1153 q 460 1060 503 1096 q 354 1025 417 1025 m 261 1393 l 394 1214 l 363 1188 l 215 1354 l 261 1393 z "},"Ẳ":{"ha":714,"x_min":29,"x_max":685,"o":"m 618 0 l 540 268 l 171 268 l 92 0 l 29 0 l 317 950 l 397 950 l 685 0 l 618 0 m 188 324 l 524 324 l 356 897 l 188 324 m 357 1025 q 252 1060 294 1025 q 201 1153 210 1096 l 243 1163 q 285 1101 256 1124 q 357 1079 314 1079 q 430 1101 400 1079 q 471 1163 460 1124 l 513 1153 q 463 1060 506 1096 q 357 1025 419 1025 m 325 1253 q 389 1270 367 1256 q 411 1319 411 1285 q 396 1363 411 1349 q 351 1378 381 1378 q 281 1360 313 1378 l 261 1400 q 358 1428 307 1428 q 440 1399 410 1428 q 469 1324 469 1371 q 378 1221 469 1233 l 378 1157 l 325 1157 l 325 1253 z "},"Ẵ":{"ha":714,"x_min":29,"x_max":685,"o":"m 618 0 l 540 268 l 171 268 l 92 0 l 29 0 l 317 950 l 397 950 l 685 0 l 618 0 m 188 324 l 524 324 l 356 897 l 188 324 m 357 1025 q 252 1060 294 1025 q 201 1153 210 1096 l 243 1163 q 285 1101 256 1124 q 357 1079 314 1079 q 430 1101 400 1079 q 471 1163 460 1124 l 513 1153 q 463 1060 506 1096 q 357 1025 419 1025 m 433 1231 q 390 1240 410 1231 q 346 1265 371 1249 q 313 1285 326 1279 q 286 1292 299 1292 q 249 1279 265 1292 q 214 1239 232 1267 l 176 1260 q 285 1342 222 1342 q 322 1333 304 1342 q 364 1310 340 1325 q 402 1288 388 1294 q 432 1281 417 1281 q 467 1294 451 1281 q 503 1340 483 1308 l 542 1321 q 433 1231 500 1231 z "},"Ǎ":{"ha":714,"x_min":29,"x_max":685,"o":"m 618 0 l 540 268 l 171 268 l 92 0 l 29 0 l 317 950 l 397 950 l 685 0 l 618 0 m 188 324 l 524 324 l 356 897 l 188 324 m 508 1221 l 535 1190 l 375 1051 l 338 1051 l 178 1190 l 206 1221 l 357 1110 l 508 1221 z "},"Â":{"ha":714,"x_min":29,"x_max":685,"o":"m 618 0 l 540 268 l 171 268 l 92 0 l 29 0 l 317 950 l 397 950 l 685 0 l 618 0 m 188 324 l 524 324 l 356 897 l 188 324 m 207 1061 l 178 1093 l 338 1231 l 375 1231 l 535 1093 l 507 1061 l 357 1172 l 207 1061 z "},"Ấ":{"ha":714,"x_min":29,"x_max":685,"o":"m 618 0 l 540 268 l 171 268 l 92 0 l 29 0 l 317 950 l 397 950 l 685 0 l 618 0 m 188 324 l 524 324 l 356 897 l 188 324 m 210 1017 l 181 1049 l 340 1186 l 378 1186 l 538 1049 l 510 1017 l 360 1128 l 210 1017 m 601 1357 l 647 1318 l 499 1151 l 468 1178 l 601 1357 z "},"Ậ":{"ha":714,"x_min":29,"x_max":685,"o":"m 618 0 l 540 268 l 171 268 l 92 0 l 29 0 l 317 950 l 397 950 l 685 0 l 618 0 m 188 324 l 524 324 l 356 897 l 188 324 m 207 1061 l 178 1093 l 338 1231 l 375 1231 l 535 1093 l 507 1061 l 357 1172 l 207 1061 m 357 -221 q 322 -207 335 -221 q 308 -174 308 -193 q 322 -140 308 -153 q 357 -126 335 -126 q 391 -140 378 -126 q 404 -174 404 -154 q 391 -207 404 -193 q 357 -221 378 -221 z "},"Ầ":{"ha":714,"x_min":29,"x_max":685,"o":"m 618 0 l 540 268 l 171 268 l 92 0 l 29 0 l 317 950 l 397 950 l 685 0 l 618 0 m 188 324 l 524 324 l 356 897 l 188 324 m 207 1017 l 178 1049 l 338 1186 l 375 1186 l 535 1049 l 507 1017 l 357 1128 l 207 1017 m 121 1357 l 254 1178 l 222 1151 l 75 1318 l 121 1357 z "},"Ẩ":{"ha":714,"x_min":29,"x_max":685,"o":"m 618 0 l 540 268 l 171 268 l 92 0 l 29 0 l 317 950 l 397 950 l 685 0 l 618 0 m 188 324 l 524 324 l 356 897 l 188 324 m 207 1017 l 178 1049 l 338 1186 l 375 1186 l 535 1049 l 507 1017 l 357 1128 l 207 1017 m 482 1221 q 546 1238 524 1224 q 568 1288 568 1253 q 553 1331 568 1317 q 508 1346 538 1346 q 438 1328 469 1346 l 418 1368 q 515 1396 464 1396 q 597 1367 567 1396 q 626 1292 626 1339 q 535 1189 626 1201 l 535 1125 l 482 1125 l 482 1221 z "},"Ẫ":{"ha":714,"x_min":29,"x_max":685,"o":"m 618 0 l 540 268 l 171 268 l 92 0 l 29 0 l 317 950 l 397 950 l 685 0 l 618 0 m 188 324 l 524 324 l 356 897 l 188 324 m 206 1017 l 176 1049 l 336 1186 l 374 1186 l 533 1049 l 506 1017 l 356 1128 l 206 1017 m 429 1244 q 386 1253 406 1244 q 342 1279 367 1263 q 308 1299 322 1293 q 282 1306 294 1306 q 244 1293 261 1306 q 210 1253 228 1281 l 172 1274 q 281 1356 218 1356 q 318 1347 300 1356 q 360 1324 336 1339 q 398 1301 383 1308 q 428 1294 413 1294 q 463 1308 447 1294 q 499 1354 479 1322 l 538 1335 q 429 1244 496 1244 z "},"Ȁ":{"ha":714,"x_min":29,"x_max":685,"o":"m 618 0 l 540 268 l 171 268 l 92 0 l 29 0 l 317 950 l 397 950 l 685 0 l 618 0 m 188 324 l 524 324 l 356 897 l 188 324 m 208 1290 l 304 1090 l 264 1071 l 153 1261 l 208 1290 m 363 1289 l 450 1096 l 410 1078 l 307 1260 l 363 1289 z "},"Ä":{"ha":714,"x_min":29,"x_max":685,"o":"m 618 0 l 540 268 l 171 268 l 92 0 l 29 0 l 317 950 l 397 950 l 685 0 l 618 0 m 188 324 l 524 324 l 356 897 l 188 324 m 246 1192 q 279 1178 267 1192 q 292 1146 292 1165 q 279 1113 292 1126 q 246 1100 267 1100 q 214 1113 226 1100 q 201 1146 201 1126 q 214 1178 201 1165 q 246 1192 226 1192 m 476 1192 q 508 1178 496 1192 q 521 1146 521 1165 q 508 1113 521 1126 q 476 1100 496 1100 q 444 1113 457 1100 q 431 1146 431 1126 q 444 1178 431 1165 q 476 1192 457 1192 z "},"Ǟ":{"ha":714,"x_min":29,"x_max":685,"o":"m 618 0 l 540 268 l 171 268 l 92 0 l 29 0 l 317 950 l 397 950 l 685 0 l 618 0 m 188 324 l 524 324 l 356 897 l 188 324 m 242 1124 q 275 1110 263 1124 q 288 1078 288 1097 q 275 1045 288 1058 q 242 1032 263 1032 q 210 1045 222 1032 q 197 1078 197 1058 q 210 1110 197 1097 q 242 1124 222 1124 m 472 1124 q 504 1110 492 1124 q 517 1078 517 1097 q 504 1045 517 1058 q 472 1032 492 1032 q 440 1045 453 1032 q 426 1078 426 1058 q 440 1110 426 1097 q 472 1124 453 1124 m 504 1208 l 214 1208 l 214 1260 l 504 1260 l 504 1208 z "},"Ȧ":{"ha":714,"x_min":29,"x_max":685,"o":"m 618 0 l 540 268 l 171 268 l 92 0 l 29 0 l 317 950 l 397 950 l 685 0 l 618 0 m 188 324 l 524 324 l 356 897 l 188 324 m 357 1207 q 392 1193 379 1207 q 406 1160 406 1179 q 392 1126 406 1139 q 357 1113 379 1113 q 323 1126 336 1113 q 310 1160 310 1140 q 323 1193 310 1179 q 357 1207 336 1207 z "},"Ạ":{"ha":714,"x_min":29,"x_max":685,"o":"m 618 0 l 540 268 l 171 268 l 92 0 l 29 0 l 317 950 l 397 950 l 685 0 l 618 0 m 188 324 l 524 324 l 356 897 l 188 324 m 357 -221 q 322 -207 335 -221 q 308 -174 308 -193 q 322 -140 308 -153 q 357 -126 335 -126 q 391 -140 378 -126 q 404 -174 404 -154 q 391 -207 404 -193 q 357 -221 378 -221 z "},"Ǡ":{"ha":714,"x_min":29,"x_max":685,"o":"m 618 0 l 540 268 l 171 268 l 92 0 l 29 0 l 317 950 l 397 950 l 685 0 l 618 0 m 188 324 l 524 324 l 356 897 l 188 324 m 357 1128 q 392 1114 379 1128 q 406 1081 406 1100 q 392 1047 406 1060 q 357 1033 379 1033 q 323 1047 336 1033 q 310 1081 310 1061 q 323 1114 310 1100 q 357 1128 336 1128 m 503 1207 l 213 1207 l 213 1258 l 503 1258 l 503 1207 z "},"À":{"ha":714,"x_min":29,"x_max":685,"o":"m 618 0 l 540 268 l 171 268 l 92 0 l 29 0 l 317 950 l 397 950 l 685 0 l 618 0 m 188 324 l 524 324 l 356 897 l 188 324 m 254 1218 l 483 1092 l 464 1054 l 224 1160 l 254 1218 z "},"Ả":{"ha":714,"x_min":29,"x_max":685,"o":"m 618 0 l 540 268 l 171 268 l 92 0 l 29 0 l 317 950 l 397 950 l 685 0 l 618 0 m 188 324 l 524 324 l 356 897 l 188 324 m 331 1176 q 394 1194 372 1179 q 417 1243 417 1208 q 401 1287 417 1272 q 357 1301 386 1301 q 286 1283 318 1301 l 267 1324 q 364 1351 313 1351 q 445 1323 415 1351 q 475 1247 475 1294 q 383 1144 475 1157 l 383 1081 l 331 1081 l 331 1176 z "},"Ȃ":{"ha":714,"x_min":29,"x_max":685,"o":"m 618 0 l 540 268 l 171 268 l 92 0 l 29 0 l 317 950 l 397 950 l 685 0 l 618 0 m 188 324 l 524 324 l 356 897 l 188 324 m 357 1246 q 463 1208 421 1246 q 513 1104 506 1169 l 471 1094 q 357 1193 446 1193 q 244 1094 267 1193 l 201 1104 q 252 1208 210 1171 q 357 1246 294 1246 z "},"Ɑ":{"ha":842,"x_min":86,"x_max":754,"o":"m 694 143 q 708 78 694 99 q 754 42 721 57 l 733 -10 q 661 33 685 7 q 632 101 638 58 q 413 -15 547 -15 q 245 37 319 -15 q 128 195 171 89 q 86 457 86 301 q 129 736 86 622 q 247 907 172 850 q 418 964 322 964 q 632 861 550 964 l 638 950 l 694 950 l 694 143 m 417 42 q 631 171 546 42 l 631 794 q 424 907 554 907 q 228 796 301 907 q 154 457 154 685 q 227 144 154 247 q 417 42 300 42 z "},"Ā":{"ha":714,"x_min":29,"x_max":685,"o":"m 618 0 l 540 268 l 171 268 l 92 0 l 29 0 l 317 950 l 397 950 l 685 0 l 618 0 m 188 324 l 524 324 l 356 897 l 188 324 m 503 1119 l 213 1119 l 213 1171 l 503 1171 l 503 1119 z "},"Ą":{"ha":714,"x_min":29,"x_max":685,"o":"m 671 0 q 554 -78 589 -42 q 519 -167 519 -114 q 600 -240 519 -240 q 671 -232 632 -240 l 665 -286 q 594 -294 628 -294 q 494 -261 529 -294 q 460 -172 460 -228 q 498 -71 460 -114 q 615 11 536 -28 l 540 268 l 171 268 l 92 0 l 29 0 l 317 950 l 397 950 l 685 0 l 671 0 m 188 324 l 524 324 l 356 897 l 188 324 z "},"Å":{"ha":714,"x_min":29,"x_max":685,"o":"m 618 0 l 540 268 l 171 268 l 92 0 l 29 0 l 317 950 l 397 950 l 685 0 l 618 0 m 188 324 l 524 324 l 356 897 l 188 324 m 357 1307 q 444 1274 411 1307 q 476 1183 476 1240 q 444 1092 476 1125 q 357 1058 411 1058 q 272 1092 304 1058 q 239 1183 239 1125 q 272 1274 239 1240 q 357 1307 304 1307 m 357 1265 q 288 1183 288 1265 q 357 1100 288 1100 q 426 1183 426 1100 q 357 1265 426 1265 z "},"Ǻ":{"ha":714,"x_min":29,"x_max":685,"o":"m 618 0 l 540 268 l 171 268 l 92 0 l 29 0 l 317 950 l 397 950 l 685 0 l 618 0 m 188 324 l 524 324 l 356 897 l 188 324 m 358 1258 q 445 1225 413 1258 q 478 1135 478 1192 q 445 1043 478 1076 q 358 1010 413 1010 q 273 1043 306 1010 q 240 1135 240 1076 q 273 1225 240 1192 q 358 1258 306 1258 m 358 1217 q 289 1135 289 1217 q 358 1051 289 1051 q 428 1135 428 1051 q 358 1217 428 1217 m 461 1440 l 490 1382 l 249 1276 l 231 1315 l 461 1440 z "},"Ⱥ":{"ha":714,"x_min":29,"x_max":685,"o":"m 619 0 l 540 268 l 343 268 l 257 -97 l 219 -87 l 304 268 l 171 268 l 92 0 l 29 0 l 317 950 l 397 950 l 436 824 l 485 1031 l 522 1022 l 458 750 l 685 0 l 619 0 m 186 322 l 317 322 l 410 715 l 356 900 l 186 322 m 357 322 l 525 322 l 432 640 l 357 322 z "},"Ã":{"ha":714,"x_min":29,"x_max":685,"o":"m 618 0 l 540 268 l 171 268 l 92 0 l 29 0 l 317 950 l 397 950 l 685 0 l 618 0 m 188 324 l 524 324 l 356 897 l 188 324 m 431 1107 q 388 1116 407 1107 q 343 1142 368 1125 q 310 1162 324 1156 q 283 1168 296 1168 q 246 1156 263 1168 q 211 1115 229 1143 l 174 1136 q 282 1218 219 1218 q 319 1210 301 1218 q 361 1186 338 1201 q 399 1164 385 1171 q 429 1157 414 1157 q 465 1171 449 1157 q 500 1217 481 1185 l 539 1197 q 431 1107 497 1107 z "},"Æ":{"ha":969,"x_min":4,"x_max":915,"o":"m 628 56 l 915 56 l 915 0 l 578 0 l 518 261 l 157 261 l 68 0 l 4 0 l 336 950 l 853 950 l 846 893 l 436 893 l 521 522 l 843 522 l 843 468 l 533 468 l 628 56 m 176 318 l 506 318 l 374 897 l 176 318 z "},"Ǽ":{"ha":969,"x_min":4,"x_max":915,"o":"m 628 56 l 915 56 l 915 0 l 578 0 l 518 261 l 157 261 l 68 0 l 4 0 l 336 950 l 853 950 l 846 893 l 436 893 l 521 522 l 843 522 l 843 468 l 533 468 l 628 56 m 176 318 l 506 318 l 374 897 l 176 318 m 665 1218 l 694 1160 l 453 1054 l 435 1093 l 665 1218 z "},"Ǣ":{"ha":969,"x_min":4,"x_max":915,"o":"m 628 56 l 915 56 l 915 0 l 578 0 l 518 261 l 157 261 l 68 0 l 4 0 l 336 950 l 853 950 l 846 893 l 436 893 l 521 522 l 843 522 l 843 468 l 533 468 l 628 56 m 176 318 l 506 318 l 374 897 l 176 318 m 711 1119 l 421 1119 l 421 1171 l 711 1171 l 711 1119 z "},"B":{"ha":744,"x_min":142,"x_max":675,"o":"m 465 504 q 618 435 561 493 q 675 261 675 376 q 595 67 675 133 q 371 0 515 0 l 142 0 l 142 950 l 325 950 q 554 890 474 950 q 635 714 635 829 q 590 573 635 625 q 465 504 546 521 m 207 894 l 207 528 l 375 528 q 517 577 465 528 q 568 710 568 626 q 333 894 568 894 l 207 894 m 371 56 q 547 106 485 56 q 608 261 608 157 q 549 421 608 368 q 382 474 489 474 l 207 474 l 207 56 l 371 56 z "},"Ḃ":{"ha":744,"x_min":142,"x_max":675,"o":"m 465 504 q 618 435 561 493 q 675 261 675 376 q 595 67 675 133 q 371 0 515 0 l 142 0 l 142 950 l 325 950 q 554 890 474 950 q 635 714 635 829 q 590 573 635 625 q 465 504 546 521 m 207 894 l 207 528 l 375 528 q 517 577 465 528 q 568 710 568 626 q 333 894 568 894 l 207 894 m 371 56 q 547 106 485 56 q 608 261 608 157 q 549 421 608 368 q 382 474 489 474 l 207 474 l 207 56 l 371 56 m 368 1207 q 403 1193 390 1207 q 417 1160 417 1179 q 403 1126 417 1139 q 368 1113 390 1113 q 334 1126 347 1113 q 321 1160 321 1140 q 334 1193 321 1179 q 368 1207 347 1207 z "},"Ḅ":{"ha":744,"x_min":142,"x_max":675,"o":"m 465 504 q 618 435 561 493 q 675 261 675 376 q 595 67 675 133 q 371 0 515 0 l 142 0 l 142 950 l 325 950 q 554 890 474 950 q 635 714 635 829 q 590 573 635 625 q 465 504 546 521 m 207 894 l 207 528 l 375 528 q 517 577 465 528 q 568 710 568 626 q 333 894 568 894 l 207 894 m 371 56 q 547 106 485 56 q 608 261 608 157 q 549 421 608 368 q 382 474 489 474 l 207 474 l 207 56 l 371 56 m 389 -221 q 353 -207 367 -221 q 340 -174 340 -193 q 353 -140 340 -153 q 389 -126 367 -126 q 423 -140 410 -126 q 436 -174 436 -154 q 423 -207 436 -193 q 389 -221 410 -221 z "},"Ꞵ":{"ha":744,"x_min":142,"x_max":675,"o":"m 465 504 q 618 437 561 493 q 675 269 675 381 q 599 70 675 140 q 392 0 522 0 q 207 35 297 0 l 207 -271 l 142 -271 l 142 950 l 325 950 q 554 890 474 950 q 635 714 635 829 q 590 573 635 625 q 465 504 546 521 m 390 56 q 549 110 490 56 q 608 269 608 164 q 549 423 608 372 q 382 474 490 474 l 306 474 l 313 528 l 376 528 q 517 577 465 528 q 568 710 568 626 q 333 894 568 894 l 207 894 l 207 89 q 390 56 293 56 z "},"Ɓ":{"ha":813,"x_min":21,"x_max":743,"o":"m 533 504 q 686 435 629 493 q 743 261 743 376 q 663 67 743 133 q 439 0 583 0 l 210 0 l 210 894 l 178 894 q 105 869 128 894 q 82 801 82 844 q 90 747 82 771 q 111 694 97 722 l 65 671 q 32 734 43 706 q 21 803 21 763 q 62 910 21 869 q 182 950 103 950 l 393 950 q 622 890 542 950 q 703 714 703 829 q 658 573 703 625 q 533 504 614 521 m 275 894 l 275 528 l 443 528 q 585 577 533 528 q 636 710 636 626 q 401 894 636 894 l 275 894 m 439 56 q 615 106 553 56 q 676 261 676 157 q 617 421 676 368 q 450 474 557 474 l 275 474 l 275 56 l 439 56 z "},"Ƀ":{"ha":746,"x_min":31,"x_max":676,"o":"m 467 504 q 619 435 563 493 q 676 261 676 376 q 597 67 676 133 q 372 0 517 0 l 143 0 l 143 246 l 31 246 l 31 299 l 143 299 l 143 950 l 326 950 q 556 890 475 950 q 636 714 636 829 q 592 573 636 625 q 467 504 547 521 m 208 894 l 208 528 l 376 528 q 518 577 467 528 q 569 710 569 626 q 335 894 569 894 l 208 894 m 372 56 q 548 106 486 56 q 610 261 610 157 q 550 421 610 368 q 383 474 490 474 l 208 474 l 208 299 l 432 299 l 432 246 l 208 246 l 208 56 l 372 56 z "},"Ƃ":{"ha":710,"x_min":142,"x_max":650,"o":"m 343 574 q 570 504 490 574 q 650 296 650 435 q 567 73 650 146 q 340 0 485 0 l 142 0 l 142 950 l 567 950 l 557 893 l 207 893 l 207 574 l 343 574 m 350 56 q 522 113 463 56 q 582 297 582 171 q 346 518 582 518 l 207 518 l 207 56 l 350 56 z "},"C":{"ha":685,"x_min":86,"x_max":657,"o":"m 431 964 q 549 943 500 964 q 647 879 599 922 l 611 838 q 527 891 567 875 q 435 907 488 907 q 231 803 308 907 q 154 475 154 699 q 231 151 154 258 q 432 44 307 44 q 535 64 493 44 q 619 121 576 83 l 657 79 q 431 -15 560 -15 q 253 40 331 -15 q 131 205 175 94 q 86 475 86 315 q 132 747 86 638 q 256 910 178 857 q 431 964 333 964 z "},"Ć":{"ha":685,"x_min":86,"x_max":657,"o":"m 431 964 q 549 943 500 964 q 647 879 599 922 l 611 838 q 527 891 567 875 q 435 907 488 907 q 231 803 308 907 q 154 475 154 699 q 231 151 154 258 q 432 44 307 44 q 535 64 493 44 q 619 121 576 83 l 657 79 q 431 -15 560 -15 q 253 40 331 -15 q 131 205 175 94 q 86 475 86 315 q 132 747 86 638 q 256 910 178 857 q 431 964 333 964 m 531 1218 l 560 1160 l 318 1054 l 300 1093 l 531 1218 z "},"Č":{"ha":685,"x_min":86,"x_max":657,"o":"m 431 964 q 549 943 500 964 q 647 879 599 922 l 611 838 q 527 891 567 875 q 435 907 488 907 q 231 803 308 907 q 154 475 154 699 q 231 151 154 258 q 432 44 307 44 q 535 64 493 44 q 619 121 576 83 l 657 79 q 431 -15 560 -15 q 253 40 331 -15 q 131 205 175 94 q 86 475 86 315 q 132 747 86 638 q 256 910 178 857 q 431 964 333 964 m 582 1221 l 608 1190 l 449 1051 l 411 1051 l 251 1190 l 279 1221 l 431 1110 l 582 1221 z "},"Ç":{"ha":685,"x_min":86,"x_max":657,"o":"m 443 -94 q 557 -196 557 -104 q 521 -278 557 -249 q 432 -308 485 -308 q 335 -281 375 -308 l 357 -240 q 431 -261 390 -261 q 481 -244 461 -261 q 501 -196 501 -228 q 474 -148 501 -164 q 389 -132 447 -132 l 397 -14 q 171 125 256 0 q 86 475 86 250 q 132 747 86 638 q 256 910 178 857 q 431 964 333 964 q 549 943 500 964 q 647 879 599 922 l 611 838 q 527 891 567 875 q 435 907 488 907 q 231 803 308 907 q 154 475 154 699 q 231 151 154 258 q 432 44 307 44 q 535 64 493 44 q 619 121 576 83 l 657 79 q 443 -15 565 -10 l 443 -94 z "},"Ĉ":{"ha":685,"x_min":86,"x_max":657,"o":"m 431 964 q 549 943 500 964 q 647 879 599 922 l 611 838 q 527 891 567 875 q 435 907 488 907 q 231 803 308 907 q 154 475 154 699 q 231 151 154 258 q 432 44 307 44 q 535 64 493 44 q 619 121 576 83 l 657 79 q 431 -15 560 -15 q 253 40 331 -15 q 131 205 175 94 q 86 475 86 315 q 132 747 86 638 q 256 910 178 857 q 431 964 333 964 m 281 1061 l 251 1093 l 411 1231 l 449 1231 l 608 1093 l 581 1061 l 431 1172 l 281 1061 z "},"Ċ":{"ha":685,"x_min":86,"x_max":657,"o":"m 431 964 q 549 943 500 964 q 647 879 599 922 l 611 838 q 527 891 567 875 q 435 907 488 907 q 231 803 308 907 q 154 475 154 699 q 231 151 154 258 q 432 44 307 44 q 535 64 493 44 q 619 121 576 83 l 657 79 q 431 -15 560 -15 q 253 40 331 -15 q 131 205 175 94 q 86 475 86 315 q 132 747 86 638 q 256 910 178 857 q 431 964 333 964 m 431 1207 q 466 1193 453 1207 q 479 1160 479 1179 q 466 1126 479 1139 q 431 1113 453 1113 q 397 1126 410 1113 q 383 1160 383 1140 q 397 1193 383 1179 q 431 1207 410 1207 z "},"Ꭓ":{"ha":626,"x_min":14,"x_max":611,"o":"m 347 443 l 611 -151 l 539 -151 l 308 400 l 85 -151 l 14 -151 l 271 440 l 40 950 l 114 950 l 310 482 l 504 950 l 575 950 l 347 443 z "},"Ƈ":{"ha":685,"x_min":86,"x_max":856,"o":"m 732 1142 q 856 1096 801 1142 l 828 1056 q 783 1079 804 1071 q 733 1088 763 1088 q 647 975 647 1088 l 647 879 l 613 842 q 527 892 568 876 q 435 907 486 907 q 231 803 308 907 q 154 475 154 699 q 231 151 154 258 q 432 44 307 44 q 535 64 493 44 q 619 122 576 83 l 657 79 q 431 -15 560 -15 q 253 40 331 -15 q 131 205 175 94 q 86 475 86 315 q 132 747 86 638 q 256 910 178 857 q 431 964 333 964 q 585 919 521 964 l 585 974 q 624 1099 585 1056 q 732 1142 664 1142 z "},"Ȼ":{"ha":685,"x_min":86,"x_max":657,"o":"m 657 79 q 431 -15 560 -15 q 315 6 368 -15 l 290 -97 l 253 -87 l 279 22 q 138 188 189 74 q 86 475 86 303 q 132 747 86 638 q 256 910 178 857 q 431 964 333 964 q 500 957 465 964 l 518 1031 l 556 1022 l 538 947 q 647 879 590 929 l 611 838 q 525 892 567 876 l 329 67 q 432 44 375 44 q 535 64 493 44 q 619 121 576 83 l 657 79 m 154 475 q 191 230 154 326 q 294 86 228 133 l 488 903 q 435 907 463 907 q 231 803 308 907 q 154 475 154 699 z "},"D":{"ha":788,"x_min":142,"x_max":701,"o":"m 311 950 q 593 850 485 950 q 701 483 701 750 q 591 108 701 215 q 321 0 481 0 l 142 0 l 142 950 l 311 950 m 207 893 l 207 56 l 324 56 q 633 483 633 56 q 588 742 633 651 q 474 863 543 832 q 315 893 406 893 l 207 893 z "},"Ǳ":{"ha":1396,"x_min":142,"x_max":1336,"o":"m 311 950 q 593 850 485 950 q 701 483 701 750 q 591 108 701 215 q 321 0 481 0 l 142 0 l 142 950 l 311 950 m 207 893 l 207 56 l 324 56 q 633 483 633 56 q 588 742 633 651 q 474 863 543 832 q 315 893 406 893 l 207 893 m 1336 950 l 1336 896 l 869 58 l 1326 58 l 1318 0 l 799 0 l 799 56 l 1267 892 l 846 892 l 846 950 l 1336 950 z "},"Ǆ":{"ha":1396,"x_min":142,"x_max":1336,"o":"m 311 950 q 593 850 485 950 q 701 483 701 750 q 591 108 701 215 q 321 0 481 0 l 142 0 l 142 950 l 311 950 m 207 893 l 207 56 l 324 56 q 633 483 633 56 q 588 742 633 651 q 474 863 543 832 q 315 893 406 893 l 207 893 m 1336 950 l 1336 896 l 869 58 l 1326 58 l 1318 0 l 799 0 l 799 56 l 1267 892 l 846 892 l 846 950 l 1336 950 m 1229 1221 l 1256 1190 l 1096 1051 l 1058 1051 l 899 1190 l 926 1221 l 1078 1110 l 1229 1221 z "},"Ɖ":{"ha":792,"x_min":31,"x_max":706,"o":"m 315 950 q 597 850 489 950 q 706 483 706 750 q 595 108 706 215 q 325 0 485 0 l 146 0 l 146 461 l 31 461 l 31 517 l 146 517 l 146 950 l 315 950 m 328 56 q 638 483 638 56 q 592 742 638 651 q 478 863 547 832 q 319 893 410 893 l 211 893 l 211 517 l 433 517 l 433 461 l 211 461 l 211 56 l 328 56 z "},"Ð":{"ha":792,"x_min":31,"x_max":706,"o":"m 315 950 q 597 850 489 950 q 706 483 706 750 q 595 108 706 215 q 325 0 485 0 l 146 0 l 146 461 l 31 461 l 31 517 l 146 517 l 146 950 l 315 950 m 328 56 q 638 483 638 56 q 592 742 638 651 q 478 863 547 832 q 319 893 410 893 l 211 893 l 211 517 l 433 517 l 433 461 l 211 461 l 211 56 l 328 56 z "},"Ď":{"ha":788,"x_min":142,"x_max":701,"o":"m 311 950 q 593 850 485 950 q 701 483 701 750 q 591 108 701 215 q 321 0 481 0 l 142 0 l 142 950 l 311 950 m 207 893 l 207 56 l 324 56 q 633 483 633 56 q 588 742 633 651 q 474 863 543 832 q 315 893 406 893 l 207 893 m 525 1221 l 551 1190 l 392 1051 l 354 1051 l 194 1190 l 222 1221 l 374 1110 l 525 1221 z "},"Ḓ":{"ha":788,"x_min":142,"x_max":701,"o":"m 311 950 q 593 850 485 950 q 701 483 701 750 q 591 108 701 215 q 321 0 481 0 l 142 0 l 142 950 l 311 950 m 207 893 l 207 56 l 324 56 q 633 483 633 56 q 588 742 633 651 q 474 863 543 832 q 315 893 406 893 l 207 893 m 225 -274 l 197 -243 l 357 -97 l 394 -97 l 554 -243 l 525 -274 l 375 -156 l 225 -274 z "},"Đ":{"ha":792,"x_min":31,"x_max":706,"o":"m 315 950 q 597 850 489 950 q 706 483 706 750 q 595 108 706 215 q 325 0 485 0 l 146 0 l 146 461 l 31 461 l 31 517 l 146 517 l 146 950 l 315 950 m 328 56 q 638 483 638 56 q 592 742 638 651 q 478 863 547 832 q 319 893 410 893 l 211 893 l 211 517 l 433 517 l 433 461 l 211 461 l 211 56 l 328 56 z "},"Ḋ":{"ha":788,"x_min":142,"x_max":701,"o":"m 311 950 q 593 850 485 950 q 701 483 701 750 q 591 108 701 215 q 321 0 481 0 l 142 0 l 142 950 l 311 950 m 207 893 l 207 56 l 324 56 q 633 483 633 56 q 588 742 633 651 q 474 863 543 832 q 315 893 406 893 l 207 893 m 374 1207 q 409 1193 396 1207 q 422 1160 422 1179 q 409 1126 422 1139 q 374 1113 396 1113 q 340 1126 353 1113 q 326 1160 326 1140 q 340 1193 326 1179 q 374 1207 353 1207 z "},"Ḍ":{"ha":788,"x_min":142,"x_max":701,"o":"m 311 950 q 593 850 485 950 q 701 483 701 750 q 591 108 701 215 q 321 0 481 0 l 142 0 l 142 950 l 311 950 m 207 893 l 207 56 l 324 56 q 633 483 633 56 q 588 742 633 651 q 474 863 543 832 q 315 893 406 893 l 207 893 m 375 -221 q 340 -207 353 -221 q 326 -174 326 -193 q 340 -140 326 -153 q 375 -126 353 -126 q 409 -140 396 -126 q 422 -174 422 -154 q 409 -207 422 -193 q 375 -221 396 -221 z "},"Ɗ":{"ha":856,"x_min":21,"x_max":769,"o":"m 379 950 q 661 850 553 950 q 769 483 769 750 q 659 108 769 215 q 389 0 549 0 l 210 0 l 210 894 l 178 894 q 105 869 128 894 q 82 801 82 844 q 90 747 82 771 q 111 694 97 722 l 65 671 q 32 734 43 706 q 21 803 21 763 q 62 910 21 869 q 182 950 103 950 l 379 950 m 392 56 q 701 483 701 56 q 656 742 701 651 q 542 863 611 832 q 383 893 474 893 l 275 893 l 275 56 l 392 56 z "},"Ḏ":{"ha":788,"x_min":142,"x_max":701,"o":"m 311 950 q 593 850 485 950 q 701 483 701 750 q 591 108 701 215 q 321 0 481 0 l 142 0 l 142 950 l 311 950 m 207 893 l 207 56 l 324 56 q 633 483 633 56 q 588 742 633 651 q 474 863 543 832 q 315 893 406 893 l 207 893 m 521 -211 l 231 -211 l 231 -160 l 521 -160 l 521 -211 z "},"Ƌ":{"ha":710,"x_min":61,"x_max":569,"o":"m 569 0 l 365 0 q 142 70 224 0 q 61 283 61 140 q 143 499 61 424 q 378 574 225 574 l 504 574 l 504 893 l 149 893 l 149 950 l 569 950 l 569 0 m 504 56 l 504 518 l 378 518 q 129 283 129 518 q 190 109 129 163 q 368 56 250 56 l 504 56 z "},"ǲ":{"ha":1297,"x_min":142,"x_max":1254,"o":"m 311 950 q 593 850 485 950 q 701 483 701 750 q 591 108 701 215 q 321 0 481 0 l 142 0 l 142 950 l 311 950 m 207 893 l 207 56 l 324 56 q 633 483 633 56 q 588 742 633 651 q 474 863 543 832 q 315 893 406 893 l 207 893 m 1254 725 l 1254 675 l 879 56 l 1250 56 l 1243 0 l 808 0 l 808 50 l 1183 669 l 839 669 l 839 725 l 1254 725 z "},"ǅ":{"ha":1297,"x_min":142,"x_max":1254,"o":"m 311 950 q 593 850 485 950 q 701 483 701 750 q 591 108 701 215 q 321 0 481 0 l 142 0 l 142 950 l 311 950 m 207 893 l 207 56 l 324 56 q 633 483 633 56 q 588 742 633 651 q 474 863 543 832 q 315 893 406 893 l 207 893 m 1254 725 l 1254 675 l 879 56 l 1250 56 l 1243 0 l 808 0 l 808 50 l 1183 669 l 839 669 l 839 725 l 1254 725 m 1193 1058 l 1221 1028 l 1061 882 l 1024 882 l 864 1028 l 893 1058 l 1043 940 l 1193 1058 z "},"E":{"ha":631,"x_min":142,"x_max":576,"o":"m 569 950 l 561 893 l 207 893 l 207 524 l 514 524 l 514 468 l 207 468 l 207 56 l 576 56 l 576 0 l 142 0 l 142 950 l 569 950 z "},"É":{"ha":631,"x_min":142,"x_max":576,"o":"m 569 950 l 561 893 l 207 893 l 207 524 l 514 524 l 514 468 l 207 468 l 207 56 l 576 56 l 576 0 l 142 0 l 142 950 l 569 950 m 461 1218 l 490 1160 l 249 1054 l 231 1093 l 461 1218 z "},"Ĕ":{"ha":631,"x_min":142,"x_max":576,"o":"m 569 950 l 561 893 l 207 893 l 207 524 l 514 524 l 514 468 l 207 468 l 207 56 l 576 56 l 576 0 l 142 0 l 142 950 l 569 950 m 361 1065 q 256 1101 299 1065 q 206 1193 214 1136 l 247 1203 q 289 1142 260 1164 q 361 1119 318 1119 q 434 1142 404 1119 q 475 1203 464 1164 l 517 1193 q 467 1101 510 1136 q 361 1065 424 1065 z "},"Ě":{"ha":631,"x_min":142,"x_max":576,"o":"m 569 950 l 561 893 l 207 893 l 207 524 l 514 524 l 514 468 l 207 468 l 207 56 l 576 56 l 576 0 l 142 0 l 142 950 l 569 950 m 513 1221 l 539 1190 l 379 1051 l 342 1051 l 182 1190 l 210 1221 l 361 1110 l 513 1221 z "},"Ȩ":{"ha":631,"x_min":142,"x_max":576,"o":"m 372 0 l 372 -94 q 486 -196 486 -104 q 450 -278 486 -249 q 361 -308 414 -308 q 264 -281 304 -308 l 286 -240 q 360 -261 319 -261 q 410 -244 390 -261 q 431 -196 431 -228 q 403 -148 431 -164 q 318 -132 376 -132 l 328 0 l 142 0 l 142 950 l 569 950 l 561 893 l 207 893 l 207 524 l 514 524 l 514 468 l 207 468 l 207 56 l 576 56 l 576 0 l 372 0 z "},"Ê":{"ha":631,"x_min":142,"x_max":576,"o":"m 569 950 l 561 893 l 207 893 l 207 524 l 514 524 l 514 468 l 207 468 l 207 56 l 576 56 l 576 0 l 142 0 l 142 950 l 569 950 m 211 1061 l 182 1093 l 342 1231 l 379 1231 l 539 1093 l 511 1061 l 361 1172 l 211 1061 z "},"Ế":{"ha":631,"x_min":142,"x_max":651,"o":"m 569 950 l 561 893 l 207 893 l 207 524 l 514 524 l 514 468 l 207 468 l 207 56 l 576 56 l 576 0 l 142 0 l 142 950 l 569 950 m 214 1017 l 185 1049 l 344 1186 l 382 1186 l 542 1049 l 514 1017 l 364 1128 l 214 1017 m 606 1357 l 651 1318 l 503 1151 l 472 1178 l 606 1357 z "},"Ệ":{"ha":631,"x_min":142,"x_max":576,"o":"m 569 950 l 561 893 l 207 893 l 207 524 l 514 524 l 514 468 l 207 468 l 207 56 l 576 56 l 576 0 l 142 0 l 142 950 l 569 950 m 211 1061 l 182 1093 l 342 1231 l 379 1231 l 539 1093 l 511 1061 l 361 1172 l 211 1061 m 357 -221 q 322 -207 335 -221 q 308 -174 308 -193 q 322 -140 308 -153 q 357 -126 335 -126 q 391 -140 378 -126 q 404 -174 404 -154 q 391 -207 404 -193 q 357 -221 378 -221 z "},"Ề":{"ha":631,"x_min":79,"x_max":576,"o":"m 569 950 l 561 893 l 207 893 l 207 524 l 514 524 l 514 468 l 207 468 l 207 56 l 576 56 l 576 0 l 142 0 l 142 950 l 569 950 m 211 1017 l 182 1049 l 342 1186 l 379 1186 l 539 1049 l 511 1017 l 361 1128 l 211 1017 m 125 1357 l 258 1178 l 226 1151 l 79 1318 l 125 1357 z "},"Ể":{"ha":631,"x_min":142,"x_max":631,"o":"m 569 950 l 561 893 l 207 893 l 207 524 l 514 524 l 514 468 l 207 468 l 207 56 l 576 56 l 576 0 l 142 0 l 142 950 l 569 950 m 211 1017 l 182 1049 l 342 1186 l 379 1186 l 539 1049 l 511 1017 l 361 1128 l 211 1017 m 486 1221 q 550 1238 528 1224 q 572 1288 572 1253 q 557 1331 572 1317 q 513 1346 542 1346 q 442 1328 474 1346 l 422 1368 q 519 1396 468 1396 q 601 1367 571 1396 q 631 1292 631 1339 q 539 1189 631 1201 l 539 1125 l 486 1125 l 486 1221 z "},"Ễ":{"ha":631,"x_min":142,"x_max":576,"o":"m 569 950 l 561 893 l 207 893 l 207 524 l 514 524 l 514 468 l 207 468 l 207 56 l 576 56 l 576 0 l 142 0 l 142 950 l 569 950 m 210 1017 l 181 1049 l 340 1186 l 378 1186 l 538 1049 l 510 1017 l 360 1128 l 210 1017 m 433 1244 q 390 1253 410 1244 q 346 1279 371 1263 q 313 1299 326 1293 q 286 1306 299 1306 q 249 1293 265 1306 q 214 1253 232 1281 l 176 1274 q 285 1356 222 1356 q 322 1347 304 1356 q 364 1324 340 1339 q 402 1301 388 1308 q 432 1294 417 1294 q 467 1308 451 1294 q 503 1354 483 1322 l 542 1335 q 433 1244 500 1244 z "},"Ȅ":{"ha":631,"x_min":142,"x_max":576,"o":"m 569 950 l 561 893 l 207 893 l 207 524 l 514 524 l 514 468 l 207 468 l 207 56 l 576 56 l 576 0 l 142 0 l 142 950 l 569 950 m 213 1290 l 308 1090 l 268 1071 l 157 1261 l 213 1290 m 367 1289 l 454 1096 l 414 1078 l 311 1260 l 367 1289 z "},"Ë":{"ha":631,"x_min":142,"x_max":576,"o":"m 569 950 l 561 893 l 207 893 l 207 524 l 514 524 l 514 468 l 207 468 l 207 56 l 576 56 l 576 0 l 142 0 l 142 950 l 569 950 m 250 1192 q 283 1178 271 1192 q 296 1146 296 1165 q 283 1113 296 1126 q 250 1100 271 1100 q 218 1113 231 1100 q 206 1146 206 1126 q 218 1178 206 1165 q 250 1192 231 1192 m 481 1192 q 513 1178 500 1192 q 525 1146 525 1165 q 513 1113 525 1126 q 481 1100 500 1100 q 448 1113 461 1100 q 435 1146 435 1126 q 448 1178 435 1165 q 481 1192 461 1192 z "},"Ė":{"ha":631,"x_min":142,"x_max":576,"o":"m 569 950 l 561 893 l 207 893 l 207 524 l 514 524 l 514 468 l 207 468 l 207 56 l 576 56 l 576 0 l 142 0 l 142 950 l 569 950 m 361 1207 q 397 1193 383 1207 q 410 1160 410 1179 q 397 1126 410 1139 q 361 1113 383 1113 q 327 1126 340 1113 q 314 1160 314 1140 q 327 1193 314 1179 q 361 1207 340 1207 z "},"Ẹ":{"ha":631,"x_min":142,"x_max":576,"o":"m 569 950 l 561 893 l 207 893 l 207 524 l 514 524 l 514 468 l 207 468 l 207 56 l 576 56 l 576 0 l 142 0 l 142 950 l 569 950 m 357 -221 q 322 -207 335 -221 q 308 -174 308 -193 q 322 -140 308 -153 q 357 -126 335 -126 q 391 -140 378 -126 q 404 -174 404 -154 q 391 -207 404 -193 q 357 -221 378 -221 z "},"È":{"ha":631,"x_min":142,"x_max":576,"o":"m 569 950 l 561 893 l 207 893 l 207 524 l 514 524 l 514 468 l 207 468 l 207 56 l 576 56 l 576 0 l 142 0 l 142 950 l 569 950 m 258 1218 l 488 1092 l 468 1054 l 228 1160 l 258 1218 z "},"Ẻ":{"ha":631,"x_min":142,"x_max":576,"o":"m 569 950 l 561 893 l 207 893 l 207 524 l 514 524 l 514 468 l 207 468 l 207 56 l 576 56 l 576 0 l 142 0 l 142 950 l 569 950 m 335 1176 q 399 1194 376 1179 q 421 1243 421 1208 q 406 1287 421 1272 q 361 1301 390 1301 q 290 1283 322 1301 l 271 1324 q 368 1351 317 1351 q 449 1323 419 1351 q 479 1247 479 1294 q 388 1144 479 1157 l 388 1081 l 335 1081 l 335 1176 z "},"Ȇ":{"ha":631,"x_min":142,"x_max":576,"o":"m 569 950 l 561 893 l 207 893 l 207 524 l 514 524 l 514 468 l 207 468 l 207 56 l 576 56 l 576 0 l 142 0 l 142 950 l 569 950 m 361 1246 q 467 1208 425 1246 q 517 1104 510 1169 l 475 1094 q 361 1193 450 1193 q 249 1094 271 1193 l 206 1104 q 256 1208 214 1171 q 361 1246 299 1246 z "},"Ē":{"ha":631,"x_min":142,"x_max":576,"o":"m 569 950 l 561 893 l 207 893 l 207 524 l 514 524 l 514 468 l 207 468 l 207 56 l 576 56 l 576 0 l 142 0 l 142 950 l 569 950 m 507 1119 l 217 1119 l 217 1171 l 507 1171 l 507 1119 z "},"Ę":{"ha":631,"x_min":142,"x_max":576,"o":"m 576 56 l 576 0 l 540 0 q 424 -78 458 -42 q 389 -167 389 -114 q 469 -240 389 -240 q 540 -232 501 -240 l 535 -286 q 464 -294 497 -294 q 364 -261 399 -294 q 329 -172 329 -228 q 362 -78 329 -119 q 461 0 394 -36 l 142 0 l 142 950 l 569 950 l 561 893 l 207 893 l 207 524 l 514 524 l 514 468 l 207 468 l 207 56 l 576 56 z "},"Ɛ":{"ha":650,"x_min":69,"x_max":621,"o":"m 342 964 q 478 935 417 964 q 596 849 539 906 l 558 810 q 458 882 510 857 q 346 907 407 907 q 212 858 261 907 q 163 729 163 810 q 216 588 163 638 q 360 539 269 539 l 433 539 l 425 482 l 356 483 q 193 429 250 485 q 136 271 136 374 q 197 103 136 163 q 356 43 257 43 q 478 70 424 43 q 579 150 532 97 l 621 114 q 356 -15 508 -15 q 208 19 272 -15 q 106 118 143 53 q 69 272 69 183 q 124 442 69 381 q 261 514 178 503 q 140 585 185 532 q 96 729 96 639 q 163 899 96 833 q 342 964 229 964 z "},"Ǝ":{"ha":631,"x_min":54,"x_max":489,"o":"m 63 950 l 489 950 l 489 0 l 54 0 l 54 56 l 425 56 l 425 468 l 118 468 l 118 524 l 425 524 l 425 893 l 63 893 l 63 950 z "},"Ʃ":{"ha":614,"x_min":58,"x_max":556,"o":"m 556 950 l 556 893 l 139 893 l 411 488 l 411 454 l 139 57 l 556 57 l 556 0 l 58 0 l 58 43 l 350 471 l 58 907 l 58 950 l 556 950 z "},"Ɇ":{"ha":631,"x_min":142,"x_max":576,"o":"m 576 56 l 576 0 l 275 0 l 251 -97 l 215 -89 l 236 0 l 142 0 l 142 950 l 460 950 l 479 1031 l 515 1022 l 499 950 l 569 950 l 561 893 l 485 893 l 397 524 l 514 524 l 514 468 l 385 468 l 288 56 l 576 56 m 207 893 l 207 524 l 360 524 l 447 893 l 207 893 m 207 56 l 250 56 l 347 468 l 207 468 l 207 56 z "},"Ẽ":{"ha":631,"x_min":142,"x_max":576,"o":"m 569 950 l 561 893 l 207 893 l 207 524 l 514 524 l 514 468 l 207 468 l 207 56 l 576 56 l 576 0 l 142 0 l 142 950 l 569 950 m 435 1107 q 392 1116 411 1107 q 347 1142 372 1125 q 314 1162 328 1156 q 288 1168 300 1168 q 250 1156 267 1168 q 215 1115 233 1143 l 178 1136 q 286 1218 224 1218 q 324 1210 306 1218 q 365 1186 342 1201 q 403 1164 389 1171 q 433 1157 418 1157 q 469 1171 453 1157 q 504 1217 485 1185 l 543 1197 q 435 1107 501 1107 z "},"Ʒ":{"ha":608,"x_min":21,"x_max":549,"o":"m 267 529 q 477 461 406 529 q 549 260 549 393 q 476 61 549 138 q 276 -15 403 -15 q 131 14 192 -15 q 21 103 69 43 l 61 139 q 156 65 107 88 q 274 42 206 42 q 428 101 375 42 q 482 258 482 160 q 426 425 482 374 q 260 476 369 476 l 158 476 l 158 529 l 443 894 l 47 894 l 47 950 l 518 950 l 518 896 l 228 529 l 267 529 z "},"Ǯ":{"ha":608,"x_min":21,"x_max":549,"o":"m 267 529 q 477 461 406 529 q 549 260 549 393 q 476 61 549 138 q 276 -15 403 -15 q 131 14 192 -15 q 21 103 69 43 l 61 139 q 156 65 107 88 q 274 42 206 42 q 428 101 375 42 q 482 258 482 160 q 426 425 482 374 q 260 476 369 476 l 158 476 l 158 529 l 443 894 l 47 894 l 47 950 l 518 950 l 518 896 l 228 529 l 267 529 m 433 1221 l 460 1190 l 300 1051 l 263 1051 l 103 1190 l 131 1221 l 282 1110 l 433 1221 z "},"Ƹ":{"ha":608,"x_min":60,"x_max":588,"o":"m 588 103 q 474 14 536 43 q 326 -15 413 -15 q 131 58 203 -15 q 60 253 60 131 q 132 458 60 386 q 343 529 204 529 l 381 529 l 90 896 l 90 950 l 561 950 l 561 894 l 165 894 l 450 529 l 450 476 l 349 476 q 126 253 126 476 q 178 97 126 153 q 328 42 231 42 q 448 64 399 42 q 547 139 497 86 l 588 103 z "},"F":{"ha":597,"x_min":142,"x_max":563,"o":"m 142 0 l 142 950 l 563 950 l 554 893 l 207 893 l 207 506 l 507 506 l 507 450 l 207 450 l 207 0 l 142 0 z "},"Ḟ":{"ha":597,"x_min":142,"x_max":563,"o":"m 142 0 l 142 950 l 563 950 l 554 893 l 207 893 l 207 506 l 507 506 l 507 450 l 207 450 l 207 0 l 142 0 m 364 1207 q 399 1193 386 1207 q 413 1160 413 1179 q 399 1126 413 1139 q 364 1113 386 1113 q 330 1126 343 1113 q 317 1160 317 1140 q 330 1193 317 1179 q 364 1207 343 1207 z "},"Ƒ":{"ha":597,"x_min":-65,"x_max":563,"o":"m 207 893 l 207 506 l 507 506 l 507 450 l 207 450 l 207 -118 q 167 -239 207 -197 q 60 -281 126 -281 q -65 -236 -12 -281 l -36 -194 q 7 -218 -14 -210 q 57 -226 28 -226 q 119 -201 96 -226 q 142 -119 142 -175 l 142 950 l 563 950 l 554 893 l 207 893 z "},"G":{"ha":771,"x_min":86,"x_max":686,"o":"m 442 964 q 563 942 511 964 q 669 874 615 921 l 632 833 q 542 890 586 872 q 442 907 497 907 q 300 865 365 907 q 194 728 235 824 q 154 479 154 632 q 229 149 154 256 q 439 42 304 42 q 537 54 493 42 q 622 93 581 67 l 622 450 l 451 450 l 444 507 l 686 507 l 686 61 q 440 -15 571 -15 q 181 108 275 -15 q 86 479 86 232 q 135 751 86 642 q 266 912 185 860 q 442 964 347 964 z "},"Ǵ":{"ha":771,"x_min":86,"x_max":686,"o":"m 442 964 q 563 942 511 964 q 669 874 615 921 l 632 833 q 542 890 586 872 q 442 907 497 907 q 300 865 365 907 q 194 728 235 824 q 154 479 154 632 q 229 149 154 256 q 439 42 304 42 q 537 54 493 42 q 622 93 581 67 l 622 450 l 451 450 l 444 507 l 686 507 l 686 61 q 440 -15 571 -15 q 181 108 275 -15 q 86 479 86 232 q 135 751 86 642 q 266 912 185 860 q 442 964 347 964 m 539 1218 l 568 1160 l 326 1054 l 308 1093 l 539 1218 z "},"Ɣ":{"ha":689,"x_min":29,"x_max":660,"o":"m 383 78 q 440 -69 425 -21 q 456 -165 456 -117 q 426 -249 456 -218 q 344 -281 397 -281 q 263 -250 293 -281 q 233 -167 233 -219 q 249 -76 233 -122 q 307 78 264 -31 l 29 950 l 96 950 l 346 125 l 596 950 l 660 950 l 383 78 m 396 -162 q 385 -85 396 -125 q 344 33 374 -46 q 306 -83 317 -43 q 294 -162 294 -124 q 344 -228 294 -228 q 396 -162 396 -228 z "},"Ğ":{"ha":771,"x_min":86,"x_max":686,"o":"m 442 964 q 563 942 511 964 q 669 874 615 921 l 632 833 q 542 890 586 872 q 442 907 497 907 q 300 865 365 907 q 194 728 235 824 q 154 479 154 632 q 229 149 154 256 q 439 42 304 42 q 537 54 493 42 q 622 93 581 67 l 622 450 l 451 450 l 444 507 l 686 507 l 686 61 q 440 -15 571 -15 q 181 108 275 -15 q 86 479 86 232 q 135 751 86 642 q 266 912 185 860 q 442 964 347 964 m 439 1065 q 334 1101 376 1065 q 283 1193 292 1136 l 325 1203 q 367 1142 338 1164 q 439 1119 396 1119 q 512 1142 482 1119 q 553 1203 542 1164 l 594 1193 q 544 1101 588 1136 q 439 1065 501 1065 z "},"Ǧ":{"ha":771,"x_min":86,"x_max":686,"o":"m 442 964 q 563 942 511 964 q 669 874 615 921 l 632 833 q 542 890 586 872 q 442 907 497 907 q 300 865 365 907 q 194 728 235 824 q 154 479 154 632 q 229 149 154 256 q 439 42 304 42 q 537 54 493 42 q 622 93 581 67 l 622 450 l 451 450 l 444 507 l 686 507 l 686 61 q 440 -15 571 -15 q 181 108 275 -15 q 86 479 86 232 q 135 751 86 642 q 266 912 185 860 q 442 964 347 964 m 590 1221 l 617 1190 l 457 1051 l 419 1051 l 260 1190 l 288 1221 l 439 1110 l 590 1221 z "},"Ĝ":{"ha":771,"x_min":86,"x_max":686,"o":"m 442 964 q 563 942 511 964 q 669 874 615 921 l 632 833 q 542 890 586 872 q 442 907 497 907 q 300 865 365 907 q 194 728 235 824 q 154 479 154 632 q 229 149 154 256 q 439 42 304 42 q 537 54 493 42 q 622 93 581 67 l 622 450 l 451 450 l 444 507 l 686 507 l 686 61 q 440 -15 571 -15 q 181 108 275 -15 q 86 479 86 232 q 135 751 86 642 q 266 912 185 860 q 442 964 347 964 m 289 1061 l 260 1093 l 419 1231 l 457 1231 l 617 1093 l 589 1061 l 439 1172 l 289 1061 z "},"Ģ":{"ha":771,"x_min":86,"x_max":686,"o":"m 442 964 q 563 942 511 964 q 669 874 615 921 l 632 833 q 542 890 586 872 q 442 907 497 907 q 300 865 365 907 q 194 728 235 824 q 154 479 154 632 q 229 149 154 256 q 439 42 304 42 q 537 54 493 42 q 622 93 581 67 l 622 450 l 451 450 l 444 507 l 686 507 l 686 61 q 440 -15 571 -15 q 181 108 275 -15 q 86 479 86 232 q 135 751 86 642 q 266 912 185 860 q 442 964 347 964 m 422 -122 q 460 -137 446 -122 q 474 -174 474 -151 q 467 -209 474 -189 q 447 -260 460 -229 l 397 -379 l 358 -379 l 400 -221 q 371 -174 371 -206 q 385 -137 371 -151 q 422 -122 399 -122 z "},"Ġ":{"ha":771,"x_min":86,"x_max":686,"o":"m 442 964 q 563 942 511 964 q 669 874 615 921 l 632 833 q 542 890 586 872 q 442 907 497 907 q 300 865 365 907 q 194 728 235 824 q 154 479 154 632 q 229 149 154 256 q 439 42 304 42 q 537 54 493 42 q 622 93 581 67 l 622 450 l 451 450 l 444 507 l 686 507 l 686 61 q 440 -15 571 -15 q 181 108 275 -15 q 86 479 86 232 q 135 751 86 642 q 266 912 185 860 q 442 964 347 964 m 439 1207 q 474 1193 461 1207 q 488 1160 488 1179 q 474 1126 488 1139 q 439 1113 461 1113 q 405 1126 418 1113 q 392 1160 392 1140 q 405 1193 392 1179 q 439 1207 418 1207 z "},"Ɠ":{"ha":708,"x_min":86,"x_max":879,"o":"m 754 1142 q 879 1096 822 1142 l 850 1056 q 806 1079 826 1071 q 757 1088 785 1088 q 669 975 669 1088 l 669 874 l 636 838 q 542 890 588 874 q 440 907 496 907 q 301 865 365 907 q 195 726 236 822 q 154 479 154 631 q 229 149 154 256 q 439 42 304 42 q 537 54 493 42 q 622 93 581 67 l 622 450 l 451 450 l 444 507 l 686 507 l 686 61 q 439 -15 571 -15 q 181 109 275 -15 q 86 479 86 233 q 135 749 86 640 q 265 911 185 858 q 438 964 346 964 q 608 915 538 964 l 608 974 q 647 1099 608 1056 q 754 1142 686 1142 z "},"Ɂ":{"ha":572,"x_min":18,"x_max":529,"o":"m 196 415 l 285 440 q 417 519 372 465 q 463 682 463 574 q 411 845 463 783 q 269 907 360 907 q 157 882 208 907 q 56 810 106 857 l 18 849 q 137 935 76 907 q 271 964 197 964 q 460 885 390 964 q 529 683 529 807 q 471 486 529 550 q 308 393 413 422 l 260 379 l 260 0 l 196 0 l 196 415 z "},"Ǥ":{"ha":788,"x_min":86,"x_max":778,"o":"m 778 278 l 686 278 l 686 61 q 439 -15 571 -15 q 181 109 275 -15 q 86 479 86 233 q 136 749 86 640 q 266 911 186 858 q 439 964 346 964 q 564 942 511 964 q 669 874 617 921 l 631 833 q 541 890 585 872 q 440 907 497 907 q 301 864 365 907 q 195 725 236 821 q 154 479 154 629 q 229 149 154 257 q 439 42 304 42 q 537 54 493 42 q 622 93 581 67 l 622 278 l 453 278 l 453 332 l 622 332 l 622 450 l 451 450 l 444 507 l 686 507 l 686 332 l 778 332 l 778 278 z "},"Ȝ":{"ha":625,"x_min":29,"x_max":557,"o":"m 285 964 q 464 897 399 964 q 529 719 529 829 q 484 573 529 628 q 360 500 439 518 q 503 434 449 489 q 557 281 557 379 q 447 37 557 133 q 83 -118 338 -60 l 78 -61 q 321 24 231 -25 q 450 134 411 72 q 489 279 489 196 q 432 421 489 371 q 267 469 375 471 l 192 468 l 200 525 l 264 525 q 409 575 356 525 q 463 718 463 625 q 415 856 463 806 q 282 907 368 907 q 169 883 221 907 q 67 810 118 858 l 29 849 q 150 935 89 907 q 285 964 211 964 z "},"H":{"ha":835,"x_min":142,"x_max":693,"o":"m 628 0 l 628 472 l 207 472 l 207 0 l 142 0 l 142 950 l 207 950 l 207 528 l 628 528 l 628 950 l 693 950 l 693 0 l 628 0 z "},"Ħ":{"ha":836,"x_min":63,"x_max":774,"o":"m 774 765 l 774 717 l 694 717 l 694 0 l 629 0 l 629 472 l 208 472 l 208 0 l 143 0 l 143 717 l 63 717 l 63 765 l 143 765 l 143 950 l 208 950 l 208 765 l 629 765 l 629 950 l 694 950 l 694 765 l 774 765 m 629 528 l 629 717 l 208 717 l 208 528 l 629 528 z "},"Ȟ":{"ha":835,"x_min":142,"x_max":693,"o":"m 628 0 l 628 472 l 207 472 l 207 0 l 142 0 l 142 950 l 207 950 l 207 528 l 628 528 l 628 950 l 693 950 l 693 0 l 628 0 m 567 1221 l 593 1190 l 433 1051 l 396 1051 l 236 1190 l 264 1221 l 415 1110 l 567 1221 z "},"Ĥ":{"ha":835,"x_min":142,"x_max":693,"o":"m 628 0 l 628 472 l 207 472 l 207 0 l 142 0 l 142 950 l 207 950 l 207 528 l 628 528 l 628 950 l 693 950 l 693 0 l 628 0 m 265 1061 l 236 1093 l 396 1231 l 433 1231 l 593 1093 l 565 1061 l 415 1172 l 265 1061 z "},"Ḥ":{"ha":835,"x_min":142,"x_max":693,"o":"m 628 0 l 628 472 l 207 472 l 207 0 l 142 0 l 142 950 l 207 950 l 207 528 l 628 528 l 628 950 l 693 950 l 693 0 l 628 0 m 418 -221 q 383 -207 396 -221 q 369 -174 369 -193 q 383 -140 369 -153 q 418 -126 396 -126 q 452 -140 439 -126 q 465 -174 465 -154 q 452 -207 465 -193 q 418 -221 439 -221 z "},"Ɦ":{"ha":903,"x_min":21,"x_max":761,"o":"m 761 950 l 761 0 l 696 0 l 696 472 l 275 472 l 275 0 l 210 0 l 210 894 l 178 894 q 105 869 128 894 q 82 801 82 844 q 90 747 82 771 q 111 694 97 722 l 65 671 q 32 734 43 706 q 21 803 21 763 q 62 910 21 869 q 182 950 103 950 l 275 950 l 275 528 l 696 528 l 696 950 l 761 950 z "},"Ɥ":{"ha":736,"x_min":58,"x_max":594,"o":"m 594 950 l 594 0 l 531 0 l 531 419 q 300 313 433 313 q 125 379 192 313 q 58 564 58 446 l 58 950 l 122 950 l 122 568 q 172 422 122 472 q 310 371 221 371 q 435 401 378 371 q 531 485 493 432 l 531 950 l 594 950 z "},"Ƕ":{"ha":1206,"x_min":142,"x_max":1099,"o":"m 1065 725 q 1099 360 1099 522 q 1063 149 1099 233 q 969 25 1028 65 q 836 -15 910 -15 q 687 42 746 -15 q 628 204 628 100 l 628 472 l 207 472 l 207 0 l 142 0 l 142 950 l 207 950 l 207 528 l 628 528 l 628 950 l 693 950 l 693 207 q 733 82 693 124 q 838 40 772 40 q 978 115 922 40 q 1035 361 1035 190 q 1003 725 1035 524 l 1065 725 z "},"I":{"ha":349,"x_min":142,"x_max":207,"o":"m 207 950 l 207 0 l 142 0 l 142 950 l 207 950 z "},"Ĳ":{"ha":707,"x_min":142,"x_max":572,"o":"m 207 950 l 207 0 l 142 0 l 142 950 l 207 950 m 572 125 q 555 -3 572 46 q 497 -87 538 -53 q 385 -156 457 -122 l 367 -110 q 455 -49 425 -78 q 497 21 485 -19 q 508 128 508 61 l 508 950 l 572 950 l 572 125 z "},"Í":{"ha":349,"x_min":43,"x_max":303,"o":"m 207 950 l 207 0 l 142 0 l 142 950 l 207 950 m 274 1218 l 303 1160 l 61 1054 l 43 1093 l 274 1218 z "},"Ĭ":{"ha":349,"x_min":18,"x_max":329,"o":"m 207 950 l 207 0 l 142 0 l 142 950 l 207 950 m 174 1065 q 69 1101 111 1065 q 18 1193 26 1136 l 60 1203 q 101 1142 72 1164 q 174 1119 131 1119 q 247 1142 217 1119 q 288 1203 276 1164 l 329 1193 q 279 1101 322 1136 q 174 1065 236 1065 z "},"Ǐ":{"ha":349,"x_min":-6,"x_max":351,"o":"m 207 950 l 207 0 l 142 0 l 142 950 l 207 950 m 325 1221 l 351 1190 l 192 1051 l 154 1051 l -6 1190 l 22 1221 l 174 1110 l 325 1221 z "},"Î":{"ha":349,"x_min":-6,"x_max":351,"o":"m 207 950 l 207 0 l 142 0 l 142 950 l 207 950 m 24 1061 l -6 1093 l 154 1231 l 192 1231 l 351 1093 l 324 1061 l 174 1172 l 24 1061 z "},"Ȉ":{"ha":349,"x_min":-31,"x_max":267,"o":"m 207 950 l 207 0 l 142 0 l 142 950 l 207 950 m 25 1290 l 121 1090 l 81 1071 l -31 1261 l 25 1290 m 179 1289 l 267 1096 l 226 1078 l 124 1260 l 179 1289 z "},"Ï":{"ha":349,"x_min":18,"x_max":338,"o":"m 207 950 l 207 0 l 142 0 l 142 950 l 207 950 m 63 1192 q 96 1178 83 1192 q 108 1146 108 1165 q 96 1113 108 1126 q 63 1100 83 1100 q 31 1113 43 1100 q 18 1146 18 1126 q 31 1178 18 1165 q 63 1192 43 1192 m 293 1192 q 325 1178 313 1192 q 338 1146 338 1165 q 325 1113 338 1126 q 293 1100 313 1100 q 260 1113 274 1100 q 247 1146 247 1126 q 260 1178 247 1165 q 293 1192 274 1192 z "},"Ḯ":{"ha":349,"x_min":14,"x_max":333,"o":"m 207 950 l 207 0 l 142 0 l 142 950 l 207 950 m 275 1325 l 321 1286 l 172 1119 l 142 1146 l 275 1325 m 58 1124 q 92 1110 79 1124 q 104 1078 104 1097 q 92 1045 104 1058 q 58 1032 79 1032 q 26 1045 39 1032 q 14 1078 14 1058 q 26 1110 14 1097 q 58 1124 39 1124 m 289 1124 q 321 1110 308 1124 q 333 1078 333 1097 q 321 1045 333 1058 q 289 1032 308 1032 q 256 1045 269 1032 q 243 1078 243 1058 q 256 1110 243 1097 q 289 1124 269 1124 z "},"İ":{"ha":349,"x_min":126,"x_max":222,"o":"m 207 950 l 207 0 l 142 0 l 142 950 l 207 950 m 174 1207 q 209 1193 196 1207 q 222 1160 222 1179 q 209 1126 222 1139 q 174 1113 196 1113 q 140 1126 153 1113 q 126 1160 126 1140 q 140 1193 126 1179 q 174 1207 153 1207 z "},"Ị":{"ha":349,"x_min":126,"x_max":222,"o":"m 207 950 l 207 0 l 142 0 l 142 950 l 207 950 m 175 -221 q 140 -207 153 -221 q 126 -174 126 -193 q 140 -140 126 -153 q 175 -126 153 -126 q 209 -140 196 -126 q 222 -174 222 -154 q 209 -207 222 -193 q 175 -221 196 -221 z "},"Ì":{"ha":349,"x_min":40,"x_max":300,"o":"m 207 950 l 207 0 l 142 0 l 142 950 l 207 950 m 71 1218 l 300 1092 l 281 1054 l 40 1160 l 71 1218 z "},"Ỉ":{"ha":349,"x_min":83,"x_max":292,"o":"m 207 950 l 207 0 l 142 0 l 142 950 l 207 950 m 147 1176 q 211 1194 189 1179 q 233 1243 233 1208 q 218 1287 233 1272 q 174 1301 203 1301 q 103 1283 135 1301 l 83 1324 q 181 1351 129 1351 q 262 1323 232 1351 q 292 1247 292 1294 q 200 1144 292 1157 l 200 1081 l 147 1081 l 147 1176 z "},"Ȋ":{"ha":349,"x_min":18,"x_max":329,"o":"m 207 950 l 207 0 l 142 0 l 142 950 l 207 950 m 174 1246 q 280 1208 238 1246 q 329 1104 322 1169 l 288 1094 q 174 1193 263 1193 q 61 1094 83 1193 l 18 1104 q 69 1208 26 1171 q 174 1246 111 1246 z "},"Ī":{"ha":349,"x_min":29,"x_max":319,"o":"m 207 950 l 207 0 l 142 0 l 142 950 l 207 950 m 319 1119 l 29 1119 l 29 1171 l 319 1171 l 319 1119 z "},"Į":{"ha":349,"x_min":-8,"x_max":207,"o":"m 207 950 l 207 0 l 203 0 q 86 -78 121 -42 q 51 -167 51 -114 q 132 -240 51 -240 q 203 -232 163 -240 l 197 -286 q 126 -294 160 -294 q 26 -261 61 -294 q -8 -172 -8 -228 q 28 -72 -8 -115 q 142 10 65 -29 l 142 950 l 207 950 z "},"Ɩ":{"ha":421,"x_min":128,"x_max":400,"o":"m 400 31 q 275 -14 347 -14 q 168 28 208 -14 q 128 149 128 69 l 128 950 l 193 950 l 193 147 q 216 66 193 92 q 278 40 239 40 q 328 49 307 40 q 371 72 349 57 l 400 31 z "},"Ɨ":{"ha":394,"x_min":36,"x_max":360,"o":"m 360 528 l 360 472 l 231 472 l 231 0 l 165 0 l 165 472 l 36 472 l 36 528 l 165 528 l 165 950 l 231 950 l 231 528 l 360 528 z "},"Ĩ":{"ha":349,"x_min":-10,"x_max":356,"o":"m 207 950 l 207 0 l 142 0 l 142 950 l 207 950 m 247 1107 q 204 1116 224 1107 q 160 1142 185 1125 q 126 1162 140 1156 q 100 1168 113 1168 q 63 1156 79 1168 q 28 1115 46 1143 l -10 1136 q 99 1218 36 1218 q 136 1210 118 1218 q 178 1186 154 1201 q 216 1164 201 1171 q 246 1157 231 1157 q 281 1171 265 1157 q 317 1217 297 1185 l 356 1197 q 247 1107 314 1107 z "},"J":{"ha":358,"x_min":18,"x_max":224,"o":"m 224 125 q 206 -3 224 46 q 149 -87 189 -53 q 36 -156 108 -122 l 18 -110 q 106 -49 76 -78 q 148 21 136 -19 q 160 128 160 61 l 160 950 l 224 950 l 224 125 z "},"Ĵ":{"ha":358,"x_min":11,"x_max":368,"o":"m 224 125 q 206 -3 224 46 q 149 -87 189 -53 q 36 -156 108 -122 l 18 -110 q 106 -49 76 -78 q 148 21 136 -19 q 160 128 160 61 l 160 950 l 224 950 l 224 125 m 40 1061 l 11 1093 l 171 1231 l 208 1231 l 368 1093 l 340 1061 l 190 1172 l 40 1061 z "},"Ʝ":{"ha":381,"x_min":-97,"x_max":368,"o":"m 349 -119 q 239 -75 301 -96 q 188 -227 236 -174 q 51 -281 140 -281 q -58 -246 -19 -281 q -97 -150 -97 -211 q -49 -46 -97 -83 q 82 -8 -1 -8 q 175 -17 140 -8 l 175 950 l 239 950 l 239 -28 q 368 -81 319 -54 l 349 -119 m 51 -232 q 146 -192 117 -232 q 175 -64 175 -151 q 82 -56 132 -56 q -40 -147 -40 -56 q 51 -232 -40 -232 z "},"Ɉ":{"ha":381,"x_min":18,"x_max":353,"o":"m 353 449 l 224 449 l 224 125 q 206 -3 224 46 q 149 -87 189 -53 q 36 -156 108 -122 l 18 -110 q 106 -49 76 -78 q 148 21 136 -19 q 160 128 160 61 l 160 449 l 29 449 l 29 504 l 160 504 l 160 950 l 224 950 l 224 504 l 353 504 l 353 449 z "},"K":{"ha":678,"x_min":142,"x_max":672,"o":"m 207 950 l 207 0 l 142 0 l 142 950 l 207 950 m 650 950 l 286 513 l 672 0 l 596 0 l 211 510 l 578 950 l 650 950 z "},"Ǩ":{"ha":678,"x_min":142,"x_max":672,"o":"m 207 950 l 207 0 l 142 0 l 142 950 l 207 950 m 650 950 l 286 513 l 672 0 l 596 0 l 211 510 l 578 950 l 650 950 m 528 1221 l 554 1190 l 394 1051 l 357 1051 l 197 1190 l 225 1221 l 376 1110 l 528 1221 z "},"Ķ":{"ha":678,"x_min":142,"x_max":672,"o":"m 207 950 l 207 0 l 142 0 l 142 950 l 207 950 m 650 950 l 286 513 l 672 0 l 596 0 l 211 510 l 578 950 l 650 950 m 379 -122 q 417 -137 403 -122 q 431 -174 431 -151 q 424 -209 431 -189 q 404 -260 417 -229 l 354 -379 l 315 -379 l 357 -221 q 328 -174 328 -206 q 342 -137 328 -151 q 379 -122 356 -122 z "},"Ƙ":{"ha":714,"x_min":142,"x_max":708,"o":"m 211 510 l 442 863 q 512 940 476 917 q 594 964 547 964 q 708 914 658 964 l 681 876 q 640 903 657 894 q 599 911 624 911 q 544 895 568 911 q 490 833 521 879 l 286 513 l 672 0 l 596 0 l 211 510 m 207 950 l 207 0 l 142 0 l 142 950 l 207 950 z "},"L":{"ha":589,"x_min":142,"x_max":565,"o":"m 207 950 l 207 60 l 565 60 l 556 0 l 142 0 l 142 950 l 207 950 z "},"Ǉ":{"ha":925,"x_min":142,"x_max":790,"o":"m 207 950 l 207 60 l 565 60 l 556 0 l 142 0 l 142 950 l 207 950 m 790 125 q 773 -3 790 46 q 715 -87 756 -53 q 603 -156 675 -122 l 585 -110 q 673 -49 643 -78 q 715 21 703 -19 q 726 128 726 61 l 726 950 l 790 950 l 790 125 z "},"Ĺ":{"ha":589,"x_min":44,"x_max":565,"o":"m 207 950 l 207 60 l 565 60 l 556 0 l 142 0 l 142 950 l 207 950 m 275 1218 l 304 1160 l 63 1054 l 44 1093 l 275 1218 z "},"Ƚ":{"ha":611,"x_min":36,"x_max":588,"o":"m 229 60 l 588 60 l 578 0 l 164 0 l 164 476 l 36 476 l 36 532 l 164 532 l 164 950 l 229 950 l 229 532 l 360 532 l 360 476 l 229 476 l 229 60 z "},"Ɬ":{"ha":635,"x_min":25,"x_max":611,"o":"m 611 60 l 601 0 l 188 0 l 188 378 q 67 413 108 379 q 25 510 25 446 q 61 599 25 565 q 151 632 97 632 q 188 629 168 632 l 188 950 l 253 950 l 253 429 q 399 446 322 431 l 406 399 q 253 379 325 383 l 253 60 l 611 60 m 82 510 q 109 448 82 467 q 188 429 136 429 l 188 582 q 154 585 168 585 q 101 565 121 585 q 82 510 82 546 z "},"Ľ":{"ha":589,"x_min":142,"x_max":565,"o":"m 207 950 l 207 60 l 565 60 l 556 0 l 142 0 l 142 950 l 207 950 m 328 732 l 374 949 l 313 956 l 289 738 l 328 732 z "},"Ḽ":{"ha":589,"x_min":142,"x_max":565,"o":"m 207 950 l 207 60 l 565 60 l 556 0 l 142 0 l 142 950 l 207 950 m 203 -274 l 175 -243 l 335 -97 l 372 -97 l 532 -243 l 503 -274 l 353 -156 l 203 -274 z "},"Ļ":{"ha":589,"x_min":142,"x_max":565,"o":"m 207 950 l 207 60 l 565 60 l 556 0 l 142 0 l 142 950 l 207 950 m 350 -122 q 388 -137 374 -122 q 401 -174 401 -151 q 394 -209 401 -189 q 375 -260 388 -229 l 325 -379 l 286 -379 l 328 -221 q 299 -174 299 -206 q 313 -137 299 -151 q 350 -122 326 -122 z "},"Ŀ":{"ha":589,"x_min":142,"x_max":565,"o":"m 207 950 l 207 60 l 565 60 l 556 0 l 142 0 l 142 950 l 207 950 m 454 551 q 490 538 476 551 q 503 504 503 524 q 490 470 503 483 q 454 457 476 457 q 420 471 433 457 q 407 504 407 485 q 420 538 407 524 q 454 551 433 551 z "},"Ḷ":{"ha":589,"x_min":142,"x_max":565,"o":"m 207 950 l 207 60 l 565 60 l 556 0 l 142 0 l 142 950 l 207 950 m 353 -221 q 317 -207 331 -221 q 304 -174 304 -193 q 317 -140 304 -153 q 353 -126 331 -126 q 387 -140 374 -126 q 400 -174 400 -154 q 387 -207 400 -193 q 353 -221 374 -221 z "},"ǈ":{"ha":903,"x_min":142,"x_max":782,"o":"m 207 950 l 207 60 l 565 60 l 556 0 l 142 0 l 142 950 l 207 950 m 767 -3 q 749 -133 767 -83 q 696 -215 731 -183 q 600 -278 661 -246 l 579 -233 q 653 -180 628 -206 q 692 -113 679 -154 q 704 -3 704 -72 l 704 725 l 767 725 l 767 -3 m 733 1032 q 769 1018 756 1032 q 782 985 782 1004 q 769 951 782 964 q 733 938 756 938 q 699 951 713 938 q 686 985 686 965 q 699 1018 686 1004 q 733 1032 713 1032 z "},"Ł":{"ha":600,"x_min":44,"x_max":578,"o":"m 219 60 l 578 60 l 568 0 l 154 0 l 154 401 l 71 344 l 44 389 l 154 463 l 154 950 l 219 950 l 219 508 l 451 668 l 476 624 l 219 447 l 219 60 z "},"M":{"ha":967,"x_min":90,"x_max":875,"o":"m 875 0 l 814 0 l 772 465 q 738 888 750 693 l 514 114 l 453 114 l 222 888 q 197 554 219 806 l 190 472 l 151 0 l 90 0 l 175 950 l 264 950 l 485 192 l 699 950 l 790 950 l 875 0 z "},"Ḿ":{"ha":967,"x_min":90,"x_max":875,"o":"m 875 0 l 814 0 l 772 465 q 738 888 750 693 l 514 114 l 453 114 l 222 888 q 197 554 219 806 l 190 472 l 151 0 l 90 0 l 175 950 l 264 950 l 485 192 l 699 950 l 790 950 l 875 0 m 582 1218 l 611 1160 l 369 1054 l 351 1093 l 582 1218 z "},"Ṁ":{"ha":967,"x_min":90,"x_max":875,"o":"m 875 0 l 814 0 l 772 465 q 738 888 750 693 l 514 114 l 453 114 l 222 888 q 197 554 219 806 l 190 472 l 151 0 l 90 0 l 175 950 l 264 950 l 485 192 l 699 950 l 790 950 l 875 0 m 482 1207 q 517 1193 504 1207 q 531 1160 531 1179 q 517 1126 531 1139 q 482 1113 504 1113 q 448 1126 461 1113 q 435 1160 435 1140 q 448 1193 435 1179 q 482 1207 461 1207 z "},"Ɯ":{"ha":1158,"x_min":128,"x_max":1015,"o":"m 1015 950 l 1015 0 l 960 0 l 954 132 q 859 24 914 64 q 738 -15 804 -15 q 619 26 667 -15 q 551 139 571 67 q 451 26 508 68 q 326 -15 394 -15 q 180 53 232 -15 q 128 236 128 121 l 128 950 l 193 950 l 193 233 q 229 92 193 142 q 333 42 265 42 q 449 85 399 42 q 542 208 499 129 q 540 238 540 218 l 540 950 l 604 950 l 604 233 q 641 92 604 143 q 746 42 678 42 q 861 86 811 42 q 951 208 911 131 l 951 950 l 1015 950 z "},"N":{"ha":838,"x_min":142,"x_max":696,"o":"m 696 0 l 611 0 l 194 876 q 203 568 203 757 l 203 0 l 142 0 l 142 950 l 225 950 l 643 72 q 633 350 633 238 l 633 950 l 696 950 l 696 0 z "},"Ǌ":{"ha":1196,"x_min":142,"x_max":1061,"o":"m 696 0 l 611 0 l 194 876 q 203 568 203 757 l 203 0 l 142 0 l 142 950 l 225 950 l 643 72 q 633 350 633 238 l 633 950 l 696 950 l 696 0 m 1061 125 q 1044 -3 1061 46 q 986 -87 1026 -53 q 874 -156 946 -122 l 856 -110 q 944 -49 914 -78 q 985 21 974 -19 q 997 128 997 61 l 997 950 l 1061 950 l 1061 125 z "},"Ń":{"ha":838,"x_min":142,"x_max":696,"o":"m 696 0 l 611 0 l 194 876 q 203 568 203 757 l 203 0 l 142 0 l 142 950 l 225 950 l 643 72 q 633 350 633 238 l 633 950 l 696 950 l 696 0 m 529 1218 l 558 1160 l 317 1054 l 299 1093 l 529 1218 z "},"Ň":{"ha":838,"x_min":142,"x_max":696,"o":"m 696 0 l 611 0 l 194 876 q 203 568 203 757 l 203 0 l 142 0 l 142 950 l 225 950 l 643 72 q 633 350 633 238 l 633 950 l 696 950 l 696 0 m 581 1221 l 607 1190 l 447 1051 l 410 1051 l 250 1190 l 278 1221 l 429 1110 l 581 1221 z "},"Ṋ":{"ha":838,"x_min":142,"x_max":696,"o":"m 696 0 l 611 0 l 194 876 q 203 568 203 757 l 203 0 l 142 0 l 142 950 l 225 950 l 643 72 q 633 350 633 238 l 633 950 l 696 950 l 696 0 m 269 -274 l 242 -243 l 401 -97 l 439 -97 l 599 -243 l 569 -274 l 419 -156 l 269 -274 z "},"Ņ":{"ha":838,"x_min":142,"x_max":696,"o":"m 696 0 l 611 0 l 194 876 q 203 568 203 757 l 203 0 l 142 0 l 142 950 l 225 950 l 643 72 q 633 350 633 238 l 633 950 l 696 950 l 696 0 m 417 -122 q 454 -137 440 -122 q 468 -174 468 -151 q 461 -209 468 -189 q 442 -260 454 -229 l 392 -379 l 353 -379 l 394 -221 q 365 -174 365 -206 q 379 -137 365 -151 q 417 -122 393 -122 z "},"Ṅ":{"ha":838,"x_min":142,"x_max":696,"o":"m 696 0 l 611 0 l 194 876 q 203 568 203 757 l 203 0 l 142 0 l 142 950 l 225 950 l 643 72 q 633 350 633 238 l 633 950 l 696 950 l 696 0 m 429 1207 q 465 1193 451 1207 q 478 1160 478 1179 q 465 1126 478 1139 q 429 1113 451 1113 q 395 1126 408 1113 q 382 1160 382 1140 q 395 1193 382 1179 q 429 1207 408 1207 z "},"Ṇ":{"ha":838,"x_min":142,"x_max":696,"o":"m 696 0 l 611 0 l 194 876 q 203 568 203 757 l 203 0 l 142 0 l 142 950 l 225 950 l 643 72 q 633 350 633 238 l 633 950 l 696 950 l 696 0 m 419 -221 q 384 -207 397 -221 q 371 -174 371 -193 q 384 -140 371 -153 q 419 -126 397 -126 q 453 -140 440 -126 q 467 -174 467 -154 q 453 -207 467 -193 q 419 -221 440 -221 z "},"Ǹ":{"ha":838,"x_min":142,"x_max":696,"o":"m 696 0 l 611 0 l 194 876 q 203 568 203 757 l 203 0 l 142 0 l 142 950 l 225 950 l 643 72 q 633 350 633 238 l 633 950 l 696 950 l 696 0 m 326 1218 l 556 1092 l 536 1054 l 296 1160 l 326 1218 z "},"Ŋ":{"ha":838,"x_min":142,"x_max":696,"o":"m 696 950 l 696 -118 q 656 -239 696 -197 q 549 -281 615 -281 q 424 -236 476 -281 l 453 -194 q 496 -218 475 -210 q 546 -226 517 -226 q 608 -201 585 -226 q 631 -119 631 -175 l 631 0 l 611 0 l 194 876 q 203 568 203 757 l 203 0 l 142 0 l 142 950 l 225 950 l 643 72 q 633 350 633 238 l 633 950 l 696 950 z "},"Ɲ":{"ha":838,"x_min":-68,"x_max":696,"o":"m 696 950 l 696 0 l 611 0 l 194 876 q 203 568 203 757 l 203 -119 q 163 -239 203 -197 q 57 -281 122 -281 q -68 -236 -12 -281 l -39 -196 q 4 -219 -18 -211 q 56 -228 26 -228 q 142 -121 142 -228 l 142 950 l 225 950 l 643 72 q 633 350 633 238 l 633 950 l 696 950 z "},"ǋ":{"ha":1172,"x_min":142,"x_max":1051,"o":"m 696 0 l 611 0 l 194 876 q 203 568 203 757 l 203 0 l 142 0 l 142 950 l 225 950 l 643 72 q 633 350 633 238 l 633 950 l 696 950 l 696 0 m 1036 -3 q 1018 -133 1036 -83 q 965 -215 1000 -183 q 869 -278 931 -246 l 849 -233 q 923 -180 897 -206 q 961 -113 949 -154 q 974 -3 974 -72 l 974 725 l 1036 725 l 1036 -3 m 1003 1032 q 1038 1018 1025 1032 q 1051 985 1051 1004 q 1038 951 1051 964 q 1003 938 1025 938 q 969 951 982 938 q 956 985 956 965 q 969 1018 956 1004 q 1003 1032 982 1032 z "},"Ƞ":{"ha":824,"x_min":142,"x_max":693,"o":"m 471 964 q 635 896 578 964 q 693 703 693 828 l 693 -271 l 628 -271 l 628 692 q 463 907 628 907 q 321 864 382 907 q 207 747 260 821 l 207 0 l 142 0 l 142 950 l 197 950 l 204 815 q 471 964 317 964 z "},"Ñ":{"ha":838,"x_min":142,"x_max":696,"o":"m 696 0 l 611 0 l 194 876 q 203 568 203 757 l 203 0 l 142 0 l 142 950 l 225 950 l 643 72 q 633 350 633 238 l 633 950 l 696 950 l 696 0 m 503 1107 q 460 1116 479 1107 q 415 1142 440 1125 q 382 1162 396 1156 q 356 1168 368 1168 q 318 1156 335 1168 q 283 1115 301 1143 l 246 1136 q 354 1218 292 1218 q 392 1210 374 1218 q 433 1186 410 1201 q 472 1164 457 1171 q 501 1157 486 1157 q 537 1171 521 1157 q 572 1217 553 1185 l 611 1197 q 503 1107 569 1107 z "},"O":{"ha":865,"x_min":86,"x_max":778,"o":"m 432 964 q 685 840 592 964 q 778 474 778 715 q 685 111 778 238 q 432 -15 593 -15 q 251 40 329 -15 q 129 206 172 96 q 86 472 86 315 q 129 741 86 631 q 251 908 172 851 q 432 964 329 964 m 432 907 q 228 799 303 907 q 154 472 154 690 q 229 150 154 258 q 432 42 304 42 q 638 149 565 42 q 711 474 711 256 q 638 800 711 693 q 432 907 564 907 z "},"Ȣ":{"ha":797,"x_min":86,"x_max":711,"o":"m 528 535 q 664 439 617 507 q 711 272 711 371 q 676 126 711 192 q 570 23 640 61 q 399 -15 500 -15 q 228 22 299 -15 q 122 124 158 58 q 86 271 86 189 q 133 435 86 367 q 268 533 181 504 q 146 743 146 585 l 146 950 l 210 950 l 210 744 q 399 558 210 558 q 592 744 592 558 l 592 950 l 656 950 l 656 743 q 624 617 656 672 q 528 535 592 563 m 399 42 q 583 102 524 42 q 643 272 643 163 q 583 442 643 382 q 399 501 522 501 q 216 440 278 501 q 154 271 154 379 q 215 103 154 164 q 399 42 276 42 z "},"Ó":{"ha":865,"x_min":86,"x_max":778,"o":"m 432 964 q 685 840 592 964 q 778 474 778 715 q 685 111 778 238 q 432 -15 593 -15 q 251 40 329 -15 q 129 206 172 96 q 86 472 86 315 q 129 741 86 631 q 251 908 172 851 q 432 964 329 964 m 432 907 q 228 799 303 907 q 154 472 154 690 q 229 150 154 258 q 432 42 304 42 q 638 149 565 42 q 711 474 711 256 q 638 800 711 693 q 432 907 564 907 m 532 1218 l 561 1160 l 319 1054 l 301 1093 l 532 1218 z "},"Ŏ":{"ha":865,"x_min":86,"x_max":778,"o":"m 432 964 q 685 840 592 964 q 778 474 778 715 q 685 111 778 238 q 432 -15 593 -15 q 251 40 329 -15 q 129 206 172 96 q 86 472 86 315 q 129 741 86 631 q 251 908 172 851 q 432 964 329 964 m 432 907 q 228 799 303 907 q 154 472 154 690 q 229 150 154 258 q 432 42 304 42 q 638 149 565 42 q 711 474 711 256 q 638 800 711 693 q 432 907 564 907 m 432 1065 q 327 1101 369 1065 q 276 1193 285 1136 l 318 1203 q 360 1142 331 1164 q 432 1119 389 1119 q 505 1142 475 1119 q 546 1203 535 1164 l 588 1193 q 538 1101 581 1136 q 432 1065 494 1065 z "},"Ǒ":{"ha":865,"x_min":86,"x_max":778,"o":"m 432 964 q 685 840 592 964 q 778 474 778 715 q 685 111 778 238 q 432 -15 593 -15 q 251 40 329 -15 q 129 206 172 96 q 86 472 86 315 q 129 741 86 631 q 251 908 172 851 q 432 964 329 964 m 432 907 q 228 799 303 907 q 154 472 154 690 q 229 150 154 258 q 432 42 304 42 q 638 149 565 42 q 711 474 711 256 q 638 800 711 693 q 432 907 564 907 m 583 1221 l 610 1190 l 450 1051 l 413 1051 l 253 1190 l 281 1221 l 432 1110 l 583 1221 z "},"Ɵ":{"ha":865,"x_min":86,"x_max":778,"o":"m 432 964 q 685 839 592 964 q 778 472 778 714 q 685 111 778 238 q 432 -15 593 -15 q 251 40 329 -15 q 129 205 172 96 q 86 471 86 314 q 129 740 86 629 q 251 908 172 851 q 432 964 329 964 m 432 907 q 235 809 308 907 q 154 513 161 711 l 713 513 q 631 809 706 711 q 432 907 557 907 m 432 42 q 638 145 564 42 q 713 458 711 249 l 153 458 q 230 147 154 251 q 432 42 306 42 z "},"Ô":{"ha":865,"x_min":86,"x_max":778,"o":"m 432 964 q 685 840 592 964 q 778 474 778 715 q 685 111 778 238 q 432 -15 593 -15 q 251 40 329 -15 q 129 206 172 96 q 86 472 86 315 q 129 741 86 631 q 251 908 172 851 q 432 964 329 964 m 432 907 q 228 799 303 907 q 154 472 154 690 q 229 150 154 258 q 432 42 304 42 q 638 149 565 42 q 711 474 711 256 q 638 800 711 693 q 432 907 564 907 m 282 1061 l 253 1093 l 413 1231 l 450 1231 l 610 1093 l 582 1061 l 432 1172 l 282 1061 z "},"Ố":{"ha":865,"x_min":86,"x_max":778,"o":"m 432 964 q 685 840 592 964 q 778 474 778 715 q 685 111 778 238 q 432 -15 593 -15 q 251 40 329 -15 q 129 206 172 96 q 86 472 86 315 q 129 741 86 631 q 251 908 172 851 q 432 964 329 964 m 432 907 q 228 799 303 907 q 154 472 154 690 q 229 150 154 258 q 432 42 304 42 q 638 149 565 42 q 711 474 711 256 q 638 800 711 693 q 432 907 564 907 m 285 1017 l 256 1049 l 415 1186 l 453 1186 l 613 1049 l 585 1017 l 435 1128 l 285 1017 m 676 1357 l 722 1318 l 574 1151 l 543 1178 l 676 1357 z "},"Ộ":{"ha":865,"x_min":86,"x_max":778,"o":"m 432 964 q 685 840 592 964 q 778 474 778 715 q 685 111 778 238 q 432 -15 593 -15 q 251 40 329 -15 q 129 206 172 96 q 86 472 86 315 q 129 741 86 631 q 251 908 172 851 q 432 964 329 964 m 432 907 q 228 799 303 907 q 154 472 154 690 q 229 150 154 258 q 432 42 304 42 q 638 149 565 42 q 711 474 711 256 q 638 800 711 693 q 432 907 564 907 m 282 1061 l 253 1093 l 413 1231 l 450 1231 l 610 1093 l 582 1061 l 432 1172 l 282 1061 m 432 -221 q 397 -207 410 -221 q 383 -174 383 -193 q 397 -140 383 -153 q 432 -126 410 -126 q 466 -140 453 -126 q 479 -174 479 -154 q 466 -207 479 -193 q 432 -221 453 -221 z "},"Ồ":{"ha":865,"x_min":86,"x_max":778,"o":"m 432 964 q 685 840 592 964 q 778 474 778 715 q 685 111 778 238 q 432 -15 593 -15 q 251 40 329 -15 q 129 206 172 96 q 86 472 86 315 q 129 741 86 631 q 251 908 172 851 q 432 964 329 964 m 432 907 q 228 799 303 907 q 154 472 154 690 q 229 150 154 258 q 432 42 304 42 q 638 149 565 42 q 711 474 711 256 q 638 800 711 693 q 432 907 564 907 m 282 1017 l 253 1049 l 413 1186 l 450 1186 l 610 1049 l 582 1017 l 432 1128 l 282 1017 m 196 1357 l 329 1178 l 297 1151 l 150 1318 l 196 1357 z "},"Ổ":{"ha":865,"x_min":86,"x_max":778,"o":"m 432 964 q 685 840 592 964 q 778 474 778 715 q 685 111 778 238 q 432 -15 593 -15 q 251 40 329 -15 q 129 206 172 96 q 86 472 86 315 q 129 741 86 631 q 251 908 172 851 q 432 964 329 964 m 432 907 q 228 799 303 907 q 154 472 154 690 q 229 150 154 258 q 432 42 304 42 q 638 149 565 42 q 711 474 711 256 q 638 800 711 693 q 432 907 564 907 m 282 1017 l 253 1049 l 413 1186 l 450 1186 l 610 1049 l 582 1017 l 432 1128 l 282 1017 m 557 1221 q 621 1238 599 1224 q 643 1288 643 1253 q 628 1331 643 1317 q 583 1346 613 1346 q 513 1328 544 1346 l 493 1368 q 590 1396 539 1396 q 672 1367 642 1396 q 701 1292 701 1339 q 610 1189 701 1201 l 610 1125 l 557 1125 l 557 1221 z "},"Ỗ":{"ha":865,"x_min":86,"x_max":778,"o":"m 432 964 q 685 840 592 964 q 778 474 778 715 q 685 111 778 238 q 432 -15 593 -15 q 251 40 329 -15 q 129 206 172 96 q 86 472 86 315 q 129 741 86 631 q 251 908 172 851 q 432 964 329 964 m 432 907 q 228 799 303 907 q 154 472 154 690 q 229 150 154 258 q 432 42 304 42 q 638 149 565 42 q 711 474 711 256 q 638 800 711 693 q 432 907 564 907 m 281 1017 l 251 1049 l 411 1186 l 449 1186 l 608 1049 l 581 1017 l 431 1128 l 281 1017 m 504 1244 q 461 1253 481 1244 q 417 1279 442 1263 q 383 1299 397 1293 q 357 1306 369 1306 q 319 1293 336 1306 q 285 1253 303 1281 l 247 1274 q 356 1356 293 1356 q 393 1347 375 1356 q 435 1324 411 1339 q 473 1301 458 1308 q 503 1294 488 1294 q 538 1308 522 1294 q 574 1354 554 1322 l 613 1335 q 504 1244 571 1244 z "},"Ȍ":{"ha":865,"x_min":86,"x_max":778,"o":"m 432 964 q 685 840 592 964 q 778 474 778 715 q 685 111 778 238 q 432 -15 593 -15 q 251 40 329 -15 q 129 206 172 96 q 86 472 86 315 q 129 741 86 631 q 251 908 172 851 q 432 964 329 964 m 432 907 q 228 799 303 907 q 154 472 154 690 q 229 150 154 258 q 432 42 304 42 q 638 149 565 42 q 711 474 711 256 q 638 800 711 693 q 432 907 564 907 m 283 1290 l 379 1090 l 339 1071 l 228 1261 l 283 1290 m 438 1289 l 525 1096 l 485 1078 l 382 1260 l 438 1289 z "},"Ö":{"ha":865,"x_min":86,"x_max":778,"o":"m 432 964 q 685 840 592 964 q 778 474 778 715 q 685 111 778 238 q 432 -15 593 -15 q 251 40 329 -15 q 129 206 172 96 q 86 472 86 315 q 129 741 86 631 q 251 908 172 851 q 432 964 329 964 m 432 907 q 228 799 303 907 q 154 472 154 690 q 229 150 154 258 q 432 42 304 42 q 638 149 565 42 q 711 474 711 256 q 638 800 711 693 q 432 907 564 907 m 321 1192 q 354 1178 342 1192 q 367 1146 367 1165 q 354 1113 367 1126 q 321 1100 342 1100 q 289 1113 301 1100 q 276 1146 276 1126 q 289 1178 276 1165 q 321 1192 301 1192 m 551 1192 q 583 1178 571 1192 q 596 1146 596 1165 q 583 1113 596 1126 q 551 1100 571 1100 q 519 1113 532 1100 q 506 1146 506 1126 q 519 1178 506 1165 q 551 1192 532 1192 z "},"Ȫ":{"ha":865,"x_min":86,"x_max":778,"o":"m 432 964 q 685 840 592 964 q 778 474 778 715 q 685 111 778 238 q 432 -15 593 -15 q 251 40 329 -15 q 129 206 172 96 q 86 472 86 315 q 129 741 86 631 q 251 908 172 851 q 432 964 329 964 m 432 907 q 228 799 303 907 q 154 472 154 690 q 229 150 154 258 q 432 42 304 42 q 638 149 565 42 q 711 474 711 256 q 638 800 711 693 q 432 907 564 907 m 317 1124 q 350 1110 338 1124 q 363 1078 363 1097 q 350 1045 363 1058 q 317 1032 338 1032 q 285 1045 297 1032 q 272 1078 272 1058 q 285 1110 272 1097 q 317 1124 297 1124 m 547 1124 q 579 1110 567 1124 q 592 1078 592 1097 q 579 1045 592 1058 q 547 1032 567 1032 q 515 1045 528 1032 q 501 1078 501 1058 q 515 1110 501 1097 q 547 1124 528 1124 m 579 1208 l 289 1208 l 289 1260 l 579 1260 l 579 1208 z "},"Ȯ":{"ha":865,"x_min":86,"x_max":778,"o":"m 432 964 q 685 840 592 964 q 778 474 778 715 q 685 111 778 238 q 432 -15 593 -15 q 251 40 329 -15 q 129 206 172 96 q 86 472 86 315 q 129 741 86 631 q 251 908 172 851 q 432 964 329 964 m 432 907 q 228 799 303 907 q 154 472 154 690 q 229 150 154 258 q 432 42 304 42 q 638 149 565 42 q 711 474 711 256 q 638 800 711 693 q 432 907 564 907 m 432 1207 q 467 1193 454 1207 q 481 1160 481 1179 q 467 1126 481 1139 q 432 1113 454 1113 q 398 1126 411 1113 q 385 1160 385 1140 q 398 1193 385 1179 q 432 1207 411 1207 z "},"Ȱ":{"ha":865,"x_min":86,"x_max":778,"o":"m 432 964 q 685 840 592 964 q 778 474 778 715 q 685 111 778 238 q 432 -15 593 -15 q 251 40 329 -15 q 129 206 172 96 q 86 472 86 315 q 129 741 86 631 q 251 908 172 851 q 432 964 329 964 m 432 907 q 228 799 303 907 q 154 472 154 690 q 229 150 154 258 q 432 42 304 42 q 638 149 565 42 q 711 474 711 256 q 638 800 711 693 q 432 907 564 907 m 432 1128 q 467 1114 454 1128 q 481 1081 481 1100 q 467 1047 481 1060 q 432 1033 454 1033 q 398 1047 411 1033 q 385 1081 385 1061 q 398 1114 385 1100 q 432 1128 411 1128 m 578 1207 l 288 1207 l 288 1258 l 578 1258 l 578 1207 z "},"Ọ":{"ha":865,"x_min":86,"x_max":778,"o":"m 432 964 q 685 840 592 964 q 778 474 778 715 q 685 111 778 238 q 432 -15 593 -15 q 251 40 329 -15 q 129 206 172 96 q 86 472 86 315 q 129 741 86 631 q 251 908 172 851 q 432 964 329 964 m 432 907 q 228 799 303 907 q 154 472 154 690 q 229 150 154 258 q 432 42 304 42 q 638 149 565 42 q 711 474 711 256 q 638 800 711 693 q 432 907 564 907 m 432 -221 q 397 -207 410 -221 q 383 -174 383 -193 q 397 -140 383 -153 q 432 -126 410 -126 q 466 -140 453 -126 q 479 -174 479 -154 q 466 -207 479 -193 q 432 -221 453 -221 z "},"Ò":{"ha":865,"x_min":86,"x_max":778,"o":"m 432 964 q 685 840 592 964 q 778 474 778 715 q 685 111 778 238 q 432 -15 593 -15 q 251 40 329 -15 q 129 206 172 96 q 86 472 86 315 q 129 741 86 631 q 251 908 172 851 q 432 964 329 964 m 432 907 q 228 799 303 907 q 154 472 154 690 q 229 150 154 258 q 432 42 304 42 q 638 149 565 42 q 711 474 711 256 q 638 800 711 693 q 432 907 564 907 m 329 1218 l 558 1092 l 539 1054 l 299 1160 l 329 1218 z "},"Ỏ":{"ha":865,"x_min":86,"x_max":778,"o":"m 432 964 q 685 840 592 964 q 778 474 778 715 q 685 111 778 238 q 432 -15 593 -15 q 251 40 329 -15 q 129 206 172 96 q 86 472 86 315 q 129 741 86 631 q 251 908 172 851 q 432 964 329 964 m 432 907 q 228 799 303 907 q 154 472 154 690 q 229 150 154 258 q 432 42 304 42 q 638 149 565 42 q 711 474 711 256 q 638 800 711 693 q 432 907 564 907 m 406 1176 q 469 1194 447 1179 q 492 1243 492 1208 q 476 1287 492 1272 q 432 1301 461 1301 q 361 1283 393 1301 l 342 1324 q 439 1351 388 1351 q 520 1323 490 1351 q 550 1247 550 1294 q 458 1144 550 1157 l 458 1081 l 406 1081 l 406 1176 z "},"Ơ":{"ha":871,"x_min":86,"x_max":785,"o":"m 785 954 q 689 833 785 853 q 778 474 778 706 q 685 111 778 238 q 432 -15 593 -15 q 251 40 329 -15 q 129 206 172 96 q 86 472 86 315 q 129 741 86 631 q 251 908 172 851 q 432 964 329 964 q 660 871 571 964 q 714 897 697 878 q 731 953 731 915 q 714 1053 731 1003 l 761 1068 q 785 954 785 1010 m 432 42 q 638 149 565 42 q 711 474 711 256 q 638 800 711 693 q 432 907 564 907 q 228 799 303 907 q 154 472 154 690 q 229 150 154 258 q 432 42 304 42 z "},"Ớ":{"ha":871,"x_min":86,"x_max":785,"o":"m 561 1160 l 319 1054 l 301 1093 l 532 1218 l 561 1160 m 785 954 q 689 833 785 853 q 778 474 778 706 q 685 111 778 238 q 432 -15 593 -15 q 251 40 329 -15 q 129 206 172 96 q 86 472 86 315 q 129 741 86 631 q 251 908 172 851 q 432 964 329 964 q 660 871 571 964 q 714 897 697 878 q 731 953 731 915 q 714 1053 731 1003 l 761 1068 q 785 954 785 1010 m 432 42 q 638 149 565 42 q 711 474 711 256 q 638 800 711 693 q 432 907 564 907 q 228 799 303 907 q 154 472 154 690 q 229 150 154 258 q 432 42 304 42 z "},"Ợ":{"ha":871,"x_min":86,"x_max":785,"o":"m 785 954 q 689 833 785 853 q 778 474 778 706 q 685 111 778 238 q 432 -15 593 -15 q 251 40 329 -15 q 129 206 172 96 q 86 472 86 315 q 129 741 86 631 q 251 908 172 851 q 432 964 329 964 q 660 871 571 964 q 714 897 697 878 q 731 953 731 915 q 714 1053 731 1003 l 761 1068 q 785 954 785 1010 m 432 42 q 638 149 565 42 q 711 474 711 256 q 638 800 711 693 q 432 907 564 907 q 228 799 303 907 q 154 472 154 690 q 229 150 154 258 q 432 42 304 42 m 432 -126 q 466 -140 453 -126 q 479 -174 479 -154 q 466 -207 479 -193 q 432 -221 453 -221 q 397 -207 410 -221 q 383 -174 383 -193 q 397 -140 383 -153 q 432 -126 410 -126 z "},"Ờ":{"ha":871,"x_min":86,"x_max":785,"o":"m 558 1092 l 539 1054 l 299 1160 l 329 1218 l 558 1092 m 785 954 q 689 833 785 853 q 778 474 778 706 q 685 111 778 238 q 432 -15 593 -15 q 251 40 329 -15 q 129 206 172 96 q 86 472 86 315 q 129 741 86 631 q 251 908 172 851 q 432 964 329 964 q 660 871 571 964 q 714 897 697 878 q 731 953 731 915 q 714 1053 731 1003 l 761 1068 q 785 954 785 1010 m 432 42 q 638 149 565 42 q 711 474 711 256 q 638 800 711 693 q 432 907 564 907 q 228 799 303 907 q 154 472 154 690 q 229 150 154 258 q 432 42 304 42 z "},"Ở":{"ha":871,"x_min":86,"x_max":785,"o":"m 432 1301 q 361 1283 393 1301 l 342 1324 q 439 1351 388 1351 q 520 1323 490 1351 q 550 1247 550 1294 q 458 1144 550 1157 l 458 1081 l 406 1081 l 406 1176 q 469 1194 447 1179 q 492 1243 492 1208 q 476 1287 492 1272 q 432 1301 461 1301 m 785 954 q 689 833 785 853 q 778 474 778 706 q 685 111 778 238 q 432 -15 593 -15 q 251 40 329 -15 q 129 206 172 96 q 86 472 86 315 q 129 741 86 631 q 251 908 172 851 q 432 964 329 964 q 660 871 571 964 q 714 897 697 878 q 731 953 731 915 q 714 1053 731 1003 l 761 1068 q 785 954 785 1010 m 432 42 q 638 149 565 42 q 711 474 711 256 q 638 800 711 693 q 432 907 564 907 q 228 799 303 907 q 154 472 154 690 q 229 150 154 258 q 432 42 304 42 z "},"Ỡ":{"ha":871,"x_min":86,"x_max":785,"o":"m 358 1168 q 321 1156 338 1168 q 286 1115 304 1143 l 249 1136 q 357 1218 294 1218 q 394 1210 376 1218 q 436 1186 413 1201 q 474 1164 460 1171 q 504 1157 489 1157 q 540 1171 524 1157 q 575 1217 556 1185 l 614 1197 q 506 1107 572 1107 q 463 1116 482 1107 q 418 1142 443 1125 q 385 1162 399 1156 q 358 1168 371 1168 m 785 954 q 689 833 785 853 q 778 474 778 706 q 685 111 778 238 q 432 -15 593 -15 q 251 40 329 -15 q 129 206 172 96 q 86 472 86 315 q 129 741 86 631 q 251 908 172 851 q 432 964 329 964 q 660 871 571 964 q 714 897 697 878 q 731 953 731 915 q 714 1053 731 1003 l 761 1068 q 785 954 785 1010 m 432 42 q 638 149 565 42 q 711 474 711 256 q 638 800 711 693 q 432 907 564 907 q 228 799 303 907 q 154 472 154 690 q 229 150 154 258 q 432 42 304 42 z "},"Ő":{"ha":865,"x_min":86,"x_max":778,"o":"m 432 964 q 685 840 592 964 q 778 474 778 715 q 685 111 778 238 q 432 -15 593 -15 q 251 40 329 -15 q 129 206 172 96 q 86 472 86 315 q 129 741 86 631 q 251 908 172 851 q 432 964 329 964 m 432 907 q 228 799 303 907 q 154 472 154 690 q 229 150 154 258 q 432 42 304 42 q 638 149 565 42 q 711 474 711 256 q 638 800 711 693 q 432 907 564 907 m 567 1290 l 624 1261 l 511 1071 l 471 1090 l 567 1290 m 414 1289 l 469 1260 l 367 1078 l 326 1096 l 414 1289 z "},"Ƣ":{"ha":1122,"x_min":86,"x_max":981,"o":"m 811 965 q 936 919 892 965 q 981 781 981 872 l 981 -271 l 915 -271 l 915 781 q 888 881 915 850 q 808 911 860 911 q 734 899 768 911 q 664 865 700 888 q 778 474 778 739 q 685 111 778 238 q 432 -15 593 -15 q 251 40 329 -15 q 129 206 172 96 q 86 472 86 315 q 129 741 86 631 q 251 908 172 851 q 432 964 329 964 q 626 900 546 964 q 716 948 671 931 q 811 965 761 965 m 432 42 q 638 149 565 42 q 711 474 711 256 q 638 800 711 693 q 432 907 564 907 q 228 799 303 907 q 154 472 154 690 q 229 150 154 258 q 432 42 304 42 z "},"Ȏ":{"ha":865,"x_min":86,"x_max":778,"o":"m 432 964 q 685 840 592 964 q 778 474 778 715 q 685 111 778 238 q 432 -15 593 -15 q 251 40 329 -15 q 129 206 172 96 q 86 472 86 315 q 129 741 86 631 q 251 908 172 851 q 432 964 329 964 m 432 907 q 228 799 303 907 q 154 472 154 690 q 229 150 154 258 q 432 42 304 42 q 638 149 565 42 q 711 474 711 256 q 638 800 711 693 q 432 907 564 907 m 432 1246 q 538 1208 496 1246 q 588 1104 581 1169 l 546 1094 q 432 1193 521 1193 q 319 1094 342 1193 l 276 1104 q 327 1208 285 1171 q 432 1246 369 1246 z "},"Ō":{"ha":865,"x_min":86,"x_max":778,"o":"m 432 964 q 685 840 592 964 q 778 474 778 715 q 685 111 778 238 q 432 -15 593 -15 q 251 40 329 -15 q 129 206 172 96 q 86 472 86 315 q 129 741 86 631 q 251 908 172 851 q 432 964 329 964 m 432 907 q 228 799 303 907 q 154 472 154 690 q 229 150 154 258 q 432 42 304 42 q 638 149 565 42 q 711 474 711 256 q 638 800 711 693 q 432 907 564 907 m 578 1119 l 288 1119 l 288 1171 l 578 1171 l 578 1119 z "},"Ṓ":{"ha":865,"x_min":86,"x_max":778,"o":"m 432 964 q 685 840 592 964 q 778 474 778 715 q 685 111 778 238 q 432 -15 593 -15 q 251 40 329 -15 q 129 206 172 96 q 86 472 86 315 q 129 741 86 631 q 251 908 172 851 q 432 964 329 964 m 432 907 q 228 799 303 907 q 154 472 154 690 q 229 150 154 258 q 432 42 304 42 q 638 149 565 42 q 711 474 711 256 q 638 800 711 693 q 432 907 564 907 m 578 1061 l 288 1061 l 288 1113 l 578 1113 l 578 1061 m 531 1344 l 560 1286 l 318 1181 l 300 1219 l 531 1344 z "},"Ṑ":{"ha":865,"x_min":86,"x_max":778,"o":"m 339 1344 l 568 1218 l 549 1181 l 308 1286 l 339 1344 m 581 1061 l 290 1061 l 290 1113 l 581 1113 l 581 1061 m 432 964 q 685 840 592 964 q 778 474 778 715 q 685 111 778 238 q 432 -15 593 -15 q 251 40 329 -15 q 129 206 172 96 q 86 472 86 315 q 129 741 86 631 q 251 908 172 851 q 432 964 329 964 m 432 907 q 228 799 303 907 q 154 472 154 690 q 229 150 154 258 q 432 42 304 42 q 638 149 565 42 q 711 474 711 256 q 638 800 711 693 q 432 907 564 907 z "},"Ꞷ":{"ha":1054,"x_min":93,"x_max":960,"o":"m 868 950 q 938 682 915 799 q 960 400 960 565 q 896 77 960 169 q 715 -15 832 -15 q 590 24 636 -15 q 525 140 544 63 q 458 24 504 63 q 335 -15 411 -15 q 154 81 215 -15 q 93 403 93 178 q 115 680 93 565 q 188 950 138 794 l 253 950 q 181 678 203 797 q 160 404 160 560 q 181 183 160 263 q 240 73 201 104 q 338 42 279 42 q 451 91 410 42 q 493 257 493 140 l 493 551 l 558 551 l 558 257 q 599 90 558 139 q 713 42 640 42 q 809 71 769 42 q 872 179 849 100 q 894 401 894 258 q 874 677 894 558 q 803 950 853 796 l 868 950 z "},"Ǫ":{"ha":865,"x_min":86,"x_max":778,"o":"m 531 -1 q 416 -78 450 -42 q 382 -167 382 -114 q 463 -240 382 -240 q 533 -232 494 -240 l 528 -286 q 457 -294 490 -294 q 357 -261 392 -294 q 322 -172 322 -228 q 349 -86 322 -124 q 428 -15 375 -49 q 249 42 326 -14 q 129 207 172 97 q 86 472 86 317 q 129 741 86 631 q 251 908 172 851 q 432 964 329 964 q 685 840 592 964 q 778 474 778 715 q 713 156 778 276 q 531 -1 649 35 m 154 472 q 229 150 154 258 q 432 42 304 42 q 638 149 565 42 q 711 474 711 256 q 638 800 711 693 q 432 907 564 907 q 228 799 303 907 q 154 472 154 690 z "},"Ǭ":{"ha":865,"x_min":86,"x_max":778,"o":"m 578 1171 l 578 1119 l 288 1119 l 288 1171 l 578 1171 m 531 -1 q 416 -78 450 -42 q 382 -167 382 -114 q 463 -240 382 -240 q 533 -232 494 -240 l 528 -286 q 457 -294 490 -294 q 357 -261 392 -294 q 322 -172 322 -228 q 349 -86 322 -124 q 428 -15 375 -49 q 249 42 326 -14 q 129 207 172 97 q 86 472 86 317 q 129 741 86 631 q 251 908 172 851 q 432 964 329 964 q 685 840 592 964 q 778 474 778 715 q 713 156 778 276 q 531 -1 649 35 m 154 472 q 229 150 154 258 q 432 42 304 42 q 638 149 565 42 q 711 474 711 256 q 638 800 711 693 q 432 907 564 907 q 228 799 303 907 q 154 472 154 690 z "},"Ɔ":{"ha":685,"x_min":29,"x_max":599,"o":"m 276 964 q 512 841 425 964 q 599 475 599 718 q 555 206 599 317 q 435 40 511 96 q 260 -15 358 -15 q 131 10 186 -15 q 29 79 75 36 l 65 121 q 155 63 113 82 q 258 44 197 44 q 398 90 336 44 q 496 233 460 136 q 532 475 532 331 q 462 803 532 700 q 274 907 392 907 q 167 890 215 907 q 72 838 119 872 l 39 879 q 276 964 144 964 z "},"Ø":{"ha":865,"x_min":86,"x_max":778,"o":"m 582 929 q 726 765 675 881 q 778 474 778 650 q 685 112 778 239 q 432 -15 593 -15 q 331 0 381 -15 l 290 -162 l 232 -146 l 281 22 q 138 185 189 71 q 86 472 86 300 q 129 741 86 631 q 251 908 172 851 q 432 964 329 964 q 531 950 488 964 l 575 1121 l 632 1104 l 582 929 m 154 472 q 193 218 154 317 q 303 76 232 119 l 519 893 q 432 907 479 907 q 228 799 303 907 q 154 472 154 690 m 432 42 q 638 149 565 42 q 711 474 710 256 q 561 875 711 789 l 344 56 q 432 42 385 42 z "},"Ǿ":{"ha":865,"x_min":86,"x_max":778,"o":"m 582 929 q 726 765 675 881 q 778 474 778 650 q 685 112 778 239 q 432 -15 593 -15 q 331 0 381 -15 l 290 -162 l 232 -146 l 281 22 q 138 185 189 71 q 86 472 86 300 q 129 741 86 631 q 251 908 172 851 q 432 964 329 964 q 531 950 488 964 l 575 1121 l 632 1104 l 582 929 m 154 472 q 193 218 154 317 q 303 76 232 119 l 519 893 q 432 907 479 907 q 228 799 303 907 q 154 472 154 690 m 432 42 q 638 149 565 42 q 711 474 710 256 q 561 875 711 789 l 344 56 q 432 42 385 42 m 524 1233 l 553 1175 l 311 1069 l 293 1108 l 524 1233 z "},"Õ":{"ha":865,"x_min":86,"x_max":778,"o":"m 432 964 q 685 840 592 964 q 778 474 778 715 q 685 111 778 238 q 432 -15 593 -15 q 251 40 329 -15 q 129 206 172 96 q 86 472 86 315 q 129 741 86 631 q 251 908 172 851 q 432 964 329 964 m 432 907 q 228 799 303 907 q 154 472 154 690 q 229 150 154 258 q 432 42 304 42 q 638 149 565 42 q 711 474 711 256 q 638 800 711 693 q 432 907 564 907 m 506 1107 q 463 1116 482 1107 q 418 1142 443 1125 q 385 1162 399 1156 q 358 1168 371 1168 q 321 1156 338 1168 q 286 1115 304 1143 l 249 1136 q 357 1218 294 1218 q 394 1210 376 1218 q 436 1186 413 1201 q 474 1164 460 1171 q 504 1157 489 1157 q 540 1171 524 1157 q 575 1217 556 1185 l 614 1197 q 506 1107 572 1107 z "},"Ṍ":{"ha":865,"x_min":86,"x_max":778,"o":"m 432 964 q 685 840 592 964 q 778 474 778 715 q 685 111 778 238 q 432 -15 593 -15 q 251 40 329 -15 q 129 206 172 96 q 86 472 86 315 q 129 741 86 631 q 251 908 172 851 q 432 964 329 964 m 432 907 q 228 799 303 907 q 154 472 154 690 q 229 150 154 258 q 432 42 304 42 q 638 149 565 42 q 711 474 711 256 q 638 800 711 693 q 432 907 564 907 m 507 1053 q 464 1062 483 1053 q 419 1088 444 1071 q 386 1108 400 1101 q 360 1114 372 1114 q 322 1101 339 1114 q 288 1061 306 1089 l 250 1082 q 358 1164 296 1164 q 396 1156 378 1164 q 438 1132 414 1147 q 476 1110 461 1117 q 506 1103 490 1103 q 541 1117 525 1103 q 576 1163 557 1131 l 615 1143 q 507 1053 574 1053 m 533 1374 l 563 1315 l 321 1210 l 303 1249 l 533 1374 z "},"Ȭ":{"ha":865,"x_min":86,"x_max":778,"o":"m 432 964 q 685 840 592 964 q 778 474 778 715 q 685 111 778 238 q 432 -15 593 -15 q 251 40 329 -15 q 129 206 172 96 q 86 472 86 315 q 129 741 86 631 q 251 908 172 851 q 432 964 329 964 m 432 907 q 228 799 303 907 q 154 472 154 690 q 229 150 154 258 q 432 42 304 42 q 638 149 565 42 q 711 474 711 256 q 638 800 711 693 q 432 907 564 907 m 507 1053 q 464 1062 483 1053 q 419 1088 444 1071 q 386 1108 400 1101 q 360 1114 372 1114 q 322 1101 339 1114 q 288 1061 306 1089 l 250 1082 q 358 1164 296 1164 q 396 1156 378 1164 q 438 1132 414 1147 q 476 1110 461 1117 q 506 1103 490 1103 q 541 1117 525 1103 q 576 1163 557 1131 l 615 1143 q 507 1053 574 1053 m 574 1233 l 283 1233 l 283 1285 l 574 1285 l 574 1233 z "},"Œ":{"ha":1079,"x_min":86,"x_max":1025,"o":"m 1025 0 l 506 0 q 419 -15 464 -15 q 247 42 322 -15 q 129 208 172 99 q 86 472 86 318 q 129 738 86 626 q 247 906 172 849 q 419 964 322 964 q 507 950 467 964 l 1017 950 l 1008 893 l 604 893 q 710 747 672 840 q 751 524 747 654 l 961 524 l 961 467 l 753 467 q 712 215 751 318 q 599 56 672 111 l 1025 56 l 1025 0 m 154 472 q 188 235 154 332 q 282 90 222 139 q 419 42 342 42 q 615 153 544 42 q 686 483 686 264 q 614 799 686 690 q 419 907 542 907 q 227 796 300 907 q 154 472 154 685 z "},"P":{"ha":706,"x_min":142,"x_max":650,"o":"m 315 950 q 566 881 482 950 q 650 668 650 811 q 561 448 650 518 q 311 378 472 378 l 207 378 l 207 0 l 142 0 l 142 950 l 315 950 m 314 433 q 514 486 446 433 q 582 667 582 539 q 517 842 582 789 q 315 894 451 894 l 207 894 l 207 433 l 314 433 z "},"Ṕ":{"ha":706,"x_min":142,"x_max":650,"o":"m 315 950 q 566 881 482 950 q 650 668 650 811 q 561 448 650 518 q 311 378 472 378 l 207 378 l 207 0 l 142 0 l 142 950 l 315 950 m 314 433 q 514 486 446 433 q 582 667 582 539 q 517 842 582 789 q 315 894 451 894 l 207 894 l 207 433 l 314 433 m 456 1218 l 485 1160 l 243 1054 l 225 1093 l 456 1218 z "},"Ṗ":{"ha":706,"x_min":142,"x_max":650,"o":"m 315 950 q 566 881 482 950 q 650 668 650 811 q 561 448 650 518 q 311 378 472 378 l 207 378 l 207 0 l 142 0 l 142 950 l 315 950 m 314 433 q 514 486 446 433 q 582 667 582 539 q 517 842 582 789 q 315 894 451 894 l 207 894 l 207 433 l 314 433 m 356 1207 q 391 1193 378 1207 q 404 1160 404 1179 q 391 1126 404 1139 q 356 1113 378 1113 q 322 1126 335 1113 q 308 1160 308 1140 q 322 1193 308 1179 q 356 1207 335 1207 z "},"Ƥ":{"ha":774,"x_min":21,"x_max":718,"o":"m 383 950 q 634 881 550 950 q 718 668 718 811 q 629 448 718 518 q 379 378 540 378 l 275 378 l 275 0 l 210 0 l 210 894 l 178 894 q 105 869 128 894 q 82 801 82 844 q 90 747 82 771 q 111 694 97 722 l 65 671 q 32 734 43 706 q 21 803 21 763 q 62 910 21 869 q 182 950 103 950 l 383 950 m 382 433 q 582 486 514 433 q 650 667 650 539 q 585 842 650 789 q 383 894 519 894 l 275 894 l 275 433 l 382 433 z "},"Þ":{"ha":706,"x_min":142,"x_max":650,"o":"m 318 778 q 567 708 483 778 q 650 494 650 639 q 315 194 650 194 l 207 194 l 207 0 l 142 0 l 142 950 l 207 950 l 207 778 l 318 778 m 315 250 q 515 305 447 250 q 582 493 582 360 q 517 669 582 615 q 318 722 453 722 l 207 722 l 207 250 l 315 250 z "},"Q":{"ha":864,"x_min":86,"x_max":808,"o":"m 556 25 q 808 -72 714 21 l 765 -124 q 624 -35 699 -58 q 432 -11 550 -11 q 250 43 328 -11 q 129 206 172 97 q 86 472 86 315 q 129 741 86 631 q 251 908 172 851 q 432 964 329 964 q 685 839 592 964 q 778 474 778 714 q 556 25 778 106 m 154 472 q 229 150 154 258 q 432 42 304 42 q 638 149 565 42 q 711 474 711 256 q 638 800 711 693 q 432 907 564 907 q 228 799 303 907 q 154 472 154 690 z "},"Ɋ":{"ha":825,"x_min":86,"x_max":888,"o":"m 888 -236 q 763 -281 835 -281 q 656 -239 696 -281 q 615 -118 615 -197 l 615 1 l 617 1 l 617 82 q 408 -15 535 -15 q 244 37 317 -15 q 128 195 171 89 q 86 457 86 301 q 128 736 86 622 q 244 907 171 850 q 411 964 318 964 q 619 872 539 964 l 624 950 l 681 950 l 681 -119 q 703 -201 681 -175 q 765 -226 726 -226 q 815 -218 794 -226 q 858 -194 836 -210 l 888 -236 m 413 42 q 617 150 538 42 l 617 807 q 417 907 540 907 q 226 796 299 907 q 154 457 154 685 q 226 144 154 247 q 413 42 297 42 z "},"R":{"ha":732,"x_min":142,"x_max":689,"o":"m 615 0 l 388 436 l 364 435 l 207 435 l 207 0 l 142 0 l 142 950 l 331 950 q 644 696 644 950 q 594 534 644 596 q 453 449 544 472 l 689 0 l 615 0 m 339 490 q 517 540 458 490 q 576 696 576 590 q 519 845 576 796 q 326 894 461 894 l 207 894 l 207 490 l 339 490 z "},"Ŕ":{"ha":732,"x_min":142,"x_max":689,"o":"m 615 0 l 388 436 l 364 435 l 207 435 l 207 0 l 142 0 l 142 950 l 331 950 q 644 696 644 950 q 594 534 644 596 q 453 449 544 472 l 689 0 l 615 0 m 339 490 q 517 540 458 490 q 576 696 576 590 q 519 845 576 796 q 326 894 461 894 l 207 894 l 207 490 l 339 490 m 461 1218 l 490 1160 l 249 1054 l 231 1093 l 461 1218 z "},"Ř":{"ha":732,"x_min":142,"x_max":689,"o":"m 615 0 l 388 436 l 364 435 l 207 435 l 207 0 l 142 0 l 142 950 l 331 950 q 644 696 644 950 q 594 534 644 596 q 453 449 544 472 l 689 0 l 615 0 m 339 490 q 517 540 458 490 q 576 696 576 590 q 519 845 576 796 q 326 894 461 894 l 207 894 l 207 490 l 339 490 m 513 1221 l 539 1190 l 379 1051 l 342 1051 l 182 1190 l 210 1221 l 361 1110 l 513 1221 z "},"Ŗ":{"ha":732,"x_min":142,"x_max":689,"o":"m 615 0 l 388 436 l 364 435 l 207 435 l 207 0 l 142 0 l 142 950 l 331 950 q 644 696 644 950 q 594 534 644 596 q 453 449 544 472 l 689 0 l 615 0 m 339 490 q 517 540 458 490 q 576 696 576 590 q 519 845 576 796 q 326 894 461 894 l 207 894 l 207 490 l 339 490 m 381 -122 q 418 -137 404 -122 q 432 -174 432 -151 q 425 -209 432 -189 q 406 -260 418 -229 l 356 -379 l 317 -379 l 358 -221 q 329 -174 329 -206 q 343 -137 329 -151 q 381 -122 357 -122 z "},"Ȑ":{"ha":732,"x_min":142,"x_max":689,"o":"m 615 0 l 388 436 l 364 435 l 207 435 l 207 0 l 142 0 l 142 950 l 331 950 q 644 696 644 950 q 594 534 644 596 q 453 449 544 472 l 689 0 l 615 0 m 339 490 q 517 540 458 490 q 576 696 576 590 q 519 845 576 796 q 326 894 461 894 l 207 894 l 207 490 l 339 490 m 213 1290 l 308 1090 l 268 1071 l 157 1261 l 213 1290 m 367 1289 l 454 1096 l 414 1078 l 311 1260 l 367 1289 z "},"Ṛ":{"ha":732,"x_min":142,"x_max":689,"o":"m 615 0 l 388 436 l 364 435 l 207 435 l 207 0 l 142 0 l 142 950 l 331 950 q 644 696 644 950 q 594 534 644 596 q 453 449 544 472 l 689 0 l 615 0 m 339 490 q 517 540 458 490 q 576 696 576 590 q 519 845 576 796 q 326 894 461 894 l 207 894 l 207 490 l 339 490 m 383 -221 q 348 -207 361 -221 q 335 -174 335 -193 q 348 -140 335 -153 q 383 -126 361 -126 q 417 -140 404 -126 q 431 -174 431 -154 q 417 -207 431 -193 q 383 -221 404 -221 z "},"Ȓ":{"ha":732,"x_min":142,"x_max":689,"o":"m 615 0 l 388 436 l 364 435 l 207 435 l 207 0 l 142 0 l 142 950 l 331 950 q 644 696 644 950 q 594 534 644 596 q 453 449 544 472 l 689 0 l 615 0 m 339 490 q 517 540 458 490 q 576 696 576 590 q 519 845 576 796 q 326 894 461 894 l 207 894 l 207 490 l 339 490 m 361 1246 q 467 1208 425 1246 q 517 1104 510 1169 l 475 1094 q 361 1193 450 1193 q 249 1094 271 1193 l 206 1104 q 256 1208 214 1171 q 361 1246 299 1246 z "},"Ɍ":{"ha":733,"x_min":31,"x_max":690,"o":"m 617 0 l 389 436 l 365 435 l 208 435 l 208 0 l 143 0 l 143 435 l 31 435 l 31 490 l 143 490 l 143 950 l 332 950 q 646 696 646 950 q 596 534 646 596 q 454 449 546 472 l 690 0 l 617 0 m 340 490 q 519 540 460 490 q 578 696 578 590 q 520 845 578 796 q 328 894 463 894 l 208 894 l 208 490 l 340 490 z "},"Ɽ":{"ha":732,"x_min":142,"x_max":689,"o":"m 207 -119 q 230 -201 207 -175 q 292 -226 253 -226 q 342 -218 321 -226 q 385 -194 363 -210 l 414 -236 q 289 -281 361 -281 q 182 -239 222 -281 q 142 -118 142 -197 l 142 950 l 331 950 q 644 696 644 950 q 594 534 644 596 q 453 449 544 472 l 689 0 l 615 0 l 388 436 l 364 435 l 207 435 l 207 -119 m 207 894 l 207 490 l 339 490 q 517 540 458 490 q 576 696 576 590 q 519 845 576 796 q 326 894 461 894 l 207 894 z "},"S":{"ha":672,"x_min":53,"x_max":600,"o":"m 335 964 q 466 938 411 964 q 574 861 521 913 l 536 821 q 442 887 488 867 q 335 907 396 907 q 202 860 253 907 q 151 738 151 813 q 196 619 151 663 q 354 535 240 575 q 542 430 483 490 q 600 257 600 369 q 565 117 600 179 q 467 20 531 56 q 322 -15 404 -15 q 174 15 239 -15 q 53 103 108 46 l 90 142 q 197 67 143 93 q 321 42 250 42 q 476 100 417 42 q 535 256 535 158 q 515 355 535 315 q 451 424 496 394 q 328 481 407 453 q 141 584 196 526 q 86 736 86 642 q 117 851 86 799 q 206 933 149 903 q 335 964 263 964 z "},"Ś":{"ha":672,"x_min":53,"x_max":600,"o":"m 335 964 q 466 938 411 964 q 574 861 521 913 l 536 821 q 442 887 488 867 q 335 907 396 907 q 202 860 253 907 q 151 738 151 813 q 196 619 151 663 q 354 535 240 575 q 542 430 483 490 q 600 257 600 369 q 565 117 600 179 q 467 20 531 56 q 322 -15 404 -15 q 174 15 239 -15 q 53 103 108 46 l 90 142 q 197 67 143 93 q 321 42 250 42 q 476 100 417 42 q 535 256 535 158 q 515 355 535 315 q 451 424 496 394 q 328 481 407 453 q 141 584 196 526 q 86 736 86 642 q 117 851 86 799 q 206 933 149 903 q 335 964 263 964 m 439 1218 l 468 1160 l 226 1054 l 208 1093 l 439 1218 z "},"Ꞌ":{"ha":263,"x_min":97,"x_max":165,"o":"m 106 494 l 97 950 l 165 950 l 157 494 l 106 494 z "},"Š":{"ha":672,"x_min":53,"x_max":600,"o":"m 335 964 q 466 938 411 964 q 574 861 521 913 l 536 821 q 442 887 488 867 q 335 907 396 907 q 202 860 253 907 q 151 738 151 813 q 196 619 151 663 q 354 535 240 575 q 542 430 483 490 q 600 257 600 369 q 565 117 600 179 q 467 20 531 56 q 322 -15 404 -15 q 174 15 239 -15 q 53 103 108 46 l 90 142 q 197 67 143 93 q 321 42 250 42 q 476 100 417 42 q 535 256 535 158 q 515 355 535 315 q 451 424 496 394 q 328 481 407 453 q 141 584 196 526 q 86 736 86 642 q 117 851 86 799 q 206 933 149 903 q 335 964 263 964 m 490 1221 l 517 1190 l 357 1051 l 319 1051 l 160 1190 l 188 1221 l 339 1110 l 490 1221 z "},"Ş":{"ha":672,"x_min":53,"x_max":600,"o":"m 600 257 q 529 69 600 144 q 344 -14 458 -7 l 344 -94 q 458 -196 458 -104 q 422 -278 458 -249 q 333 -308 386 -308 q 236 -281 276 -308 l 258 -240 q 332 -261 292 -261 q 383 -244 363 -261 q 403 -196 403 -228 q 376 -148 403 -164 q 290 -132 349 -132 l 299 -15 q 164 20 224 -10 q 53 103 104 50 l 90 142 q 197 67 143 93 q 321 42 250 42 q 476 100 417 42 q 535 256 535 158 q 515 355 535 315 q 451 424 496 394 q 328 481 407 453 q 141 584 196 526 q 86 736 86 642 q 117 851 86 799 q 206 933 149 903 q 335 964 263 964 q 466 938 411 964 q 574 861 521 913 l 536 821 q 442 887 488 867 q 335 907 396 907 q 202 860 253 907 q 151 738 151 813 q 196 619 151 663 q 354 535 240 575 q 542 430 483 490 q 600 257 600 369 z "},"Ŝ":{"ha":672,"x_min":53,"x_max":600,"o":"m 335 964 q 466 938 411 964 q 574 861 521 913 l 536 821 q 442 887 488 867 q 335 907 396 907 q 202 860 253 907 q 151 738 151 813 q 196 619 151 663 q 354 535 240 575 q 542 430 483 490 q 600 257 600 369 q 565 117 600 179 q 467 20 531 56 q 322 -15 404 -15 q 174 15 239 -15 q 53 103 108 46 l 90 142 q 197 67 143 93 q 321 42 250 42 q 476 100 417 42 q 535 256 535 158 q 515 355 535 315 q 451 424 496 394 q 328 481 407 453 q 141 584 196 526 q 86 736 86 642 q 117 851 86 799 q 206 933 149 903 q 335 964 263 964 m 189 1061 l 160 1093 l 319 1231 l 357 1231 l 517 1093 l 489 1061 l 339 1172 l 189 1061 z "},"Ș":{"ha":672,"x_min":53,"x_max":600,"o":"m 335 964 q 466 938 411 964 q 574 861 521 913 l 536 821 q 442 887 488 867 q 335 907 396 907 q 202 860 253 907 q 151 738 151 813 q 196 619 151 663 q 354 535 240 575 q 542 430 483 490 q 600 257 600 369 q 565 117 600 179 q 467 20 531 56 q 322 -15 404 -15 q 174 15 239 -15 q 53 103 108 46 l 90 142 q 197 67 143 93 q 321 42 250 42 q 476 100 417 42 q 535 256 535 158 q 515 355 535 315 q 451 424 496 394 q 328 481 407 453 q 141 584 196 526 q 86 736 86 642 q 117 851 86 799 q 206 933 149 903 q 335 964 263 964 m 326 -122 q 364 -137 350 -122 q 378 -174 378 -151 q 371 -209 378 -189 q 351 -260 364 -229 l 301 -379 l 263 -379 l 304 -221 q 275 -174 275 -206 q 289 -137 275 -151 q 326 -122 303 -122 z "},"Ṡ":{"ha":672,"x_min":53,"x_max":600,"o":"m 335 964 q 466 938 411 964 q 574 861 521 913 l 536 821 q 442 887 488 867 q 335 907 396 907 q 202 860 253 907 q 151 738 151 813 q 196 619 151 663 q 354 535 240 575 q 542 430 483 490 q 600 257 600 369 q 565 117 600 179 q 467 20 531 56 q 322 -15 404 -15 q 174 15 239 -15 q 53 103 108 46 l 90 142 q 197 67 143 93 q 321 42 250 42 q 476 100 417 42 q 535 256 535 158 q 515 355 535 315 q 451 424 496 394 q 328 481 407 453 q 141 584 196 526 q 86 736 86 642 q 117 851 86 799 q 206 933 149 903 q 335 964 263 964 m 339 1207 q 374 1193 361 1207 q 388 1160 388 1179 q 374 1126 388 1139 q 339 1113 361 1113 q 305 1126 318 1113 q 292 1160 292 1140 q 305 1193 292 1179 q 339 1207 318 1207 z "},"Ṣ":{"ha":672,"x_min":53,"x_max":600,"o":"m 335 964 q 466 938 411 964 q 574 861 521 913 l 536 821 q 442 887 488 867 q 335 907 396 907 q 202 860 253 907 q 151 738 151 813 q 196 619 151 663 q 354 535 240 575 q 542 430 483 490 q 600 257 600 369 q 565 117 600 179 q 467 20 531 56 q 322 -15 404 -15 q 174 15 239 -15 q 53 103 108 46 l 90 142 q 197 67 143 93 q 321 42 250 42 q 476 100 417 42 q 535 256 535 158 q 515 355 535 315 q 451 424 496 394 q 328 481 407 453 q 141 584 196 526 q 86 736 86 642 q 117 851 86 799 q 206 933 149 903 q 335 964 263 964 m 329 -221 q 294 -207 307 -221 q 281 -174 281 -193 q 294 -140 281 -153 q 329 -126 307 -126 q 363 -140 350 -126 q 376 -174 376 -154 q 363 -207 376 -193 q 329 -221 350 -221 z "},"ẞ":{"ha":808,"x_min":142,"x_max":740,"o":"m 401 964 q 548 942 478 964 q 692 879 618 921 l 692 832 l 446 533 q 666 445 592 514 q 740 254 740 376 q 672 57 740 129 q 488 -15 604 -15 q 344 17 399 -15 l 365 64 q 485 42 422 42 q 622 97 572 42 q 672 254 672 151 q 602 419 672 365 q 383 485 532 474 l 383 540 l 632 850 q 518 892 572 878 q 403 907 464 907 q 258 855 308 907 q 207 697 207 803 l 207 0 l 142 0 l 142 701 q 210 894 142 825 q 401 964 279 964 z "},"Ə":{"ha":810,"x_min":72,"x_max":722,"o":"m 399 964 q 638 848 554 964 q 722 475 722 732 q 635 105 722 225 q 396 -15 547 -15 q 157 103 242 -15 q 72 460 72 221 q 75 513 72 471 l 656 513 q 584 815 650 724 q 397 907 518 907 q 274 884 329 907 q 163 811 218 861 l 126 851 q 252 937 188 910 q 399 964 317 964 m 396 42 q 583 140 514 42 q 656 457 653 239 l 139 457 q 206 142 139 242 q 396 42 274 42 z "},"T":{"ha":611,"x_min":18,"x_max":599,"o":"m 599 950 l 592 892 l 338 892 l 338 0 l 274 0 l 274 892 l 18 892 l 18 950 l 599 950 z "},"Ŧ":{"ha":611,"x_min":18,"x_max":599,"o":"m 592 890 l 338 890 l 338 532 l 493 532 l 493 479 l 338 479 l 338 -1 l 274 -1 l 274 479 l 119 479 l 119 532 l 274 532 l 274 890 l 18 890 l 18 949 l 599 949 l 592 890 z "},"Ť":{"ha":611,"x_min":18,"x_max":599,"o":"m 599 950 l 592 892 l 338 892 l 338 0 l 274 0 l 274 892 l 18 892 l 18 950 l 599 950 m 457 1221 l 483 1190 l 324 1051 l 286 1051 l 126 1190 l 154 1221 l 306 1110 l 457 1221 z "},"Ţ":{"ha":611,"x_min":18,"x_max":599,"o":"m 338 892 l 338 22 l 339 22 l 339 -93 q 426 -124 397 -99 q 454 -194 454 -150 q 418 -278 454 -247 q 328 -308 382 -308 q 232 -281 272 -308 l 254 -239 q 326 -260 288 -260 q 377 -243 357 -260 q 397 -194 397 -226 q 371 -147 397 -162 q 286 -132 344 -132 l 297 0 l 274 0 l 274 892 l 18 892 l 18 950 l 599 950 l 592 892 l 338 892 z "},"Ṱ":{"ha":611,"x_min":18,"x_max":599,"o":"m 599 950 l 592 892 l 338 892 l 338 0 l 274 0 l 274 892 l 18 892 l 18 950 l 599 950 m 156 -274 l 128 -243 l 288 -97 l 325 -97 l 485 -243 l 456 -274 l 306 -156 l 156 -274 z "},"Ț":{"ha":611,"x_min":18,"x_max":599,"o":"m 599 950 l 592 892 l 338 892 l 338 0 l 274 0 l 274 892 l 18 892 l 18 950 l 599 950 m 303 -122 q 340 -137 326 -122 q 354 -174 354 -151 q 347 -209 354 -189 q 328 -260 340 -229 l 278 -379 l 239 -379 l 281 -221 q 251 -174 251 -206 q 265 -137 251 -151 q 303 -122 279 -122 z "},"Ⱦ":{"ha":611,"x_min":18,"x_max":599,"o":"m 592 890 l 451 890 l 338 494 l 338 0 l 274 0 l 274 271 l 168 -97 l 131 -86 l 274 411 l 274 890 l 18 890 l 18 950 l 429 950 l 453 1033 l 489 1022 l 468 950 l 599 950 l 592 890 m 338 633 l 411 890 l 338 890 l 338 633 z "},"Ṫ":{"ha":611,"x_min":18,"x_max":599,"o":"m 599 950 l 592 892 l 338 892 l 338 0 l 274 0 l 274 892 l 18 892 l 18 950 l 599 950 m 306 1207 q 341 1193 328 1207 q 354 1160 354 1179 q 341 1126 354 1139 q 306 1113 328 1113 q 272 1126 285 1113 q 258 1160 258 1140 q 272 1193 258 1179 q 306 1207 285 1207 z "},"Ṭ":{"ha":611,"x_min":18,"x_max":599,"o":"m 599 950 l 592 892 l 338 892 l 338 0 l 274 0 l 274 892 l 18 892 l 18 950 l 599 950 m 306 -221 q 270 -207 283 -221 q 257 -174 257 -193 q 270 -140 257 -153 q 306 -126 283 -126 q 340 -140 326 -126 q 353 -174 353 -154 q 340 -207 353 -193 q 306 -221 326 -221 z "},"Ƭ":{"ha":644,"x_min":21,"x_max":632,"o":"m 624 890 l 371 890 l 371 0 l 306 0 l 306 890 l 178 890 q 82 800 82 890 q 90 746 82 769 q 113 696 97 722 l 65 669 q 32 732 43 703 q 21 801 21 761 q 64 910 21 869 q 189 950 107 950 l 632 950 l 624 890 z "},"Ṯ":{"ha":611,"x_min":18,"x_max":599,"o":"m 599 950 l 592 892 l 338 892 l 338 0 l 274 0 l 274 892 l 18 892 l 18 950 l 599 950 m 451 -211 l 161 -211 l 161 -160 l 451 -160 l 451 -211 z "},"Ƽ":{"ha":617,"x_min":46,"x_max":553,"o":"m 515 896 l 163 896 l 163 549 q 233 583 197 571 q 315 596 269 596 q 489 519 425 596 q 553 304 553 443 q 520 136 553 208 q 426 24 488 64 q 285 -15 365 -15 q 153 13 210 -15 q 46 96 96 40 l 88 132 q 176 63 129 85 q 285 40 222 40 q 433 110 379 40 q 488 306 488 181 q 438 485 488 426 q 303 543 389 543 q 224 532 258 543 q 150 496 190 521 l 103 496 l 103 950 l 526 950 l 515 896 z "},"Ƅ":{"ha":699,"x_min":82,"x_max":650,"o":"m 339 581 q 569 510 489 581 q 650 299 650 440 q 567 73 650 146 q 338 0 485 0 l 142 0 l 142 776 l 82 821 q 150 950 129 872 l 206 950 l 206 581 l 339 581 m 347 56 q 522 114 461 56 q 582 300 582 172 q 521 471 582 417 q 342 525 460 525 l 206 525 l 206 56 l 347 56 z "},"Ƨ":{"ha":661,"x_min":72,"x_max":608,"o":"m 351 964 q 523 903 460 964 q 586 744 586 842 q 562 631 586 678 q 485 551 538 585 q 344 483 433 517 q 221 424 265 454 q 158 351 176 393 q 139 247 139 310 q 194 97 139 151 q 339 42 250 42 q 465 67 411 42 q 571 143 519 93 l 608 103 q 487 15 553 46 q 338 -15 421 -15 q 201 18 261 -15 q 106 111 140 51 q 72 249 72 171 q 131 424 72 361 q 318 533 190 488 q 440 590 397 563 q 501 653 482 617 q 519 744 519 689 q 474 863 519 819 q 350 907 429 907 q 237 887 286 907 q 135 821 188 867 l 99 861 q 215 938 157 913 q 351 964 272 964 z "},"Ʈ":{"ha":611,"x_min":18,"x_max":599,"o":"m 338 892 l 338 1 l 339 1 l 339 -119 q 362 -201 339 -175 q 424 -226 385 -226 q 474 -218 453 -226 q 517 -194 494 -210 l 546 -236 q 421 -281 493 -281 q 314 -239 354 -281 q 274 -118 274 -197 l 274 892 l 18 892 l 18 950 l 599 950 l 592 892 l 338 892 z "},"U":{"ha":808,"x_min":128,"x_max":681,"o":"m 681 267 q 610 63 681 140 q 404 -15 539 -15 q 198 63 268 -15 q 128 267 128 140 l 128 950 l 193 950 l 193 272 q 245 103 193 164 q 404 43 297 43 q 564 104 513 43 q 615 272 615 165 l 615 950 l 681 950 l 681 267 z "},"Ú":{"ha":808,"x_min":128,"x_max":681,"o":"m 681 267 q 610 63 681 140 q 404 -15 539 -15 q 198 63 268 -15 q 128 267 128 140 l 128 950 l 193 950 l 193 272 q 245 103 193 164 q 404 43 297 43 q 564 104 513 43 q 615 272 615 165 l 615 950 l 681 950 l 681 267 m 504 1218 l 533 1160 l 292 1054 l 274 1093 l 504 1218 z "},"Ʉ":{"ha":838,"x_min":63,"x_max":775,"o":"m 775 717 l 696 717 l 696 267 q 625 63 696 140 q 419 -15 554 -15 q 213 63 283 -15 q 143 267 143 140 l 143 717 l 63 717 l 63 765 l 143 765 l 143 950 l 208 950 l 208 765 l 631 765 l 631 950 l 696 950 l 696 765 l 775 765 l 775 717 m 631 717 l 208 717 l 208 272 q 260 103 208 164 q 419 43 313 43 q 579 104 528 43 q 631 272 631 165 l 631 717 z "},"Ŭ":{"ha":808,"x_min":128,"x_max":681,"o":"m 681 267 q 610 63 681 140 q 404 -15 539 -15 q 198 63 268 -15 q 128 267 128 140 l 128 950 l 193 950 l 193 272 q 245 103 193 164 q 404 43 297 43 q 564 104 513 43 q 615 272 615 165 l 615 950 l 681 950 l 681 267 m 404 1065 q 299 1101 342 1065 q 249 1193 257 1136 l 290 1203 q 332 1142 303 1164 q 404 1119 361 1119 q 477 1142 447 1119 q 518 1203 507 1164 l 560 1193 q 510 1101 553 1136 q 404 1065 467 1065 z "},"Ǔ":{"ha":808,"x_min":128,"x_max":681,"o":"m 681 267 q 610 63 681 140 q 404 -15 539 -15 q 198 63 268 -15 q 128 267 128 140 l 128 950 l 193 950 l 193 272 q 245 103 193 164 q 404 43 297 43 q 564 104 513 43 q 615 272 615 165 l 615 950 l 681 950 l 681 267 m 556 1221 l 582 1190 l 422 1051 l 385 1051 l 225 1190 l 253 1221 l 404 1110 l 556 1221 z "},"Û":{"ha":808,"x_min":128,"x_max":681,"o":"m 681 267 q 610 63 681 140 q 404 -15 539 -15 q 198 63 268 -15 q 128 267 128 140 l 128 950 l 193 950 l 193 272 q 245 103 193 164 q 404 43 297 43 q 564 104 513 43 q 615 272 615 165 l 615 950 l 681 950 l 681 267 m 254 1061 l 225 1093 l 385 1231 l 422 1231 l 582 1093 l 554 1061 l 404 1172 l 254 1061 z "},"Ȕ":{"ha":808,"x_min":128,"x_max":681,"o":"m 681 267 q 610 63 681 140 q 404 -15 539 -15 q 198 63 268 -15 q 128 267 128 140 l 128 950 l 193 950 l 193 272 q 245 103 193 164 q 404 43 297 43 q 564 104 513 43 q 615 272 615 165 l 615 950 l 681 950 l 681 267 m 256 1290 l 351 1090 l 311 1071 l 200 1261 l 256 1290 m 410 1289 l 497 1096 l 457 1078 l 354 1260 l 410 1289 z "},"Ü":{"ha":808,"x_min":128,"x_max":681,"o":"m 681 267 q 610 63 681 140 q 404 -15 539 -15 q 198 63 268 -15 q 128 267 128 140 l 128 950 l 193 950 l 193 272 q 245 103 193 164 q 404 43 297 43 q 564 104 513 43 q 615 272 615 165 l 615 950 l 681 950 l 681 267 m 293 1192 q 326 1178 314 1192 q 339 1146 339 1165 q 326 1113 339 1126 q 293 1100 314 1100 q 261 1113 274 1100 q 249 1146 249 1126 q 261 1178 249 1165 q 293 1192 274 1192 m 524 1192 q 556 1178 543 1192 q 568 1146 568 1165 q 556 1113 568 1126 q 524 1100 543 1100 q 491 1113 504 1100 q 478 1146 478 1126 q 491 1178 478 1165 q 524 1192 504 1192 z "},"Ǘ":{"ha":808,"x_min":128,"x_max":681,"o":"m 681 267 q 610 63 681 140 q 404 -15 539 -15 q 198 63 268 -15 q 128 267 128 140 l 128 950 l 193 950 l 193 272 q 245 103 193 164 q 404 43 297 43 q 564 104 513 43 q 615 272 615 165 l 615 950 l 681 950 l 681 267 m 506 1325 l 551 1286 l 403 1119 l 372 1146 l 506 1325 m 289 1124 q 322 1110 310 1124 q 335 1078 335 1097 q 322 1045 335 1058 q 289 1032 310 1032 q 257 1045 269 1032 q 244 1078 244 1058 q 257 1110 244 1097 q 289 1124 269 1124 m 519 1124 q 551 1110 539 1124 q 564 1078 564 1097 q 551 1045 564 1058 q 519 1032 539 1032 q 487 1045 500 1032 q 474 1078 474 1058 q 487 1110 474 1097 q 519 1124 500 1124 z "},"Ǚ":{"ha":808,"x_min":128,"x_max":681,"o":"m 681 267 q 610 63 681 140 q 404 -15 539 -15 q 198 63 268 -15 q 128 267 128 140 l 128 950 l 193 950 l 193 272 q 245 103 193 164 q 404 43 297 43 q 564 104 513 43 q 615 272 615 165 l 615 950 l 681 950 l 681 267 m 553 1303 l 579 1272 l 419 1133 l 382 1133 l 222 1272 l 250 1303 l 401 1192 l 553 1303 m 289 1124 q 322 1110 310 1124 q 335 1078 335 1097 q 322 1045 335 1058 q 289 1032 310 1032 q 257 1045 269 1032 q 244 1078 244 1058 q 257 1110 244 1097 q 289 1124 269 1124 m 519 1124 q 551 1110 539 1124 q 564 1078 564 1097 q 551 1045 564 1058 q 519 1032 539 1032 q 486 1045 499 1032 q 474 1078 474 1058 q 486 1110 474 1097 q 519 1124 499 1124 z "},"Ǜ":{"ha":808,"x_min":128,"x_max":681,"o":"m 681 267 q 610 63 681 140 q 404 -15 539 -15 q 198 63 268 -15 q 128 267 128 140 l 128 950 l 193 950 l 193 272 q 245 103 193 164 q 404 43 297 43 q 564 104 513 43 q 615 272 615 165 l 615 950 l 681 950 l 681 267 m 314 1325 l 447 1146 l 415 1119 l 268 1286 l 314 1325 m 288 1124 q 321 1110 308 1124 q 333 1078 333 1097 q 321 1045 333 1058 q 288 1032 308 1032 q 256 1045 268 1032 q 243 1078 243 1058 q 256 1110 243 1097 q 288 1124 268 1124 m 518 1124 q 550 1110 538 1124 q 563 1078 563 1097 q 550 1045 563 1058 q 518 1032 538 1032 q 485 1045 499 1032 q 472 1078 472 1058 q 485 1110 472 1097 q 518 1124 499 1124 z "},"Ǖ":{"ha":808,"x_min":128,"x_max":681,"o":"m 681 267 q 610 63 681 140 q 404 -15 539 -15 q 198 63 268 -15 q 128 267 128 140 l 128 950 l 193 950 l 193 272 q 245 103 193 164 q 404 43 297 43 q 564 104 513 43 q 615 272 615 165 l 615 950 l 681 950 l 681 267 m 289 1124 q 322 1110 310 1124 q 335 1078 335 1097 q 322 1045 335 1058 q 289 1032 310 1032 q 257 1045 269 1032 q 244 1078 244 1058 q 257 1110 244 1097 q 289 1124 269 1124 m 519 1124 q 551 1110 539 1124 q 564 1078 564 1097 q 551 1045 564 1058 q 519 1032 539 1032 q 487 1045 500 1032 q 474 1078 474 1058 q 487 1110 474 1097 q 519 1124 500 1124 m 551 1208 l 261 1208 l 261 1260 l 551 1260 l 551 1208 z "},"Ụ":{"ha":808,"x_min":128,"x_max":681,"o":"m 681 267 q 610 63 681 140 q 404 -15 539 -15 q 198 63 268 -15 q 128 267 128 140 l 128 950 l 193 950 l 193 272 q 245 103 193 164 q 404 43 297 43 q 564 104 513 43 q 615 272 615 165 l 615 950 l 681 950 l 681 267 m 404 -221 q 369 -207 382 -221 q 356 -174 356 -193 q 369 -140 356 -153 q 404 -126 382 -126 q 438 -140 425 -126 q 451 -174 451 -154 q 438 -207 451 -193 q 404 -221 425 -221 z "},"Ù":{"ha":808,"x_min":128,"x_max":681,"o":"m 681 267 q 610 63 681 140 q 404 -15 539 -15 q 198 63 268 -15 q 128 267 128 140 l 128 950 l 193 950 l 193 272 q 245 103 193 164 q 404 43 297 43 q 564 104 513 43 q 615 272 615 165 l 615 950 l 681 950 l 681 267 m 301 1218 l 531 1092 l 511 1054 l 271 1160 l 301 1218 z "},"Ủ":{"ha":808,"x_min":128,"x_max":681,"o":"m 681 267 q 610 63 681 140 q 404 -15 539 -15 q 198 63 268 -15 q 128 267 128 140 l 128 950 l 193 950 l 193 272 q 245 103 193 164 q 404 43 297 43 q 564 104 513 43 q 615 272 615 165 l 615 950 l 681 950 l 681 267 m 378 1176 q 442 1194 419 1179 q 464 1243 464 1208 q 449 1287 464 1272 q 404 1301 433 1301 q 333 1283 365 1301 l 314 1324 q 411 1351 360 1351 q 492 1323 463 1351 q 522 1247 522 1294 q 431 1144 522 1157 l 431 1081 l 378 1081 l 378 1176 z "},"Ư":{"ha":815,"x_min":128,"x_max":801,"o":"m 801 954 q 681 829 801 840 l 681 267 q 610 63 681 140 q 404 -15 539 -15 q 198 63 268 -15 q 128 267 128 140 l 128 950 l 193 950 l 193 272 q 245 103 193 164 q 404 43 297 43 q 564 104 513 43 q 615 272 615 165 l 615 950 l 681 950 l 681 871 q 732 897 717 878 q 747 953 747 917 q 731 1053 747 1003 l 778 1068 q 801 954 801 1010 z "},"Ứ":{"ha":815,"x_min":128,"x_max":801,"o":"m 533 1160 l 292 1054 l 274 1093 l 504 1218 l 533 1160 m 801 954 q 681 829 801 840 l 681 267 q 610 63 681 140 q 404 -15 539 -15 q 198 63 268 -15 q 128 267 128 140 l 128 950 l 193 950 l 193 272 q 245 103 193 164 q 404 43 297 43 q 564 104 513 43 q 615 272 615 165 l 615 950 l 681 950 l 681 871 q 732 897 717 878 q 747 953 747 917 q 731 1053 747 1003 l 778 1068 q 801 954 801 1010 z "},"Ự":{"ha":815,"x_min":128,"x_max":801,"o":"m 801 954 q 681 829 801 840 l 681 267 q 610 63 681 140 q 404 -15 539 -15 q 198 63 268 -15 q 128 267 128 140 l 128 950 l 193 950 l 193 272 q 245 103 193 164 q 404 43 297 43 q 564 104 513 43 q 615 272 615 165 l 615 950 l 681 950 l 681 871 q 732 897 717 878 q 747 953 747 917 q 731 1053 747 1003 l 778 1068 q 801 954 801 1010 m 404 -126 q 438 -140 425 -126 q 451 -174 451 -154 q 438 -207 451 -193 q 404 -221 425 -221 q 369 -207 382 -221 q 356 -174 356 -193 q 369 -140 356 -153 q 404 -126 382 -126 z "},"Ừ":{"ha":815,"x_min":128,"x_max":801,"o":"m 531 1092 l 511 1054 l 271 1160 l 301 1218 l 531 1092 m 801 954 q 681 829 801 840 l 681 267 q 610 63 681 140 q 404 -15 539 -15 q 198 63 268 -15 q 128 267 128 140 l 128 950 l 193 950 l 193 272 q 245 103 193 164 q 404 43 297 43 q 564 104 513 43 q 615 272 615 165 l 615 950 l 681 950 l 681 871 q 732 897 717 878 q 747 953 747 917 q 731 1053 747 1003 l 778 1068 q 801 954 801 1010 z "},"Ử":{"ha":815,"x_min":128,"x_max":801,"o":"m 404 1301 q 333 1283 365 1301 l 314 1324 q 411 1351 360 1351 q 492 1323 463 1351 q 522 1247 522 1294 q 431 1144 522 1157 l 431 1081 l 378 1081 l 378 1176 q 442 1194 419 1179 q 464 1243 464 1208 q 449 1287 464 1272 q 404 1301 433 1301 m 801 954 q 681 829 801 840 l 681 267 q 610 63 681 140 q 404 -15 539 -15 q 198 63 268 -15 q 128 267 128 140 l 128 950 l 193 950 l 193 272 q 245 103 193 164 q 404 43 297 43 q 564 104 513 43 q 615 272 615 165 l 615 950 l 681 950 l 681 871 q 732 897 717 878 q 747 953 747 917 q 731 1053 747 1003 l 778 1068 q 801 954 801 1010 z "},"Ữ":{"ha":815,"x_min":128,"x_max":801,"o":"m 331 1168 q 293 1156 310 1168 q 258 1115 276 1143 l 221 1136 q 329 1218 267 1218 q 367 1210 349 1218 q 408 1186 385 1201 q 447 1164 432 1171 q 476 1157 461 1157 q 512 1171 496 1157 q 547 1217 528 1185 l 586 1197 q 478 1107 544 1107 q 435 1116 454 1107 q 390 1142 415 1125 q 357 1162 371 1156 q 331 1168 343 1168 m 801 954 q 681 829 801 840 l 681 267 q 610 63 681 140 q 404 -15 539 -15 q 198 63 268 -15 q 128 267 128 140 l 128 950 l 193 950 l 193 272 q 245 103 193 164 q 404 43 297 43 q 564 104 513 43 q 615 272 615 165 l 615 950 l 681 950 l 681 871 q 732 897 717 878 q 747 953 747 917 q 731 1053 747 1003 l 778 1068 q 801 954 801 1010 z "},"Ű":{"ha":808,"x_min":128,"x_max":681,"o":"m 681 267 q 610 63 681 140 q 404 -15 539 -15 q 198 63 268 -15 q 128 267 128 140 l 128 950 l 193 950 l 193 272 q 245 103 193 164 q 404 43 297 43 q 564 104 513 43 q 615 272 615 165 l 615 950 l 681 950 l 681 267 m 539 1290 l 596 1261 l 483 1071 l 443 1090 l 539 1290 m 386 1289 l 442 1260 l 339 1078 l 299 1096 l 386 1289 z "},"Ȗ":{"ha":808,"x_min":128,"x_max":681,"o":"m 681 267 q 610 63 681 140 q 404 -15 539 -15 q 198 63 268 -15 q 128 267 128 140 l 128 950 l 193 950 l 193 272 q 245 103 193 164 q 404 43 297 43 q 564 104 513 43 q 615 272 615 165 l 615 950 l 681 950 l 681 267 m 404 1246 q 510 1208 468 1246 q 560 1104 553 1169 l 518 1094 q 404 1193 493 1193 q 292 1094 314 1193 l 249 1104 q 299 1208 257 1171 q 404 1246 342 1246 z "},"Ū":{"ha":808,"x_min":128,"x_max":681,"o":"m 681 267 q 610 63 681 140 q 404 -15 539 -15 q 198 63 268 -15 q 128 267 128 140 l 128 950 l 193 950 l 193 272 q 245 103 193 164 q 404 43 297 43 q 564 104 513 43 q 615 272 615 165 l 615 950 l 681 950 l 681 267 m 550 1119 l 260 1119 l 260 1171 l 550 1171 l 550 1119 z "},"Ų":{"ha":808,"x_min":128,"x_max":681,"o":"m 681 950 l 681 267 q 634 93 681 165 q 497 -4 588 21 q 385 -79 418 -43 q 351 -165 351 -115 q 373 -220 351 -200 q 435 -240 394 -240 q 504 -231 465 -240 l 499 -286 q 426 -294 461 -294 q 328 -260 363 -294 q 293 -172 293 -226 q 410 -15 293 -76 l 404 -15 q 198 63 268 -15 q 128 267 128 140 l 128 950 l 193 950 l 193 272 q 245 103 193 164 q 404 43 297 43 q 564 104 513 43 q 615 272 615 165 l 615 950 l 681 950 z "},"Ʊ":{"ha":863,"x_min":86,"x_max":778,"o":"m 432 -15 q 249 38 326 -15 q 128 192 171 90 q 86 438 86 293 q 134 715 86 610 q 260 893 182 821 l 114 893 l 114 950 l 339 950 l 339 894 q 203 720 253 829 q 153 438 153 611 q 227 142 153 242 q 432 42 301 42 q 635 142 561 42 q 710 438 710 242 q 660 719 710 611 q 525 894 611 828 l 525 950 l 751 950 l 751 893 l 604 893 q 731 719 685 825 q 778 438 778 613 q 735 192 778 294 q 613 38 692 90 q 432 -15 535 -15 z "},"Ů":{"ha":808,"x_min":128,"x_max":681,"o":"m 681 267 q 610 63 681 140 q 404 -15 539 -15 q 198 63 268 -15 q 128 267 128 140 l 128 950 l 193 950 l 193 272 q 245 103 193 164 q 404 43 297 43 q 564 104 513 43 q 615 272 615 165 l 615 950 l 681 950 l 681 267 m 404 1307 q 491 1274 458 1307 q 524 1183 524 1240 q 491 1092 524 1125 q 404 1058 458 1058 q 319 1092 351 1058 q 286 1183 286 1125 q 319 1274 286 1240 q 404 1307 351 1307 m 404 1265 q 335 1183 335 1265 q 404 1100 335 1100 q 474 1183 474 1100 q 404 1265 474 1265 z "},"Ũ":{"ha":808,"x_min":128,"x_max":681,"o":"m 681 267 q 610 63 681 140 q 404 -15 539 -15 q 198 63 268 -15 q 128 267 128 140 l 128 950 l 193 950 l 193 272 q 245 103 193 164 q 404 43 297 43 q 564 104 513 43 q 615 272 615 165 l 615 950 l 681 950 l 681 267 m 478 1107 q 435 1116 454 1107 q 390 1142 415 1125 q 357 1162 371 1156 q 331 1168 343 1168 q 293 1156 310 1168 q 258 1115 276 1143 l 221 1136 q 329 1218 267 1218 q 367 1210 349 1218 q 408 1186 385 1201 q 447 1164 432 1171 q 476 1157 461 1157 q 512 1171 496 1157 q 547 1217 528 1185 l 586 1197 q 478 1107 544 1107 z "},"Ṹ":{"ha":808,"x_min":128,"x_max":681,"o":"m 681 267 q 610 63 681 140 q 404 -15 539 -15 q 198 63 268 -15 q 128 267 128 140 l 128 950 l 193 950 l 193 272 q 245 103 193 164 q 404 43 297 43 q 564 104 513 43 q 615 272 615 165 l 615 950 l 681 950 l 681 267 m 479 1053 q 436 1062 456 1053 q 392 1088 417 1071 q 358 1108 372 1101 q 332 1114 344 1114 q 294 1101 311 1114 q 260 1061 278 1089 l 222 1082 q 331 1164 268 1164 q 368 1156 350 1164 q 410 1132 386 1147 q 448 1110 433 1117 q 478 1103 463 1103 q 513 1117 497 1103 q 549 1163 529 1131 l 588 1143 q 479 1053 546 1053 m 506 1374 l 535 1315 l 293 1210 l 275 1249 l 506 1374 z "},"V":{"ha":689,"x_min":29,"x_max":661,"o":"m 661 950 l 382 0 l 307 0 l 29 950 l 96 950 l 346 65 l 596 950 l 661 950 z "},"Ʋ":{"ha":808,"x_min":128,"x_max":681,"o":"m 564 964 q 650 931 619 964 q 681 832 681 897 l 681 381 q 642 167 681 256 q 533 31 603 78 q 374 -15 464 -15 q 194 54 261 -15 q 128 238 128 124 l 128 950 l 193 950 l 193 243 q 241 96 193 149 q 374 43 289 43 q 549 131 483 43 q 615 386 615 219 l 615 831 q 601 890 615 871 q 557 910 588 910 q 504 897 528 910 l 485 943 q 564 964 522 964 z "},"Ʌ":{"ha":714,"x_min":29,"x_max":685,"o":"m 397 950 l 685 0 l 618 0 l 356 897 l 93 0 l 29 0 l 317 950 l 397 950 z "},"W":{"ha":1014,"x_min":43,"x_max":971,"o":"m 971 950 l 779 0 l 699 0 l 507 879 l 314 0 l 233 0 l 43 950 l 107 950 l 276 63 l 469 950 l 544 950 l 739 63 l 908 950 l 971 950 z "},"Ẃ":{"ha":1014,"x_min":43,"x_max":971,"o":"m 971 950 l 779 0 l 699 0 l 507 879 l 314 0 l 233 0 l 43 950 l 107 950 l 276 63 l 469 950 l 544 950 l 739 63 l 908 950 l 971 950 m 607 1218 l 636 1160 l 394 1054 l 376 1093 l 607 1218 z "},"Ŵ":{"ha":1014,"x_min":43,"x_max":971,"o":"m 971 950 l 779 0 l 699 0 l 507 879 l 314 0 l 233 0 l 43 950 l 107 950 l 276 63 l 469 950 l 544 950 l 739 63 l 908 950 l 971 950 m 357 1061 l 328 1093 l 488 1231 l 525 1231 l 685 1093 l 657 1061 l 507 1172 l 357 1061 z "},"Ẅ":{"ha":1014,"x_min":43,"x_max":971,"o":"m 971 950 l 779 0 l 699 0 l 507 879 l 314 0 l 233 0 l 43 950 l 107 950 l 276 63 l 469 950 l 544 950 l 739 63 l 908 950 l 971 950 m 396 1192 q 429 1178 417 1192 q 442 1146 442 1165 q 429 1113 442 1126 q 396 1100 417 1100 q 364 1113 376 1100 q 351 1146 351 1126 q 364 1178 351 1165 q 396 1192 376 1192 m 626 1192 q 658 1178 646 1192 q 671 1146 671 1165 q 658 1113 671 1126 q 626 1100 646 1100 q 594 1113 607 1100 q 581 1146 581 1126 q 594 1178 581 1165 q 626 1192 607 1192 z "},"Ẁ":{"ha":1014,"x_min":43,"x_max":971,"o":"m 971 950 l 779 0 l 699 0 l 507 879 l 314 0 l 233 0 l 43 950 l 107 950 l 276 63 l 469 950 l 544 950 l 739 63 l 908 950 l 971 950 m 404 1218 l 633 1092 l 614 1054 l 374 1160 l 404 1218 z "},"Ⱳ":{"ha":1058,"x_min":43,"x_max":1132,"o":"m 233 0 l 314 0 l 507 881 l 699 0 l 779 0 l 938 822 q 968 893 947 874 q 1024 913 989 913 q 1065 903 1047 913 q 1103 876 1082 894 l 1132 914 q 1019 964 1079 964 q 931 933 967 964 q 883 836 896 901 l 739 61 l 544 950 l 469 950 l 276 61 l 107 950 l 43 950 l 233 0 z "},"Ƿ":{"ha":706,"x_min":142,"x_max":650,"o":"m 421 964 q 586 897 522 964 q 650 715 650 831 q 567 492 650 574 q 333 350 485 411 l 207 301 l 207 0 l 142 0 l 142 950 l 207 950 l 207 872 q 305 940 253 915 q 421 964 357 964 m 333 408 q 517 527 453 458 q 582 715 582 596 q 537 858 582 808 q 414 907 492 907 q 301 883 351 907 q 207 815 251 858 l 207 357 l 333 408 z "},"X":{"ha":633,"x_min":14,"x_max":619,"o":"m 351 515 l 619 0 l 549 0 l 313 471 l 82 0 l 14 0 l 275 511 l 40 950 l 111 950 l 314 553 l 515 950 l 583 950 l 351 515 z "},"Y":{"ha":644,"x_min":19,"x_max":625,"o":"m 625 950 l 356 374 l 356 0 l 292 0 l 292 372 l 19 950 l 89 950 l 325 432 l 557 950 l 625 950 z "},"Ý":{"ha":644,"x_min":19,"x_max":625,"o":"m 625 950 l 356 374 l 356 0 l 292 0 l 292 372 l 19 950 l 89 950 l 325 432 l 557 950 l 625 950 m 422 1218 l 451 1160 l 210 1054 l 192 1093 l 422 1218 z "},"Ŷ":{"ha":644,"x_min":19,"x_max":625,"o":"m 625 950 l 356 374 l 356 0 l 292 0 l 292 372 l 19 950 l 89 950 l 325 432 l 557 950 l 625 950 m 172 1061 l 143 1093 l 303 1231 l 340 1231 l 500 1093 l 472 1061 l 322 1172 l 172 1061 z "},"Ÿ":{"ha":644,"x_min":19,"x_max":625,"o":"m 625 950 l 356 374 l 356 0 l 292 0 l 292 372 l 19 950 l 89 950 l 325 432 l 557 950 l 625 950 m 211 1192 q 244 1178 232 1192 q 257 1146 257 1165 q 244 1113 257 1126 q 211 1100 232 1100 q 179 1113 192 1100 q 167 1146 167 1126 q 179 1178 167 1165 q 211 1192 192 1192 m 442 1192 q 474 1178 461 1192 q 486 1146 486 1165 q 474 1113 486 1126 q 442 1100 461 1100 q 409 1113 422 1100 q 396 1146 396 1126 q 409 1178 396 1165 q 442 1192 422 1192 z "},"Ỵ":{"ha":644,"x_min":19,"x_max":625,"o":"m 625 950 l 356 374 l 356 0 l 292 0 l 292 372 l 19 950 l 89 950 l 325 432 l 557 950 l 625 950 m 325 -221 q 290 -207 303 -221 q 276 -174 276 -193 q 290 -140 276 -153 q 325 -126 303 -126 q 359 -140 346 -126 q 372 -174 372 -154 q 359 -207 372 -193 q 325 -221 346 -221 z "},"Ỳ":{"ha":644,"x_min":19,"x_max":625,"o":"m 625 950 l 356 374 l 356 0 l 292 0 l 292 372 l 19 950 l 89 950 l 325 432 l 557 950 l 625 950 m 219 1218 l 449 1092 l 429 1054 l 189 1160 l 219 1218 z "},"Ƴ":{"ha":672,"x_min":19,"x_max":746,"o":"m 292 372 l 19 950 l 89 950 l 325 431 l 496 850 q 552 937 521 910 q 633 964 583 964 q 746 914 693 964 l 717 876 q 678 904 694 896 q 636 913 661 913 q 588 894 606 913 q 549 828 569 876 l 356 374 l 356 0 l 292 0 l 292 372 z "},"Ỷ":{"ha":644,"x_min":19,"x_max":625,"o":"m 625 950 l 356 374 l 356 0 l 292 0 l 292 372 l 19 950 l 89 950 l 325 432 l 557 950 l 625 950 m 296 1176 q 360 1194 338 1179 q 382 1243 382 1208 q 367 1287 382 1272 q 322 1301 351 1301 q 251 1283 283 1301 l 232 1324 q 329 1351 278 1351 q 410 1323 381 1351 q 440 1247 440 1294 q 349 1144 440 1157 l 349 1081 l 296 1081 l 296 1176 z "},"Ȳ":{"ha":644,"x_min":19,"x_max":625,"o":"m 625 950 l 356 374 l 356 0 l 292 0 l 292 372 l 19 950 l 89 950 l 325 432 l 557 950 l 625 950 m 468 1119 l 178 1119 l 178 1171 l 468 1171 l 468 1119 z "},"Ʀ":{"ha":732,"x_min":142,"x_max":689,"o":"m 615 -178 l 388 260 l 364 258 l 207 258 l 207 0 l 142 0 l 142 950 l 207 950 l 207 772 l 331 772 q 644 518 644 772 q 594 356 644 418 q 453 271 544 294 l 689 -178 l 615 -178 m 340 313 q 517 363 458 313 q 576 518 576 413 q 519 669 576 619 q 328 717 461 718 l 207 717 l 207 313 l 340 313 z "},"Ɏ":{"ha":646,"x_min":19,"x_max":626,"o":"m 626 821 l 626 772 l 542 772 l 356 374 l 356 0 l 292 0 l 292 372 l 103 772 l 21 772 l 21 821 l 81 821 l 19 950 l 89 950 l 147 821 l 499 821 l 557 950 l 625 950 l 565 821 l 626 821 m 325 431 l 478 772 l 169 772 l 325 431 z "},"Ỹ":{"ha":644,"x_min":19,"x_max":625,"o":"m 625 950 l 356 374 l 356 0 l 292 0 l 292 372 l 19 950 l 89 950 l 325 432 l 557 950 l 625 950 m 396 1107 q 353 1116 372 1107 q 308 1142 333 1125 q 275 1162 289 1156 q 249 1168 261 1168 q 211 1156 228 1168 q 176 1115 194 1143 l 139 1136 q 247 1218 185 1218 q 285 1210 267 1218 q 326 1186 303 1201 q 365 1164 350 1171 q 394 1157 379 1157 q 430 1171 414 1157 q 465 1217 446 1185 l 504 1197 q 396 1107 463 1107 z "},"Z":{"ha":643,"x_min":46,"x_max":583,"o":"m 583 950 l 583 896 l 117 58 l 574 58 l 565 0 l 46 0 l 46 56 l 514 892 l 93 892 l 93 950 l 583 950 z "},"Ź":{"ha":643,"x_min":46,"x_max":583,"o":"m 583 950 l 583 896 l 117 58 l 574 58 l 565 0 l 46 0 l 46 56 l 514 892 l 93 892 l 93 950 l 583 950 m 425 1218 l 454 1160 l 213 1054 l 194 1093 l 425 1218 z "},"Ž":{"ha":643,"x_min":46,"x_max":583,"o":"m 583 950 l 583 896 l 117 58 l 574 58 l 565 0 l 46 0 l 46 56 l 514 892 l 93 892 l 93 950 l 583 950 m 476 1221 l 503 1190 l 343 1051 l 306 1051 l 146 1190 l 174 1221 l 325 1110 l 476 1221 z "},"Ż":{"ha":643,"x_min":46,"x_max":583,"o":"m 583 950 l 583 896 l 117 58 l 574 58 l 565 0 l 46 0 l 46 56 l 514 892 l 93 892 l 93 950 l 583 950 m 325 1207 q 360 1193 347 1207 q 374 1160 374 1179 q 360 1126 374 1139 q 325 1113 347 1113 q 291 1126 304 1113 q 278 1160 278 1140 q 291 1193 278 1179 q 325 1207 304 1207 z "},"Ẓ":{"ha":643,"x_min":46,"x_max":583,"o":"m 583 950 l 583 896 l 117 58 l 574 58 l 565 0 l 46 0 l 46 56 l 514 892 l 93 892 l 93 950 l 583 950 m 324 -221 q 288 -207 301 -221 q 275 -174 275 -193 q 288 -140 275 -153 q 324 -126 301 -126 q 358 -140 344 -126 q 371 -174 371 -154 q 358 -207 371 -193 q 324 -221 344 -221 z "},"Ȥ":{"ha":643,"x_min":46,"x_max":583,"o":"m 583 896 l 117 58 l 569 58 l 569 -118 q 529 -239 569 -197 q 422 -281 489 -281 q 297 -236 350 -281 l 326 -194 q 369 -218 347 -210 q 421 -226 392 -226 q 483 -201 460 -226 q 506 -119 506 -175 l 506 0 l 46 0 l 46 56 l 514 892 l 93 892 l 93 950 l 583 950 l 583 896 z "},"Ƶ":{"ha":643,"x_min":46,"x_max":583,"o":"m 583 950 l 583 896 l 365 506 l 501 506 l 501 450 l 335 450 l 115 58 l 574 58 l 565 0 l 46 0 l 46 56 l 267 450 l 138 450 l 138 506 l 297 506 l 514 892 l 93 892 l 93 950 l 583 950 z "},"ʙ":{"ha":683,"x_min":136,"x_max":600,"o":"m 438 393 q 558 341 515 386 q 600 214 600 296 q 529 54 600 108 q 339 0 458 0 l 136 0 l 136 718 q 332 739 249 739 q 503 688 442 739 q 564 551 564 636 q 438 393 564 424 m 333 686 q 199 675 265 686 l 199 414 l 360 414 q 464 449 426 414 q 501 550 501 483 q 460 651 501 615 q 333 686 418 686 m 338 53 q 482 91 428 53 q 536 214 536 129 q 494 326 536 290 q 368 363 451 363 l 199 363 l 199 53 l 338 53 z "},"ɢ":{"ha":692,"x_min":82,"x_max":585,"o":"m 374 742 q 481 723 433 742 q 574 665 528 704 l 538 625 q 459 672 499 657 q 374 686 419 686 q 213 609 278 686 q 147 368 147 532 q 206 118 147 194 q 372 42 264 42 q 524 81 457 42 l 524 338 l 381 338 l 374 392 l 585 392 l 585 50 q 372 -12 490 -12 q 159 81 236 -12 q 82 368 82 174 q 122 574 82 490 q 228 700 161 658 q 374 742 294 742 z "},"ʛ":{"ha":692,"x_min":82,"x_max":782,"o":"m 658 1029 q 782 983 728 1029 l 754 943 q 710 967 731 958 q 660 975 689 975 q 574 864 574 975 l 574 665 l 540 631 q 459 672 499 658 q 374 686 419 686 q 213 609 278 686 q 147 368 147 532 q 206 118 147 194 q 372 42 264 42 q 524 81 457 42 l 524 338 l 381 338 l 374 392 l 585 392 l 585 50 q 372 -12 490 -12 q 159 81 236 -12 q 82 368 82 174 q 122 574 82 490 q 227 700 161 658 q 372 742 293 742 q 511 704 450 742 l 511 863 q 551 986 511 943 q 658 1029 590 1029 z "},"ʜ":{"ha":735,"x_min":136,"x_max":599,"o":"m 536 0 l 536 350 l 199 350 l 199 0 l 136 0 l 136 725 l 199 725 l 199 404 l 536 404 l 536 725 l 599 725 l 599 0 l 536 0 z "},"ɪ":{"ha":396,"x_min":36,"x_max":361,"o":"m 361 672 l 229 672 l 229 53 l 361 53 l 361 0 l 36 0 l 36 53 l 167 53 l 167 672 l 36 672 l 36 725 l 361 725 l 361 672 z "},"ʟ":{"ha":515,"x_min":136,"x_max":500,"o":"m 199 725 l 199 56 l 500 56 l 490 0 l 136 0 l 136 725 l 199 725 z "},"ɴ":{"ha":736,"x_min":136,"x_max":600,"o":"m 600 0 l 519 0 l 188 661 q 194 385 194 560 l 194 0 l 136 0 l 136 725 l 217 725 l 549 63 q 542 300 542 146 l 542 725 l 600 725 l 600 0 z "},"ɶ":{"ha":903,"x_min":82,"x_max":851,"o":"m 851 0 l 438 0 q 354 -15 396 -15 q 154 83 226 -15 q 82 361 82 181 q 155 641 82 543 q 356 739 228 739 q 442 725 401 739 l 846 725 l 839 671 l 521 671 q 594 569 567 636 q 628 406 622 501 l 797 406 l 797 353 l 629 353 q 513 53 625 139 l 851 53 l 851 0 m 147 361 q 201 120 147 200 q 354 40 256 40 q 508 123 453 40 q 564 368 564 206 q 508 605 564 525 q 356 685 451 685 q 202 605 257 685 q 147 361 147 525 z "},"ʀ":{"ha":658,"x_min":136,"x_max":586,"o":"m 517 0 l 336 310 q 304 308 326 308 l 199 308 l 199 0 l 136 0 l 136 725 l 294 725 q 490 671 425 725 q 554 515 554 617 q 514 389 554 440 q 397 318 474 338 l 586 0 l 517 0 m 307 360 q 443 399 396 360 q 490 515 490 438 q 444 633 490 594 q 293 671 397 671 l 199 671 l 199 360 l 307 360 z "},"ʁ":{"ha":658,"x_min":136,"x_max":586,"o":"m 397 407 q 514 338 474 389 q 554 211 554 288 q 490 54 554 108 q 294 0 425 0 l 136 0 l 136 725 l 199 725 l 199 417 l 306 417 q 336 415 326 417 l 517 725 l 586 725 l 397 407 m 293 53 q 444 92 397 53 q 490 211 490 131 q 444 327 490 289 q 307 365 397 365 l 199 365 l 199 53 l 293 53 z "},"ʏ":{"ha":524,"x_min":8,"x_max":515,"o":"m 515 725 l 294 290 l 294 0 l 232 0 l 232 289 l 8 725 l 74 725 l 264 338 l 450 725 l 515 725 z "},"a":{"ha":669,"x_min":74,"x_max":589,"o":"m 535 143 q 547 67 535 92 q 589 29 560 42 l 575 -15 q 508 25 531 -4 q 481 110 485 54 q 276 -15 410 -15 q 128 44 182 -15 q 74 201 74 103 q 147 373 74 313 q 349 433 219 433 l 472 433 l 472 517 q 437 644 472 603 q 321 685 401 685 q 140 643 242 685 l 122 692 q 326 739 235 739 q 535 521 535 739 l 535 143 m 283 38 q 472 176 408 38 l 472 385 l 356 385 q 140 203 140 385 q 178 81 140 124 q 283 38 217 38 z "},"á":{"ha":669,"x_min":74,"x_max":589,"o":"m 535 143 q 547 67 535 92 q 589 29 560 42 l 575 -15 q 508 25 531 -4 q 481 110 485 54 q 276 -15 410 -15 q 128 44 182 -15 q 74 201 74 103 q 147 373 74 313 q 349 433 219 433 l 472 433 l 472 517 q 437 644 472 603 q 321 685 401 685 q 140 643 242 685 l 122 692 q 326 739 235 739 q 535 521 535 739 l 535 143 m 283 38 q 472 176 408 38 l 472 385 l 356 385 q 140 203 140 385 q 178 81 140 124 q 283 38 217 38 m 415 1074 l 444 1017 l 206 900 l 185 936 l 415 1074 z "},"ă":{"ha":669,"x_min":74,"x_max":589,"o":"m 535 143 q 547 67 535 92 q 589 29 560 42 l 575 -15 q 508 25 531 -4 q 481 110 485 54 q 276 -15 410 -15 q 128 44 182 -15 q 74 201 74 103 q 147 373 74 313 q 349 433 219 433 l 472 433 l 472 517 q 437 644 472 603 q 321 685 401 685 q 140 643 242 685 l 122 692 q 326 739 235 739 q 535 521 535 739 l 535 143 m 283 38 q 472 176 408 38 l 472 385 l 356 385 q 140 203 140 385 q 178 81 140 124 q 283 38 217 38 m 325 913 q 220 950 263 913 q 169 1054 178 988 l 213 1064 q 325 965 235 965 q 439 1064 414 965 l 481 1054 q 431 951 474 989 q 325 913 389 913 z "},"ắ":{"ha":669,"x_min":74,"x_max":589,"o":"m 535 143 q 547 67 535 92 q 589 29 560 42 l 575 -15 q 508 25 531 -4 q 481 110 485 54 q 276 -15 410 -15 q 128 44 182 -15 q 74 201 74 103 q 147 373 74 313 q 349 433 219 433 l 472 433 l 472 517 q 437 644 472 603 q 321 685 401 685 q 140 643 242 685 l 122 692 q 326 739 235 739 q 535 521 535 739 l 535 143 m 283 38 q 472 176 408 38 l 472 385 l 356 385 q 140 203 140 385 q 178 81 140 124 q 283 38 217 38 m 321 828 q 216 863 258 828 q 165 956 174 899 l 207 965 q 249 904 219 926 q 321 882 278 882 q 394 904 364 882 q 435 965 424 926 l 476 956 q 426 863 469 899 q 321 828 383 828 m 426 1196 l 472 1157 l 324 990 l 293 1017 l 426 1196 z "},"ặ":{"ha":669,"x_min":74,"x_max":589,"o":"m 535 143 q 547 67 535 92 q 589 29 560 42 l 575 -15 q 508 25 531 -4 q 481 110 485 54 q 276 -15 410 -15 q 128 44 182 -15 q 74 201 74 103 q 147 373 74 313 q 349 433 219 433 l 472 433 l 472 517 q 437 644 472 603 q 321 685 401 685 q 140 643 242 685 l 122 692 q 326 739 235 739 q 535 521 535 739 l 535 143 m 283 38 q 472 176 408 38 l 472 385 l 356 385 q 140 203 140 385 q 178 81 140 124 q 283 38 217 38 m 325 913 q 220 950 263 913 q 169 1054 178 988 l 213 1064 q 325 965 235 965 q 439 1064 414 965 l 481 1054 q 431 951 474 989 q 325 913 389 913 m 324 -221 q 288 -207 301 -221 q 275 -174 275 -193 q 288 -140 275 -153 q 324 -126 301 -126 q 358 -140 344 -126 q 371 -174 371 -154 q 358 -207 371 -193 q 324 -221 344 -221 z "},"ằ":{"ha":669,"x_min":74,"x_max":589,"o":"m 535 143 q 547 67 535 92 q 589 29 560 42 l 575 -15 q 508 25 531 -4 q 481 110 485 54 q 276 -15 410 -15 q 128 44 182 -15 q 74 201 74 103 q 147 373 74 313 q 349 433 219 433 l 472 433 l 472 517 q 437 644 472 603 q 321 685 401 685 q 140 643 242 685 l 122 692 q 326 739 235 739 q 535 521 535 739 l 535 143 m 283 38 q 472 176 408 38 l 472 385 l 356 385 q 140 203 140 385 q 178 81 140 124 q 283 38 217 38 m 328 828 q 223 863 265 828 q 172 956 181 899 l 214 965 q 256 904 226 926 q 328 882 285 882 q 401 904 371 882 q 442 965 431 926 l 483 956 q 433 863 476 899 q 328 828 390 828 m 232 1196 l 365 1017 l 333 990 l 186 1157 l 232 1196 z "},"ẳ":{"ha":669,"x_min":74,"x_max":589,"o":"m 535 143 q 547 67 535 92 q 589 29 560 42 l 575 -15 q 508 25 531 -4 q 481 110 485 54 q 276 -15 410 -15 q 128 44 182 -15 q 74 201 74 103 q 147 373 74 313 q 349 433 219 433 l 472 433 l 472 517 q 437 644 472 603 q 321 685 401 685 q 140 643 242 685 l 122 692 q 326 739 235 739 q 535 521 535 739 l 535 143 m 283 38 q 472 176 408 38 l 472 385 l 356 385 q 140 203 140 385 q 178 81 140 124 q 283 38 217 38 m 325 828 q 220 863 263 828 q 169 956 178 899 l 211 965 q 253 904 224 926 q 325 882 282 882 q 398 904 368 882 q 439 965 428 926 l 481 956 q 431 863 474 899 q 325 828 388 828 m 296 1069 q 360 1088 339 1072 q 382 1138 382 1103 q 366 1181 382 1165 q 322 1196 350 1196 q 251 1178 288 1196 l 232 1217 q 329 1244 278 1244 q 410 1216 381 1244 q 440 1140 440 1188 q 349 1038 440 1050 l 349 961 l 296 961 l 296 1069 z "},"ẵ":{"ha":669,"x_min":74,"x_max":589,"o":"m 535 143 q 547 67 535 92 q 589 29 560 42 l 575 -15 q 508 25 531 -4 q 481 110 485 54 q 276 -15 410 -15 q 128 44 182 -15 q 74 201 74 103 q 147 373 74 313 q 349 433 219 433 l 472 433 l 472 517 q 437 644 472 603 q 321 685 401 685 q 140 643 242 685 l 122 692 q 326 739 235 739 q 535 521 535 739 l 535 143 m 283 38 q 472 176 408 38 l 472 385 l 356 385 q 140 203 140 385 q 178 81 140 124 q 283 38 217 38 m 328 828 q 223 863 265 828 q 172 956 181 899 l 214 965 q 256 904 226 926 q 328 882 285 882 q 401 904 371 882 q 442 965 431 926 l 483 956 q 433 863 476 899 q 328 828 390 828 m 401 1033 q 358 1042 378 1033 q 314 1068 339 1051 q 281 1088 294 1082 q 254 1094 267 1094 q 217 1082 233 1094 q 182 1042 200 1069 l 144 1063 q 253 1144 190 1144 q 290 1136 272 1144 q 332 1113 308 1128 q 370 1090 356 1097 q 400 1083 385 1083 q 435 1097 419 1083 q 471 1143 451 1111 l 510 1124 q 401 1033 468 1033 z "},"ǎ":{"ha":669,"x_min":74,"x_max":589,"o":"m 535 143 q 547 67 535 92 q 589 29 560 42 l 575 -15 q 508 25 531 -4 q 481 110 485 54 q 276 -15 410 -15 q 128 44 182 -15 q 74 201 74 103 q 147 373 74 313 q 349 433 219 433 l 472 433 l 472 517 q 437 644 472 603 q 321 685 401 685 q 140 643 242 685 l 122 692 q 326 739 235 739 q 535 521 535 739 l 535 143 m 283 38 q 472 176 408 38 l 472 385 l 356 385 q 140 203 140 385 q 178 81 140 124 q 283 38 217 38 m 475 1058 l 503 1028 l 343 882 l 306 882 l 146 1028 l 175 1058 l 325 940 l 475 1058 z "},"â":{"ha":669,"x_min":74,"x_max":589,"o":"m 535 143 q 547 67 535 92 q 589 29 560 42 l 575 -15 q 508 25 531 -4 q 481 110 485 54 q 276 -15 410 -15 q 128 44 182 -15 q 74 201 74 103 q 147 373 74 313 q 349 433 219 433 l 472 433 l 472 517 q 437 644 472 603 q 321 685 401 685 q 140 643 242 685 l 122 692 q 326 739 235 739 q 535 521 535 739 l 535 143 m 283 38 q 472 176 408 38 l 472 385 l 356 385 q 140 203 140 385 q 178 81 140 124 q 283 38 217 38 m 174 900 l 146 931 l 306 1076 l 343 1076 l 503 931 l 474 900 l 324 1018 l 174 900 z "},"ấ":{"ha":669,"x_min":74,"x_max":611,"o":"m 535 143 q 547 67 535 92 q 589 29 560 42 l 575 -15 q 508 25 531 -4 q 481 110 485 54 q 276 -15 410 -15 q 128 44 182 -15 q 74 201 74 103 q 147 373 74 313 q 349 433 219 433 l 472 433 l 472 517 q 437 644 472 603 q 321 685 401 685 q 140 643 242 685 l 122 692 q 326 739 235 739 q 535 521 535 739 l 535 143 m 283 38 q 472 176 408 38 l 472 385 l 356 385 q 140 203 140 385 q 178 81 140 124 q 283 38 217 38 m 174 814 l 144 846 l 304 983 l 342 983 l 501 846 l 474 814 l 324 925 l 174 814 m 565 1154 l 611 1115 l 463 949 l 432 975 l 565 1154 z "},"ậ":{"ha":669,"x_min":74,"x_max":589,"o":"m 535 143 q 547 67 535 92 q 589 29 560 42 l 575 -15 q 508 25 531 -4 q 481 110 485 54 q 276 -15 410 -15 q 128 44 182 -15 q 74 201 74 103 q 147 373 74 313 q 349 433 219 433 l 472 433 l 472 517 q 437 644 472 603 q 321 685 401 685 q 140 643 242 685 l 122 692 q 326 739 235 739 q 535 521 535 739 l 535 143 m 283 38 q 472 176 408 38 l 472 385 l 356 385 q 140 203 140 385 q 178 81 140 124 q 283 38 217 38 m 174 900 l 146 931 l 306 1076 l 343 1076 l 503 931 l 474 900 l 324 1018 l 174 900 m 324 -221 q 288 -207 301 -221 q 275 -174 275 -193 q 288 -140 275 -153 q 324 -126 301 -126 q 358 -140 344 -126 q 371 -174 371 -154 q 358 -207 371 -193 q 324 -221 344 -221 z "},"ầ":{"ha":669,"x_min":42,"x_max":589,"o":"m 535 143 q 547 67 535 92 q 589 29 560 42 l 575 -15 q 508 25 531 -4 q 481 110 485 54 q 276 -15 410 -15 q 128 44 182 -15 q 74 201 74 103 q 147 373 74 313 q 349 433 219 433 l 472 433 l 472 517 q 437 644 472 603 q 321 685 401 685 q 140 643 242 685 l 122 692 q 326 739 235 739 q 535 521 535 739 l 535 143 m 283 38 q 472 176 408 38 l 472 385 l 356 385 q 140 203 140 385 q 178 81 140 124 q 283 38 217 38 m 174 814 l 144 846 l 304 983 l 342 983 l 501 846 l 474 814 l 324 925 l 174 814 m 88 1154 l 221 975 l 189 949 l 42 1115 l 88 1154 z "},"ẩ":{"ha":669,"x_min":74,"x_max":593,"o":"m 535 143 q 547 67 535 92 q 589 29 560 42 l 575 -15 q 508 25 531 -4 q 481 110 485 54 q 276 -15 410 -15 q 128 44 182 -15 q 74 201 74 103 q 147 373 74 313 q 349 433 219 433 l 472 433 l 472 517 q 437 644 472 603 q 321 685 401 685 q 140 643 242 685 l 122 692 q 326 739 235 739 q 535 521 535 739 l 535 143 m 283 38 q 472 176 408 38 l 472 385 l 356 385 q 140 203 140 385 q 178 81 140 124 q 283 38 217 38 m 174 814 l 144 846 l 304 983 l 342 983 l 501 846 l 474 814 l 324 925 l 174 814 m 449 1050 q 513 1068 492 1053 q 535 1118 535 1083 q 519 1161 535 1146 q 475 1176 503 1176 q 404 1158 440 1176 l 385 1197 q 482 1225 431 1225 q 563 1197 533 1225 q 593 1121 593 1168 q 501 1018 593 1031 l 501 942 l 449 942 l 449 1050 z "},"ẫ":{"ha":669,"x_min":74,"x_max":589,"o":"m 535 143 q 547 67 535 92 q 589 29 560 42 l 575 -15 q 508 25 531 -4 q 481 110 485 54 q 276 -15 410 -15 q 128 44 182 -15 q 74 201 74 103 q 147 373 74 313 q 349 433 219 433 l 472 433 l 472 517 q 437 644 472 603 q 321 685 401 685 q 140 643 242 685 l 122 692 q 326 739 235 739 q 535 521 535 739 l 535 143 m 283 38 q 472 176 408 38 l 472 385 l 356 385 q 140 203 140 385 q 178 81 140 124 q 283 38 217 38 m 175 800 l 146 832 l 306 969 l 343 969 l 503 832 l 475 800 l 325 911 l 175 800 m 399 1029 q 356 1038 375 1029 q 311 1064 336 1047 q 278 1084 292 1078 q 251 1090 264 1090 q 214 1078 231 1090 q 179 1038 197 1065 l 142 1058 q 250 1140 188 1140 q 288 1132 269 1140 q 329 1108 306 1124 q 367 1086 353 1093 q 397 1079 382 1079 q 433 1093 417 1079 q 468 1139 449 1107 l 507 1119 q 399 1029 465 1029 z "},"ȁ":{"ha":669,"x_min":74,"x_max":589,"o":"m 535 143 q 547 67 535 92 q 589 29 560 42 l 575 -15 q 508 25 531 -4 q 481 110 485 54 q 276 -15 410 -15 q 128 44 182 -15 q 74 201 74 103 q 147 373 74 313 q 349 433 219 433 l 472 433 l 472 517 q 437 644 472 603 q 321 685 401 685 q 140 643 242 685 l 122 692 q 326 739 235 739 q 535 521 535 739 l 535 143 m 283 38 q 472 176 408 38 l 472 385 l 356 385 q 140 203 140 385 q 178 81 140 124 q 283 38 217 38 m 188 1115 l 283 915 l 243 896 l 132 1086 l 188 1115 m 342 1114 l 429 921 l 389 903 l 286 1085 l 342 1114 z "},"ä":{"ha":669,"x_min":74,"x_max":589,"o":"m 535 143 q 547 67 535 92 q 589 29 560 42 l 575 -15 q 508 25 531 -4 q 481 110 485 54 q 276 -15 410 -15 q 128 44 182 -15 q 74 201 74 103 q 147 373 74 313 q 349 433 219 433 l 472 433 l 472 517 q 437 644 472 603 q 321 685 401 685 q 140 643 242 685 l 122 692 q 326 739 235 739 q 535 521 535 739 l 535 143 m 283 38 q 472 176 408 38 l 472 385 l 356 385 q 140 203 140 385 q 178 81 140 124 q 283 38 217 38 m 208 1017 q 242 1003 229 1017 q 254 971 254 990 q 242 938 254 951 q 208 925 229 925 q 176 938 189 925 q 164 971 164 951 q 176 1003 164 990 q 208 1017 189 1017 m 439 1017 q 471 1003 458 1017 q 483 971 483 990 q 471 938 483 951 q 439 925 458 925 q 406 938 419 925 q 393 971 393 951 q 406 1003 393 990 q 439 1017 419 1017 z "},"ǟ":{"ha":669,"x_min":74,"x_max":589,"o":"m 535 143 q 547 67 535 92 q 589 29 560 42 l 575 -15 q 508 25 531 -4 q 481 110 485 54 q 276 -15 410 -15 q 128 44 182 -15 q 74 201 74 103 q 147 373 74 313 q 349 433 219 433 l 472 433 l 472 517 q 437 644 472 603 q 321 685 401 685 q 140 643 242 685 l 122 692 q 326 739 235 739 q 535 521 535 739 l 535 143 m 283 38 q 472 176 408 38 l 472 385 l 356 385 q 140 203 140 385 q 178 81 140 124 q 283 38 217 38 m 210 975 q 243 962 231 975 q 256 929 256 949 q 243 897 256 910 q 210 883 231 883 q 178 897 190 883 q 165 929 165 910 q 178 962 165 949 q 210 975 190 975 m 440 975 q 472 962 460 975 q 485 929 485 949 q 472 897 485 910 q 440 883 460 883 q 408 897 421 883 q 394 929 394 910 q 408 962 394 949 q 440 975 421 975 m 471 1065 l 181 1065 l 181 1117 l 471 1117 l 471 1065 z "},"ȧ":{"ha":669,"x_min":74,"x_max":589,"o":"m 535 143 q 547 67 535 92 q 589 29 560 42 l 575 -15 q 508 25 531 -4 q 481 110 485 54 q 276 -15 410 -15 q 128 44 182 -15 q 74 201 74 103 q 147 373 74 313 q 349 433 219 433 l 472 433 l 472 517 q 437 644 472 603 q 321 685 401 685 q 140 643 242 685 l 122 692 q 326 739 235 739 q 535 521 535 739 l 535 143 m 283 38 q 472 176 408 38 l 472 385 l 356 385 q 140 203 140 385 q 178 81 140 124 q 283 38 217 38 m 324 1032 q 359 1018 346 1032 q 372 985 372 1004 q 359 951 372 964 q 324 938 346 938 q 290 951 303 938 q 276 985 276 965 q 290 1018 276 1004 q 324 1032 303 1032 z "},"ạ":{"ha":669,"x_min":74,"x_max":589,"o":"m 535 143 q 547 67 535 92 q 589 29 560 42 l 575 -15 q 508 25 531 -4 q 481 110 485 54 q 276 -15 410 -15 q 128 44 182 -15 q 74 201 74 103 q 147 373 74 313 q 349 433 219 433 l 472 433 l 472 517 q 437 644 472 603 q 321 685 401 685 q 140 643 242 685 l 122 692 q 326 739 235 739 q 535 521 535 739 l 535 143 m 283 38 q 472 176 408 38 l 472 385 l 356 385 q 140 203 140 385 q 178 81 140 124 q 283 38 217 38 m 324 -221 q 288 -207 301 -221 q 275 -174 275 -193 q 288 -140 275 -153 q 324 -126 301 -126 q 358 -140 344 -126 q 371 -174 371 -154 q 358 -207 371 -193 q 324 -221 344 -221 z "},"ǡ":{"ha":669,"x_min":74,"x_max":589,"o":"m 535 143 q 547 67 535 92 q 589 29 560 42 l 575 -15 q 508 25 531 -4 q 481 110 485 54 q 276 -15 410 -15 q 128 44 182 -15 q 74 201 74 103 q 147 373 74 313 q 349 433 219 433 l 472 433 l 472 517 q 437 644 472 603 q 321 685 401 685 q 140 643 242 685 l 122 692 q 326 739 235 739 q 535 521 535 739 l 535 143 m 283 38 q 472 176 408 38 l 472 385 l 356 385 q 140 203 140 385 q 178 81 140 124 q 283 38 217 38 m 325 963 q 360 949 347 963 q 374 915 374 935 q 360 881 374 894 q 325 868 347 868 q 291 882 304 868 q 278 915 278 896 q 291 949 278 935 q 325 963 304 963 m 471 1047 l 181 1047 l 181 1099 l 471 1099 l 471 1047 z "},"à":{"ha":669,"x_min":74,"x_max":589,"o":"m 535 143 q 547 67 535 92 q 589 29 560 42 l 575 -15 q 508 25 531 -4 q 481 110 485 54 q 276 -15 410 -15 q 128 44 182 -15 q 74 201 74 103 q 147 373 74 313 q 349 433 219 433 l 472 433 l 472 517 q 437 644 472 603 q 321 685 401 685 q 140 643 242 685 l 122 692 q 326 739 235 739 q 535 521 535 739 l 535 143 m 283 38 q 472 176 408 38 l 472 385 l 356 385 q 140 203 140 385 q 178 81 140 124 q 283 38 217 38 m 229 1074 l 460 936 l 438 900 l 199 1017 l 229 1074 z "},"ả":{"ha":669,"x_min":74,"x_max":589,"o":"m 535 143 q 547 67 535 92 q 589 29 560 42 l 575 -15 q 508 25 531 -4 q 481 110 485 54 q 276 -15 410 -15 q 128 44 182 -15 q 74 201 74 103 q 147 373 74 313 q 349 433 219 433 l 472 433 l 472 517 q 437 644 472 603 q 321 685 401 685 q 140 643 242 685 l 122 692 q 326 739 235 739 q 535 521 535 739 l 535 143 m 283 38 q 472 176 408 38 l 472 385 l 356 385 q 140 203 140 385 q 178 81 140 124 q 283 38 217 38 m 299 968 q 363 986 342 971 q 385 1036 385 1001 q 369 1079 385 1064 q 325 1094 353 1094 q 254 1076 290 1094 l 235 1115 q 332 1143 281 1143 q 413 1115 383 1143 q 443 1039 443 1086 q 351 936 443 949 l 351 860 l 299 860 l 299 968 z "},"ȃ":{"ha":669,"x_min":74,"x_max":589,"o":"m 535 143 q 547 67 535 92 q 589 29 560 42 l 575 -15 q 508 25 531 -4 q 481 110 485 54 q 276 -15 410 -15 q 128 44 182 -15 q 74 201 74 103 q 147 373 74 313 q 349 433 219 433 l 472 433 l 472 517 q 437 644 472 603 q 321 685 401 685 q 140 643 242 685 l 122 692 q 326 739 235 739 q 535 521 535 739 l 535 143 m 283 38 q 472 176 408 38 l 472 385 l 356 385 q 140 203 140 385 q 178 81 140 124 q 283 38 217 38 m 325 1021 q 431 983 389 1021 q 481 879 474 944 l 439 869 q 325 968 414 968 q 213 869 235 968 l 169 879 q 220 983 178 946 q 325 1021 263 1021 z "},"ɑ":{"ha":725,"x_min":82,"x_max":646,"o":"m 586 153 q 599 79 586 103 q 646 42 613 56 l 626 -10 q 556 34 579 7 q 526 106 533 61 q 449 18 497 51 q 333 -15 400 -15 q 149 82 215 -15 q 82 360 82 179 q 114 562 82 476 q 205 693 146 647 q 343 739 264 739 q 526 636 460 739 l 532 725 l 586 725 l 586 153 m 339 39 q 446 74 403 39 q 524 179 489 108 l 524 574 q 449 655 490 625 q 349 685 407 685 q 203 603 258 685 q 149 365 149 521 q 198 120 149 201 q 339 39 247 39 z "},"ɒ":{"ha":725,"x_min":79,"x_max":643,"o":"m 392 740 q 576 643 510 740 q 643 365 643 546 q 611 163 643 249 q 520 32 579 78 q 382 -14 461 -14 q 199 89 265 -14 l 193 0 l 139 0 l 139 572 q 126 646 139 622 q 79 683 113 669 l 99 735 q 169 691 146 718 q 199 619 192 664 q 276 707 228 674 q 392 740 325 740 m 376 40 q 522 122 467 40 q 576 360 576 204 q 527 605 576 524 q 386 686 478 686 q 279 651 322 686 q 201 546 236 617 l 201 151 q 276 70 235 100 q 376 40 318 40 z "},"ā":{"ha":669,"x_min":74,"x_max":589,"o":"m 535 143 q 547 67 535 92 q 589 29 560 42 l 575 -15 q 508 25 531 -4 q 481 110 485 54 q 276 -15 410 -15 q 128 44 182 -15 q 74 201 74 103 q 147 373 74 313 q 349 433 219 433 l 472 433 l 472 517 q 437 644 472 603 q 321 685 401 685 q 140 643 242 685 l 122 692 q 326 739 235 739 q 535 521 535 739 l 535 143 m 283 38 q 472 176 408 38 l 472 385 l 356 385 q 140 203 140 385 q 178 81 140 124 q 283 38 217 38 m 471 944 l 181 944 l 181 996 l 471 996 l 471 944 z "},"ą":{"ha":669,"x_min":74,"x_max":589,"o":"m 575 -15 q 458 -93 493 -57 q 424 -182 424 -129 q 504 -256 424 -256 q 575 -247 535 -256 l 569 -301 q 499 -310 532 -310 q 399 -276 433 -310 q 364 -187 364 -243 q 405 -82 364 -128 q 532 3 446 -36 q 481 110 486 32 q 276 -15 410 -15 q 128 44 182 -15 q 74 201 74 103 q 147 373 74 313 q 349 433 219 433 l 472 433 l 472 517 q 437 644 472 603 q 321 685 401 685 q 140 643 242 685 l 122 692 q 326 739 235 739 q 535 521 535 739 l 535 143 q 547 67 535 92 q 589 29 560 42 l 575 -15 m 283 38 q 472 176 408 38 l 472 385 l 356 385 q 140 203 140 385 q 178 81 140 124 q 283 38 217 38 z "},"å":{"ha":669,"x_min":74,"x_max":589,"o":"m 535 143 q 547 67 535 92 q 589 29 560 42 l 575 -15 q 508 25 531 -4 q 481 110 485 54 q 276 -15 410 -15 q 128 44 182 -15 q 74 201 74 103 q 147 373 74 313 q 349 433 219 433 l 472 433 l 472 517 q 437 644 472 603 q 321 685 401 685 q 140 643 242 685 l 122 692 q 326 739 235 739 q 535 521 535 739 l 535 143 m 283 38 q 472 176 408 38 l 472 385 l 356 385 q 140 203 140 385 q 178 81 140 124 q 283 38 217 38 m 325 1132 q 412 1099 379 1132 q 444 1008 444 1065 q 412 917 444 950 q 325 883 379 883 q 240 917 272 883 q 207 1008 207 950 q 240 1099 207 1065 q 325 1132 272 1132 m 325 1090 q 256 1008 256 1090 q 325 925 256 925 q 394 1008 394 925 q 325 1090 394 1090 z "},"ǻ":{"ha":669,"x_min":74,"x_max":589,"o":"m 456 1182 l 214 1076 l 196 1115 l 426 1240 l 456 1182 m 207 942 q 240 1032 207 999 q 325 1065 272 1065 q 412 1032 379 1065 q 444 942 444 999 q 412 850 444 883 q 325 817 379 817 q 240 850 272 817 q 207 942 207 883 m 394 942 q 325 1024 394 1024 q 256 942 256 1024 q 325 858 256 858 q 394 942 394 858 m 535 143 q 547 67 535 92 q 589 29 560 42 l 575 -15 q 508 25 531 -4 q 481 110 485 54 q 276 -15 410 -15 q 128 44 182 -15 q 74 201 74 103 q 147 373 74 313 q 349 433 219 433 l 472 433 l 472 517 q 437 644 472 603 q 321 685 401 685 q 140 643 242 685 l 122 692 q 326 739 235 739 q 535 521 535 739 l 535 143 m 283 38 q 472 176 408 38 l 472 385 l 356 385 q 140 203 140 385 q 178 81 140 124 q 283 38 217 38 z "},"ⱥ":{"ha":669,"x_min":74,"x_max":589,"o":"m 535 143 q 547 67 535 92 q 589 29 560 42 l 575 -15 q 508 25 531 -4 q 481 110 485 54 q 276 -15 410 -15 l 260 -15 l 239 -97 l 204 -89 l 224 -10 q 113 62 153 6 q 74 201 74 118 q 142 369 74 310 q 332 433 210 429 l 392 674 q 321 685 361 685 q 140 643 242 685 l 122 692 q 326 739 235 739 q 406 729 372 739 l 428 821 l 464 811 l 440 715 q 535 521 535 667 l 535 143 m 472 517 q 425 656 472 617 l 371 433 l 472 433 l 472 517 m 283 38 q 472 176 408 38 l 472 385 l 358 385 l 272 38 l 283 38 m 140 203 q 165 98 140 139 q 236 43 190 57 l 321 383 q 140 203 140 368 z "},"ã":{"ha":669,"x_min":74,"x_max":589,"o":"m 535 143 q 547 67 535 92 q 589 29 560 42 l 575 -15 q 508 25 531 -4 q 481 110 485 54 q 276 -15 410 -15 q 128 44 182 -15 q 74 201 74 103 q 147 373 74 313 q 349 433 219 433 l 472 433 l 472 517 q 437 644 472 603 q 321 685 401 685 q 140 643 242 685 l 122 692 q 326 739 235 739 q 535 521 535 739 l 535 143 m 283 38 q 472 176 408 38 l 472 385 l 356 385 q 140 203 140 385 q 178 81 140 124 q 283 38 217 38 m 399 932 q 356 941 375 932 q 311 967 336 950 q 278 987 292 981 q 251 993 264 993 q 214 981 231 993 q 179 940 197 968 l 142 961 q 250 1043 188 1043 q 288 1035 269 1043 q 329 1011 306 1026 q 367 989 353 996 q 397 982 382 982 q 433 996 417 982 q 468 1042 449 1010 l 507 1022 q 399 932 465 932 z "},"ɐ":{"ha":669,"x_min":81,"x_max":596,"o":"m 349 40 q 529 82 428 40 l 547 33 q 343 -14 435 -14 q 135 204 135 -14 l 135 582 q 122 658 135 633 q 81 696 110 683 l 94 740 q 162 700 139 729 q 189 615 185 671 q 393 740 260 740 q 542 681 488 740 q 596 524 596 622 q 523 352 596 413 q 321 292 450 292 l 197 292 l 197 208 q 233 81 197 122 q 349 40 268 40 m 386 688 q 197 549 261 688 l 197 340 l 314 340 q 529 522 529 340 q 491 644 529 601 q 386 688 453 688 z "},"æ":{"ha":1058,"x_min":74,"x_max":983,"o":"m 983 392 q 981 335 983 363 l 538 335 q 601 113 544 185 q 750 40 657 40 q 842 58 801 40 q 926 113 882 75 l 957 74 q 860 7 910 29 q 747 -15 810 -15 q 608 24 667 -15 q 515 138 549 64 q 406 21 463 57 q 278 -15 349 -15 q 128 44 183 -15 q 74 201 74 103 q 147 373 74 313 q 347 433 219 433 l 474 433 l 474 510 q 438 642 474 600 q 318 685 401 685 q 142 643 243 685 l 125 692 q 325 739 238 739 q 459 701 411 739 q 524 588 507 663 q 738 739 592 739 q 920 648 857 739 q 983 392 983 557 m 921 413 q 875 614 921 543 q 738 685 829 685 q 597 610 651 685 q 538 385 543 536 l 921 385 l 921 413 m 285 38 q 397 74 349 38 q 494 193 446 111 q 474 356 474 264 l 474 385 l 353 385 q 196 339 251 385 q 140 203 140 293 q 179 81 140 125 q 285 38 218 38 z "},"ǽ":{"ha":1058,"x_min":74,"x_max":983,"o":"m 983 392 q 981 335 983 363 l 538 335 q 601 113 544 185 q 750 40 657 40 q 842 58 801 40 q 926 113 882 75 l 957 74 q 860 7 910 29 q 747 -15 810 -15 q 608 24 667 -15 q 515 138 549 64 q 406 21 463 57 q 278 -15 349 -15 q 128 44 183 -15 q 74 201 74 103 q 147 373 74 313 q 347 433 219 433 l 474 433 l 474 510 q 438 642 474 600 q 318 685 401 685 q 142 643 243 685 l 125 692 q 325 739 238 739 q 459 701 411 739 q 524 588 507 663 q 738 739 592 739 q 920 648 857 739 q 983 392 983 557 m 921 413 q 875 614 921 543 q 738 685 829 685 q 597 610 651 685 q 538 385 543 536 l 921 385 l 921 413 m 285 38 q 397 74 349 38 q 494 193 446 111 q 474 356 474 264 l 474 385 l 353 385 q 196 339 251 385 q 140 203 140 293 q 179 81 140 125 q 285 38 218 38 m 621 1074 l 650 1017 l 411 900 l 390 936 l 621 1074 z "},"ǣ":{"ha":1058,"x_min":74,"x_max":983,"o":"m 983 392 q 981 335 983 363 l 538 335 q 601 113 544 185 q 750 40 657 40 q 842 58 801 40 q 926 113 882 75 l 957 74 q 860 7 910 29 q 747 -15 810 -15 q 608 24 667 -15 q 515 138 549 64 q 406 21 463 57 q 278 -15 349 -15 q 128 44 183 -15 q 74 201 74 103 q 147 373 74 313 q 347 433 219 433 l 474 433 l 474 510 q 438 642 474 600 q 318 685 401 685 q 142 643 243 685 l 125 692 q 325 739 238 739 q 459 701 411 739 q 524 588 507 663 q 738 739 592 739 q 920 648 857 739 q 983 392 983 557 m 921 413 q 875 614 921 543 q 738 685 829 685 q 597 610 651 685 q 538 385 543 536 l 921 385 l 921 413 m 285 38 q 397 74 349 38 q 494 193 446 111 q 474 356 474 264 l 474 385 l 353 385 q 196 339 251 385 q 140 203 140 293 q 179 81 140 125 q 285 38 218 38 m 676 944 l 386 944 l 386 996 l 676 996 l 676 944 z "},"b":{"ha":719,"x_min":136,"x_max":635,"o":"m 399 739 q 573 644 511 739 q 635 367 635 550 q 570 85 635 185 q 388 -15 506 -15 q 279 15 328 -15 q 196 94 231 46 l 190 0 l 136 0 l 136 1021 l 199 1029 l 199 622 q 399 739 278 739 m 379 39 q 519 120 471 39 q 568 367 568 201 q 522 608 568 531 q 389 685 476 685 q 283 652 328 685 q 199 557 238 619 l 199 160 q 379 39 272 39 z "},"ḃ":{"ha":719,"x_min":136,"x_max":635,"o":"m 399 739 q 573 644 511 739 q 635 367 635 550 q 570 85 635 185 q 388 -15 506 -15 q 279 15 328 -15 q 196 94 231 46 l 190 0 l 136 0 l 136 1021 l 199 1029 l 199 622 q 399 739 278 739 m 379 39 q 519 120 471 39 q 568 367 568 201 q 522 608 568 531 q 389 685 476 685 q 283 652 328 685 q 199 557 238 619 l 199 160 q 379 39 272 39 m 375 1278 q 410 1264 397 1278 q 424 1231 424 1250 q 410 1197 424 1210 q 375 1183 397 1183 q 341 1197 354 1183 q 328 1231 328 1211 q 341 1264 328 1250 q 375 1278 354 1278 z "},"ḅ":{"ha":719,"x_min":136,"x_max":635,"o":"m 399 739 q 573 644 511 739 q 635 367 635 550 q 570 85 635 185 q 388 -15 506 -15 q 279 15 328 -15 q 196 94 231 46 l 190 0 l 136 0 l 136 1021 l 199 1029 l 199 622 q 399 739 278 739 m 379 39 q 519 120 471 39 q 568 367 568 201 q 522 608 568 531 q 389 685 476 685 q 283 652 328 685 q 199 557 238 619 l 199 160 q 379 39 272 39 m 376 -221 q 341 -207 354 -221 q 328 -174 328 -193 q 341 -140 328 -153 q 376 -126 354 -126 q 410 -140 397 -126 q 424 -174 424 -154 q 410 -207 424 -193 q 376 -221 397 -221 z "},"ꞵ":{"ha":732,"x_min":136,"x_max":665,"o":"m 401 556 q 591 483 517 553 q 665 279 665 413 q 631 122 665 189 q 537 20 596 56 q 408 -15 478 -15 q 199 79 286 -15 l 199 -271 l 136 -282 l 136 751 q 201 957 136 885 q 376 1029 267 1029 q 540 966 476 1029 q 604 790 604 903 q 551 626 604 685 q 401 556 499 567 m 404 40 q 545 103 489 40 q 601 274 601 167 q 532 463 601 397 q 339 528 463 528 l 281 528 l 289 579 l 342 579 q 482 626 421 579 q 543 789 543 674 q 497 929 542 883 q 376 975 453 975 q 246 920 293 975 q 199 750 199 865 l 199 142 q 292 64 243 88 q 404 40 340 40 z "},"ɓ":{"ha":719,"x_min":136,"x_max":635,"o":"m 399 739 q 573 644 511 739 q 635 367 635 550 q 570 85 635 185 q 388 -15 506 -15 q 279 15 328 -15 q 196 94 231 46 l 190 0 l 136 0 l 136 853 q 183 983 136 936 q 311 1029 229 1029 q 463 989 389 1029 l 440 943 q 315 975 376 975 q 228 945 257 975 q 199 850 199 915 l 199 622 q 399 739 278 739 m 379 39 q 519 120 471 39 q 568 367 568 201 q 522 608 568 531 q 389 685 476 685 q 283 652 328 685 q 199 557 238 619 l 199 160 q 379 39 272 39 z "},"ʭ":{"ha":410,"x_min":42,"x_max":368,"o":"m 42 556 l 42 731 l 368 731 l 368 556 l 318 556 l 318 681 l 92 681 l 92 556 l 42 556 m 42 -1 l 42 174 l 368 174 l 368 -1 l 318 -1 l 318 124 l 92 124 l 92 -1 l 42 -1 z "},"ʘ":{"ha":990,"x_min":86,"x_max":903,"o":"m 494 964 q 709 908 617 964 q 852 742 801 853 q 903 474 903 632 q 853 210 903 319 q 710 42 803 100 q 494 -15 618 -15 q 281 41 374 -15 q 138 207 189 97 q 86 472 86 317 q 138 738 86 628 q 281 906 189 849 q 494 964 374 964 m 494 910 q 242 799 336 910 q 149 472 149 688 q 242 151 149 261 q 494 40 336 40 q 750 150 658 40 q 842 474 842 260 q 749 800 842 690 q 494 910 656 910 m 494 521 q 530 507 517 521 q 543 474 543 493 q 530 440 543 453 q 494 426 517 426 q 460 440 474 426 q 447 474 447 454 q 460 507 447 493 q 494 521 474 521 z "},"ʬ":{"ha":576,"x_min":56,"x_max":521,"o":"m 521 919 l 432 556 l 367 556 l 290 868 l 211 556 l 146 556 l 56 919 l 110 919 l 182 600 l 263 919 l 319 919 l 399 600 l 471 919 l 521 919 m 521 364 l 432 0 l 367 0 l 290 313 l 211 0 l 146 0 l 56 364 l 110 364 l 182 44 l 263 364 l 319 364 l 399 44 l 471 364 l 521 364 z "},"ƀ":{"ha":726,"x_min":47,"x_max":642,"o":"m 406 739 q 580 644 518 739 q 642 367 642 550 q 577 85 642 185 q 394 -15 513 -15 q 286 15 335 -15 q 203 94 238 46 l 197 0 l 143 0 l 143 861 l 47 861 l 47 914 l 143 914 l 143 1021 l 206 1029 l 206 914 l 417 914 l 417 861 l 206 861 l 206 622 q 406 739 285 739 m 386 39 q 526 120 478 39 q 575 367 575 201 q 529 608 575 531 q 396 685 483 685 q 290 652 335 685 q 206 557 244 619 l 206 160 q 386 39 279 39 z "},"ƃ":{"ha":719,"x_min":136,"x_max":635,"o":"m 399 739 q 573 644 511 739 q 635 367 635 550 q 570 85 635 185 q 388 -15 506 -15 q 279 15 328 -15 q 196 94 231 46 l 190 0 l 136 0 l 136 1021 l 497 1021 l 488 968 l 199 968 l 199 622 q 399 739 278 739 m 379 39 q 519 120 471 39 q 568 367 568 201 q 522 608 568 531 q 389 685 476 685 q 283 652 328 685 q 199 557 238 619 l 199 160 q 379 39 272 39 z "},"c":{"ha":579,"x_min":82,"x_max":543,"o":"m 358 739 q 454 722 411 739 q 538 668 497 706 l 506 626 q 438 670 472 656 q 360 685 404 685 q 206 603 263 685 q 149 358 149 522 q 205 119 149 197 q 358 40 261 40 q 511 101 440 40 l 543 63 q 358 -15 461 -15 q 156 81 231 -15 q 82 358 82 176 q 157 639 82 539 q 358 739 232 739 z "},"ć":{"ha":579,"x_min":82,"x_max":543,"o":"m 358 739 q 454 722 411 739 q 538 668 497 706 l 506 626 q 438 670 472 656 q 360 685 404 685 q 206 603 263 685 q 149 358 149 522 q 205 119 149 197 q 358 40 261 40 q 511 101 440 40 l 543 63 q 358 -15 461 -15 q 156 81 231 -15 q 82 358 82 176 q 157 639 82 539 q 358 739 232 739 m 447 1074 l 476 1017 l 238 900 l 217 936 l 447 1074 z "},"č":{"ha":579,"x_min":82,"x_max":543,"o":"m 358 739 q 454 722 411 739 q 538 668 497 706 l 506 626 q 438 670 472 656 q 360 685 404 685 q 206 603 263 685 q 149 358 149 522 q 205 119 149 197 q 358 40 261 40 q 511 101 440 40 l 543 63 q 358 -15 461 -15 q 156 81 231 -15 q 82 358 82 176 q 157 639 82 539 q 358 739 232 739 m 507 1058 l 535 1028 l 375 882 l 338 882 l 178 1028 l 207 1058 l 357 940 l 507 1058 z "},"ç":{"ha":579,"x_min":82,"x_max":543,"o":"m 371 -94 q 485 -196 485 -104 q 449 -278 485 -249 q 360 -308 413 -308 q 263 -281 303 -308 l 285 -240 q 358 -261 318 -261 q 409 -244 389 -261 q 429 -196 429 -228 q 402 -148 429 -164 q 317 -132 375 -132 l 325 -14 q 147 94 211 -1 q 82 358 82 189 q 157 639 82 539 q 358 739 232 739 q 454 722 411 739 q 538 668 497 706 l 506 626 q 438 670 472 656 q 360 685 404 685 q 206 603 263 685 q 149 358 149 522 q 205 119 149 197 q 358 40 261 40 q 511 101 440 40 l 543 63 q 371 -15 467 -10 l 371 -94 z "},"ĉ":{"ha":579,"x_min":82,"x_max":543,"o":"m 358 739 q 454 722 411 739 q 538 668 497 706 l 506 626 q 438 670 472 656 q 360 685 404 685 q 206 603 263 685 q 149 358 149 522 q 205 119 149 197 q 358 40 261 40 q 511 101 440 40 l 543 63 q 358 -15 461 -15 q 156 81 231 -15 q 82 358 82 176 q 157 639 82 539 q 358 739 232 739 m 206 900 l 178 931 l 338 1076 l 375 1076 l 535 931 l 506 900 l 356 1018 l 206 900 z "},"ɕ":{"ha":597,"x_min":82,"x_max":563,"o":"m 429 293 q 527 255 492 293 q 563 156 563 217 q 509 31 563 78 q 363 -15 456 -15 q 244 13 300 -15 l 204 -85 l 158 -67 l 203 38 q 113 165 144 83 q 82 358 82 246 q 157 639 82 539 q 358 739 232 739 q 454 722 411 739 q 538 668 497 706 l 506 626 q 438 670 472 656 q 360 685 404 685 q 206 603 263 685 q 149 358 149 522 q 228 94 149 174 q 317 247 269 201 q 429 293 364 293 m 367 42 q 467 69 428 42 q 506 156 506 96 q 485 220 506 197 q 426 243 465 243 q 342 204 378 243 q 267 65 307 165 q 367 42 310 42 z "},"ċ":{"ha":579,"x_min":82,"x_max":543,"o":"m 358 739 q 454 722 411 739 q 538 668 497 706 l 506 626 q 438 670 472 656 q 360 685 404 685 q 206 603 263 685 q 149 358 149 522 q 205 119 149 197 q 358 40 261 40 q 511 101 440 40 l 543 63 q 358 -15 461 -15 q 156 81 231 -15 q 82 358 82 176 q 157 639 82 539 q 358 739 232 739 m 356 1032 q 391 1018 378 1032 q 404 985 404 1004 q 391 951 404 964 q 356 938 378 938 q 322 951 335 938 q 308 985 308 965 q 322 1018 308 1004 q 356 1032 335 1032 z "},"ƈ":{"ha":579,"x_min":82,"x_max":746,"o":"m 622 1029 q 746 983 692 1029 l 718 943 q 674 967 694 958 q 625 975 653 975 q 538 864 538 975 l 538 668 l 508 632 q 438 672 472 658 q 360 685 403 685 q 206 603 263 685 q 149 358 149 522 q 205 119 149 197 q 358 40 261 40 q 511 101 440 40 l 543 63 q 358 -15 461 -15 q 156 81 231 -15 q 82 358 82 176 q 157 639 82 539 q 358 739 232 739 q 476 707 425 739 l 476 863 q 516 986 476 943 q 622 1029 556 1029 z "},"ʗ":{"ha":606,"x_min":107,"x_max":568,"o":"m 386 739 q 481 722 439 739 q 563 668 522 706 l 531 626 q 464 670 499 656 q 388 685 429 685 q 232 567 290 685 q 174 222 174 449 q 231 -117 174 -3 q 386 -232 289 -232 q 536 -171 465 -232 l 568 -211 q 386 -287 488 -287 q 182 -156 257 -287 q 107 221 107 -24 q 141 500 107 383 q 238 678 175 617 q 386 739 301 739 z "},"ȼ":{"ha":579,"x_min":82,"x_max":543,"o":"m 543 63 q 358 -15 461 -15 q 268 -1 308 -15 l 244 -97 l 208 -89 l 233 14 q 122 140 161 53 q 82 358 82 228 q 157 639 82 539 q 358 739 232 739 q 411 735 386 739 l 432 821 l 468 811 l 447 725 q 538 668 492 710 l 506 626 q 433 672 472 658 l 282 54 q 358 40 315 40 q 511 101 440 40 l 543 63 m 149 358 q 249 74 149 144 l 397 682 q 360 685 375 685 q 206 603 263 685 q 149 358 149 522 z "},"d":{"ha":725,"x_min":85,"x_max":589,"o":"m 589 1021 l 589 0 l 535 0 l 529 113 q 331 -15 461 -15 q 151 84 217 -15 q 85 360 85 183 q 116 560 85 474 q 206 692 147 646 q 343 739 264 739 q 526 640 456 739 l 526 1029 l 589 1021 m 338 39 q 447 74 401 39 q 526 181 492 110 l 526 571 q 451 654 493 624 q 350 685 408 685 q 206 602 260 685 q 151 365 151 519 q 201 122 151 206 q 338 39 250 39 z "},"ð":{"ha":692,"x_min":82,"x_max":603,"o":"m 399 921 q 553 710 503 835 q 603 397 603 586 q 532 90 603 196 q 340 -15 461 -15 q 151 75 221 -15 q 82 322 82 165 q 110 484 82 410 q 194 603 139 558 q 325 647 250 647 q 439 619 389 647 q 532 533 489 590 q 479 728 519 644 q 363 882 439 813 l 263 772 l 217 792 l 324 911 q 165 979 247 961 l 179 1031 q 358 951 265 1011 l 446 1050 l 485 1019 l 399 921 m 340 39 q 487 131 435 39 q 539 400 539 224 l 538 461 q 332 593 449 593 q 195 517 243 593 q 147 321 147 442 q 198 113 147 186 q 340 39 249 39 z "},"ȸ":{"ha":1060,"x_min":85,"x_max":975,"o":"m 750 739 q 916 645 857 739 q 975 367 975 551 q 913 85 975 185 q 743 -15 851 -15 q 638 21 686 -15 q 563 108 590 57 l 556 0 l 510 0 l 503 107 q 426 19 472 53 q 318 -15 379 -15 q 149 83 213 -15 q 85 360 85 181 q 115 562 85 476 q 200 693 144 647 q 329 739 256 739 q 501 631 433 739 l 501 1021 l 564 1029 l 564 626 q 750 739 643 739 m 326 39 q 424 74 382 39 q 501 176 465 108 l 501 569 q 424 656 461 626 q 336 685 386 685 q 203 603 256 685 q 151 365 151 521 q 199 122 151 204 q 326 39 246 39 m 736 39 q 863 120 817 39 q 908 367 908 201 q 865 608 908 532 q 742 685 822 685 q 645 654 686 685 q 564 565 604 624 l 564 181 q 736 39 632 39 z "},"ď":{"ha":729,"x_min":85,"x_max":753,"o":"m 589 1021 l 589 0 l 535 0 l 529 113 q 331 -15 461 -15 q 151 84 217 -15 q 85 360 85 183 q 116 560 85 474 q 206 692 147 646 q 343 739 264 739 q 526 640 456 739 l 526 1029 l 589 1021 m 338 39 q 447 74 401 39 q 526 181 492 110 l 526 571 q 451 654 493 624 q 350 685 408 685 q 206 602 260 685 q 151 365 151 519 q 201 122 151 206 q 338 39 250 39 m 707 803 l 753 1019 l 692 1026 l 668 808 l 707 803 z "},"ḓ":{"ha":725,"x_min":85,"x_max":589,"o":"m 589 1021 l 589 0 l 535 0 l 529 113 q 331 -15 461 -15 q 151 84 217 -15 q 85 360 85 183 q 116 560 85 474 q 206 692 147 646 q 343 739 264 739 q 526 640 456 739 l 526 1029 l 589 1021 m 338 39 q 447 74 401 39 q 526 181 492 110 l 526 571 q 451 654 493 624 q 350 685 408 685 q 206 602 260 685 q 151 365 151 519 q 201 122 151 206 q 338 39 250 39 m 224 -274 l 196 -243 l 356 -97 l 393 -97 l 553 -243 l 524 -274 l 374 -156 l 224 -274 z "},"đ":{"ha":732,"x_min":85,"x_max":683,"o":"m 683 914 l 683 861 l 589 861 l 589 0 l 535 0 l 529 113 q 331 -15 461 -15 q 151 84 217 -15 q 85 360 85 183 q 116 560 85 474 q 206 692 147 646 q 343 739 264 739 q 526 640 456 739 l 526 861 l 319 861 l 319 914 l 526 914 l 526 1029 l 589 1021 l 589 914 l 683 914 m 338 39 q 447 74 401 39 q 526 181 492 110 l 526 571 q 451 654 493 624 q 350 685 408 685 q 206 602 260 685 q 151 365 151 519 q 201 122 151 206 q 338 39 250 39 z "},"ȡ":{"ha":849,"x_min":85,"x_max":883,"o":"m 761 268 q 850 233 817 268 q 883 144 883 199 q 833 28 883 72 q 706 -15 783 -15 q 594 19 639 -15 l 546 -85 l 501 -65 l 560 54 q 532 118 538 82 q 331 -15 464 -15 q 151 84 217 -15 q 85 360 85 183 q 116 560 85 474 q 206 692 147 646 q 343 739 264 739 q 526 640 456 739 l 526 1029 l 589 1021 l 589 163 q 592 124 589 149 q 665 232 626 196 q 761 268 703 268 m 338 39 q 447 74 401 39 q 526 181 492 110 l 526 571 q 451 654 493 624 q 350 685 408 685 q 206 602 260 685 q 151 365 151 519 q 201 122 151 206 q 338 39 250 39 m 707 40 q 794 67 763 40 q 826 144 826 94 q 808 198 826 178 q 758 218 789 218 q 685 185 714 218 q 618 71 657 153 q 707 40 646 40 z "},"ḋ":{"ha":725,"x_min":85,"x_max":589,"o":"m 589 1021 l 589 0 l 535 0 l 529 113 q 331 -15 461 -15 q 151 84 217 -15 q 85 360 85 183 q 116 560 85 474 q 206 692 147 646 q 343 739 264 739 q 526 640 456 739 l 526 1029 l 589 1021 m 338 39 q 447 74 401 39 q 526 181 492 110 l 526 571 q 451 654 493 624 q 350 685 408 685 q 206 602 260 685 q 151 365 151 519 q 201 122 151 206 q 338 39 250 39 m 354 1278 q 390 1264 376 1278 q 403 1231 403 1250 q 390 1197 403 1210 q 354 1183 376 1183 q 320 1197 333 1183 q 307 1231 307 1211 q 320 1264 307 1250 q 354 1278 333 1278 z "},"ḍ":{"ha":725,"x_min":85,"x_max":589,"o":"m 589 1021 l 589 0 l 535 0 l 529 113 q 331 -15 461 -15 q 151 84 217 -15 q 85 360 85 183 q 116 560 85 474 q 206 692 147 646 q 343 739 264 739 q 526 640 456 739 l 526 1029 l 589 1021 m 338 39 q 447 74 401 39 q 526 181 492 110 l 526 571 q 451 654 493 624 q 350 685 408 685 q 206 602 260 685 q 151 365 151 519 q 201 122 151 206 q 338 39 250 39 m 374 -221 q 338 -207 351 -221 q 325 -174 325 -193 q 338 -140 325 -153 q 374 -126 351 -126 q 408 -140 394 -126 q 421 -174 421 -154 q 408 -207 421 -193 q 374 -221 394 -221 z "},"ƍ":{"ha":706,"x_min":82,"x_max":624,"o":"m 421 72 q 524 -6 492 38 q 556 -110 556 -49 q 500 -237 557 -186 q 349 -289 443 -289 q 243 -273 290 -289 q 150 -224 196 -257 l 183 -182 q 262 -222 226 -210 q 344 -235 297 -235 q 453 -200 414 -235 q 492 -108 492 -165 q 478 -45 492 -71 q 428 5 464 -19 q 322 58 392 29 q 139 192 196 113 q 82 408 82 271 q 154 650 82 561 q 356 739 226 739 q 552 653 481 739 q 624 410 624 567 q 570 203 624 288 q 421 72 517 118 m 147 408 q 168 267 147 324 q 237 170 189 211 q 372 93 285 129 q 508 213 458 135 q 558 410 558 290 q 506 615 558 544 q 356 685 453 685 q 201 613 254 685 q 147 408 147 542 z "},"ʤ":{"ha":1115,"x_min":85,"x_max":1072,"o":"m 779 275 q 1072 4 1072 275 q 1000 -202 1072 -124 q 803 -281 928 -281 q 668 -251 726 -281 q 561 -164 610 -222 l 600 -129 q 694 -203 646 -181 q 803 -226 742 -226 q 954 -165 901 -226 q 1007 6 1007 -103 q 951 172 1007 121 q 775 222 896 222 l 700 222 l 700 274 l 971 669 l 589 669 l 589 0 l 535 0 l 529 113 q 331 -15 461 -15 q 151 84 217 -15 q 85 360 85 183 q 116 560 85 474 q 206 692 147 646 q 343 739 264 739 q 526 640 456 739 l 526 1029 l 589 1021 l 589 725 l 1042 725 l 1042 675 l 764 275 l 779 275 m 338 39 q 447 74 401 39 q 526 181 492 110 l 526 571 q 451 654 493 624 q 350 685 408 685 q 206 602 260 685 q 151 365 151 519 q 201 122 151 206 q 338 39 250 39 z "},"ɗ":{"ha":725,"x_min":85,"x_max":799,"o":"m 675 1029 q 799 983 744 1029 l 771 943 q 726 967 747 958 q 676 975 706 975 q 590 864 590 975 l 590 724 l 589 724 l 589 0 l 535 0 l 529 113 q 331 -15 461 -15 q 151 84 217 -15 q 85 360 85 183 q 116 560 85 474 q 206 692 147 646 q 343 739 264 739 q 526 640 456 739 l 526 728 l 528 728 l 528 863 q 567 987 528 944 q 675 1029 607 1029 m 338 39 q 447 74 401 39 q 526 181 492 110 l 526 571 q 451 654 493 624 q 350 685 408 685 q 206 602 260 685 q 151 365 151 519 q 201 122 151 206 q 338 39 250 39 z "},"ḏ":{"ha":725,"x_min":85,"x_max":589,"o":"m 589 1021 l 589 0 l 535 0 l 529 113 q 331 -15 461 -15 q 151 84 217 -15 q 85 360 85 183 q 116 560 85 474 q 206 692 147 646 q 343 739 264 739 q 526 640 456 739 l 526 1029 l 589 1021 m 338 39 q 447 74 401 39 q 526 181 492 110 l 526 571 q 451 654 493 624 q 350 685 408 685 q 206 602 260 685 q 151 365 151 519 q 201 122 151 206 q 338 39 250 39 m 519 -211 l 229 -211 l 229 -160 l 519 -160 l 519 -211 z "},"ɖ":{"ha":725,"x_min":85,"x_max":799,"o":"m 799 -236 q 674 -281 746 -281 q 567 -240 607 -281 q 526 -119 526 -199 l 526 108 q 331 -15 458 -15 q 151 84 217 -15 q 85 360 85 183 q 116 560 85 474 q 206 692 147 646 q 343 739 264 739 q 526 640 456 739 l 526 1029 l 589 1021 l 589 -121 q 676 -228 589 -228 q 726 -219 706 -228 q 771 -196 747 -211 l 799 -236 m 338 39 q 447 74 401 39 q 526 181 492 110 l 526 571 q 451 654 493 624 q 350 685 408 685 q 206 602 260 685 q 151 365 151 519 q 201 122 151 206 q 338 39 250 39 z "},"ƌ":{"ha":725,"x_min":85,"x_max":589,"o":"m 589 0 l 535 0 l 529 113 q 331 -15 461 -15 q 151 84 217 -15 q 85 360 85 183 q 116 560 85 474 q 206 692 147 646 q 343 739 264 739 q 526 640 456 739 l 526 968 l 232 968 l 232 1021 l 589 1021 l 589 0 m 338 39 q 447 74 401 39 q 526 181 492 110 l 526 571 q 451 654 493 624 q 350 685 408 685 q 206 602 260 685 q 151 365 151 519 q 201 122 151 206 q 338 39 250 39 z "},"ǳ":{"ha":1249,"x_min":85,"x_max":1206,"o":"m 589 1021 l 589 0 l 535 0 l 529 113 q 331 -15 461 -15 q 151 84 217 -15 q 85 360 85 183 q 116 560 85 474 q 206 692 147 646 q 343 739 264 739 q 526 640 456 739 l 526 1029 l 589 1021 m 338 39 q 447 74 401 39 q 526 181 492 110 l 526 571 q 451 654 493 624 q 350 685 408 685 q 206 602 260 685 q 151 365 151 519 q 201 122 151 206 q 338 39 250 39 m 1206 725 l 1206 675 l 831 56 l 1201 56 l 1194 0 l 760 0 l 760 50 l 1135 669 l 790 669 l 790 725 l 1206 725 z "},"ʣ":{"ha":1088,"x_min":85,"x_max":1044,"o":"m 1044 675 l 658 56 l 1040 56 l 1035 0 l 535 0 l 529 113 q 331 -15 461 -15 q 151 84 217 -15 q 85 360 85 183 q 116 560 85 474 q 206 692 147 646 q 343 739 264 739 q 526 640 456 739 l 526 1029 l 589 1021 l 589 725 l 1044 725 l 1044 675 m 338 39 q 447 74 401 39 q 526 181 492 110 l 526 571 q 451 654 493 624 q 350 685 408 685 q 206 602 260 685 q 151 365 151 519 q 201 122 151 206 q 338 39 250 39 m 589 50 l 975 669 l 589 669 l 589 50 z "},"ǆ":{"ha":1249,"x_min":85,"x_max":1206,"o":"m 589 1021 l 589 0 l 535 0 l 529 113 q 331 -15 461 -15 q 151 84 217 -15 q 85 360 85 183 q 116 560 85 474 q 206 692 147 646 q 343 739 264 739 q 526 640 456 739 l 526 1029 l 589 1021 m 338 39 q 447 74 401 39 q 526 181 492 110 l 526 571 q 451 654 493 624 q 350 685 408 685 q 206 602 260 685 q 151 365 151 519 q 201 122 151 206 q 338 39 250 39 m 1206 725 l 1206 675 l 831 56 l 1201 56 l 1194 0 l 760 0 l 760 50 l 1135 669 l 790 669 l 790 725 l 1206 725 m 1144 1058 l 1172 1028 l 1013 882 l 975 882 l 815 1028 l 844 1058 l 994 940 l 1144 1058 z "},"ʥ":{"ha":1101,"x_min":85,"x_max":1126,"o":"m 1126 153 q 1069 38 1126 74 q 892 0 1013 1 q 889 -89 889 -61 l 890 -149 l 840 -149 l 839 -87 q 842 0 839 -58 l 535 0 l 529 113 q 331 -15 461 -15 q 151 84 217 -15 q 85 360 85 183 q 116 560 85 474 q 206 692 147 646 q 343 739 264 739 q 526 640 456 739 l 526 1029 l 589 1021 l 589 725 l 1046 725 l 1046 675 l 658 56 l 847 56 q 899 221 858 164 q 1007 278 939 278 q 1093 244 1060 278 q 1126 153 1126 210 m 338 39 q 447 74 401 39 q 526 181 492 110 l 526 571 q 451 654 493 624 q 350 685 408 685 q 206 602 260 685 q 151 365 151 519 q 201 122 151 206 q 338 39 250 39 m 589 669 l 589 53 l 975 669 l 589 669 m 1004 229 q 897 56 913 229 q 1031 77 992 54 q 1071 153 1071 100 q 1053 209 1071 189 q 1004 229 1036 229 z "},"e":{"ha":668,"x_min":82,"x_max":593,"o":"m 593 392 q 590 335 593 363 l 147 335 q 209 111 153 182 q 358 40 265 40 q 451 57 411 40 q 535 111 490 74 l 567 72 q 469 7 519 29 q 357 -15 418 -15 q 156 81 229 -15 q 82 357 82 178 q 152 638 82 538 q 343 739 222 739 q 529 648 465 739 q 593 392 593 557 m 531 413 q 485 614 531 543 q 344 685 439 685 q 206 613 258 685 q 147 385 153 540 l 531 385 l 531 413 z "},"é":{"ha":668,"x_min":82,"x_max":593,"o":"m 593 392 q 590 335 593 363 l 147 335 q 209 111 153 182 q 358 40 265 40 q 451 57 411 40 q 535 111 490 74 l 567 72 q 469 7 519 29 q 357 -15 418 -15 q 156 81 229 -15 q 82 357 82 178 q 152 638 82 538 q 343 739 222 739 q 529 648 465 739 q 593 392 593 557 m 531 413 q 485 614 531 543 q 344 685 439 685 q 206 613 258 685 q 147 385 153 540 l 531 385 l 531 413 m 435 1074 l 464 1017 l 225 900 l 204 936 l 435 1074 z "},"ĕ":{"ha":668,"x_min":82,"x_max":593,"o":"m 593 392 q 590 335 593 363 l 147 335 q 209 111 153 182 q 358 40 265 40 q 451 57 411 40 q 535 111 490 74 l 567 72 q 469 7 519 29 q 357 -15 418 -15 q 156 81 229 -15 q 82 357 82 178 q 152 638 82 538 q 343 739 222 739 q 529 648 465 739 q 593 392 593 557 m 531 413 q 485 614 531 543 q 344 685 439 685 q 206 613 258 685 q 147 385 153 540 l 531 385 l 531 413 m 344 913 q 240 950 282 913 q 189 1054 197 988 l 232 1064 q 344 965 254 965 q 458 1064 433 965 l 500 1054 q 451 951 493 989 q 344 913 408 913 z "},"ě":{"ha":668,"x_min":82,"x_max":593,"o":"m 593 392 q 590 335 593 363 l 147 335 q 209 111 153 182 q 358 40 265 40 q 451 57 411 40 q 535 111 490 74 l 567 72 q 469 7 519 29 q 357 -15 418 -15 q 156 81 229 -15 q 82 357 82 178 q 152 638 82 538 q 343 739 222 739 q 529 648 465 739 q 593 392 593 557 m 531 413 q 485 614 531 543 q 344 685 439 685 q 206 613 258 685 q 147 385 153 540 l 531 385 l 531 413 m 494 1058 l 522 1028 l 363 882 l 325 882 l 165 1028 l 194 1058 l 344 940 l 494 1058 z "},"ȩ":{"ha":668,"x_min":82,"x_max":593,"o":"m 593 392 q 590 335 593 363 l 147 335 q 209 111 153 182 q 358 40 265 40 q 451 57 411 40 q 535 111 490 74 l 567 72 q 478 11 524 33 q 378 -15 433 -11 l 378 -94 q 492 -196 492 -104 q 456 -278 492 -249 q 367 -308 419 -308 q 269 -281 310 -308 l 292 -240 q 365 -261 325 -261 q 416 -244 396 -261 q 436 -196 436 -228 q 409 -148 436 -164 q 324 -132 382 -132 l 332 -14 q 149 92 215 -4 q 82 357 82 188 q 152 638 82 538 q 343 739 222 739 q 529 648 465 739 q 593 392 593 557 m 531 413 q 485 614 531 543 q 344 685 439 685 q 206 613 258 685 q 147 385 153 540 l 531 385 l 531 413 z "},"ê":{"ha":668,"x_min":82,"x_max":593,"o":"m 593 392 q 590 335 593 363 l 147 335 q 209 111 153 182 q 358 40 265 40 q 451 57 411 40 q 535 111 490 74 l 567 72 q 469 7 519 29 q 357 -15 418 -15 q 156 81 229 -15 q 82 357 82 178 q 152 638 82 538 q 343 739 222 739 q 529 648 465 739 q 593 392 593 557 m 531 413 q 485 614 531 543 q 344 685 439 685 q 206 613 258 685 q 147 385 153 540 l 531 385 l 531 413 m 193 900 l 165 931 l 325 1076 l 363 1076 l 522 931 l 493 900 l 343 1018 l 193 900 z "},"ế":{"ha":668,"x_min":82,"x_max":631,"o":"m 593 392 q 590 335 593 363 l 147 335 q 209 111 153 182 q 358 40 265 40 q 451 57 411 40 q 535 111 490 74 l 567 72 q 469 7 519 29 q 357 -15 418 -15 q 156 81 229 -15 q 82 357 82 178 q 152 638 82 538 q 343 739 222 739 q 529 648 465 739 q 593 392 593 557 m 531 413 q 485 614 531 543 q 344 685 439 685 q 206 613 258 685 q 147 385 153 540 l 531 385 l 531 413 m 193 814 l 164 846 l 324 983 l 361 983 l 521 846 l 493 814 l 343 925 l 193 814 m 585 1154 l 631 1115 l 482 949 l 451 975 l 585 1154 z "},"ệ":{"ha":668,"x_min":82,"x_max":593,"o":"m 593 392 q 590 335 593 363 l 147 335 q 209 111 153 182 q 358 40 265 40 q 451 57 411 40 q 535 111 490 74 l 567 72 q 469 7 519 29 q 357 -15 418 -15 q 156 81 229 -15 q 82 357 82 178 q 152 638 82 538 q 343 739 222 739 q 529 648 465 739 q 593 392 593 557 m 531 413 q 485 614 531 543 q 344 685 439 685 q 206 613 258 685 q 147 385 153 540 l 531 385 l 531 413 m 193 900 l 165 931 l 325 1076 l 363 1076 l 522 931 l 493 900 l 343 1018 l 193 900 m 361 -221 q 326 -207 339 -221 q 313 -174 313 -193 q 326 -140 313 -153 q 361 -126 339 -126 q 395 -140 382 -126 q 408 -174 408 -154 q 395 -207 408 -193 q 361 -221 382 -221 z "},"ề":{"ha":668,"x_min":61,"x_max":593,"o":"m 593 392 q 590 335 593 363 l 147 335 q 209 111 153 182 q 358 40 265 40 q 451 57 411 40 q 535 111 490 74 l 567 72 q 469 7 519 29 q 357 -15 418 -15 q 156 81 229 -15 q 82 357 82 178 q 152 638 82 538 q 343 739 222 739 q 529 648 465 739 q 593 392 593 557 m 531 413 q 485 614 531 543 q 344 685 439 685 q 206 613 258 685 q 147 385 153 540 l 531 385 l 531 413 m 193 814 l 164 846 l 324 983 l 361 983 l 521 846 l 493 814 l 343 925 l 193 814 m 107 1154 l 240 975 l 208 949 l 61 1115 l 107 1154 z "},"ể":{"ha":668,"x_min":82,"x_max":613,"o":"m 593 392 q 590 335 593 363 l 147 335 q 209 111 153 182 q 358 40 265 40 q 451 57 411 40 q 535 111 490 74 l 567 72 q 469 7 519 29 q 357 -15 418 -15 q 156 81 229 -15 q 82 357 82 178 q 152 638 82 538 q 343 739 222 739 q 529 648 465 739 q 593 392 593 557 m 531 413 q 485 614 531 543 q 344 685 439 685 q 206 613 258 685 q 147 385 153 540 l 531 385 l 531 413 m 193 814 l 164 846 l 324 983 l 361 983 l 521 846 l 493 814 l 343 925 l 193 814 m 468 1050 q 533 1068 511 1053 q 554 1118 554 1083 q 538 1161 554 1146 q 494 1176 522 1176 q 424 1158 460 1176 l 404 1197 q 501 1225 450 1225 q 583 1197 553 1225 q 613 1121 613 1168 q 521 1018 613 1031 l 521 942 l 468 942 l 468 1050 z "},"ễ":{"ha":668,"x_min":82,"x_max":593,"o":"m 593 392 q 590 335 593 363 l 147 335 q 209 111 153 182 q 358 40 265 40 q 451 57 411 40 q 535 111 490 74 l 567 72 q 469 7 519 29 q 357 -15 418 -15 q 156 81 229 -15 q 82 357 82 178 q 152 638 82 538 q 343 739 222 739 q 529 648 465 739 q 593 392 593 557 m 531 413 q 485 614 531 543 q 344 685 439 685 q 206 613 258 685 q 147 385 153 540 l 531 385 l 531 413 m 194 800 l 165 832 l 325 969 l 363 969 l 522 832 l 494 800 l 344 911 l 194 800 m 418 1029 q 375 1038 394 1029 q 331 1064 356 1047 q 297 1084 311 1078 q 271 1090 283 1090 q 233 1078 250 1090 q 199 1038 217 1065 l 161 1058 q 269 1140 207 1140 q 307 1132 289 1140 q 349 1108 325 1124 q 387 1086 372 1093 q 417 1079 401 1079 q 452 1093 436 1079 q 488 1139 468 1107 l 526 1119 q 418 1029 485 1029 z "},"ȅ":{"ha":668,"x_min":82,"x_max":593,"o":"m 593 392 q 590 335 593 363 l 147 335 q 209 111 153 182 q 358 40 265 40 q 451 57 411 40 q 535 111 490 74 l 567 72 q 469 7 519 29 q 357 -15 418 -15 q 156 81 229 -15 q 82 357 82 178 q 152 638 82 538 q 343 739 222 739 q 529 648 465 739 q 593 392 593 557 m 531 413 q 485 614 531 543 q 344 685 439 685 q 206 613 258 685 q 147 385 153 540 l 531 385 l 531 413 m 207 1115 l 303 915 l 263 896 l 151 1086 l 207 1115 m 361 1114 l 449 921 l 408 903 l 306 1085 l 361 1114 z "},"ë":{"ha":668,"x_min":82,"x_max":593,"o":"m 593 392 q 590 335 593 363 l 147 335 q 209 111 153 182 q 358 40 265 40 q 451 57 411 40 q 535 111 490 74 l 567 72 q 469 7 519 29 q 357 -15 418 -15 q 156 81 229 -15 q 82 357 82 178 q 152 638 82 538 q 343 739 222 739 q 529 648 465 739 q 593 392 593 557 m 531 413 q 485 614 531 543 q 344 685 439 685 q 206 613 258 685 q 147 385 153 540 l 531 385 l 531 413 m 228 1017 q 261 1003 249 1017 q 274 971 274 990 q 261 938 274 951 q 228 925 249 925 q 196 938 208 925 q 183 971 183 951 q 196 1003 183 990 q 228 1017 208 1017 m 458 1017 q 490 1003 478 1017 q 503 971 503 990 q 490 938 503 951 q 458 925 478 925 q 426 938 439 925 q 413 971 413 951 q 426 1003 413 990 q 458 1017 439 1017 z "},"ė":{"ha":668,"x_min":82,"x_max":593,"o":"m 593 392 q 590 335 593 363 l 147 335 q 209 111 153 182 q 358 40 265 40 q 451 57 411 40 q 535 111 490 74 l 567 72 q 469 7 519 29 q 357 -15 418 -15 q 156 81 229 -15 q 82 357 82 178 q 152 638 82 538 q 343 739 222 739 q 529 648 465 739 q 593 392 593 557 m 531 413 q 485 614 531 543 q 344 685 439 685 q 206 613 258 685 q 147 385 153 540 l 531 385 l 531 413 m 343 1032 q 378 1018 365 1032 q 392 985 392 1004 q 378 951 392 964 q 343 938 365 938 q 309 951 322 938 q 296 985 296 965 q 309 1018 296 1004 q 343 1032 322 1032 z "},"ẹ":{"ha":668,"x_min":82,"x_max":593,"o":"m 593 392 q 590 335 593 363 l 147 335 q 209 111 153 182 q 358 40 265 40 q 451 57 411 40 q 535 111 490 74 l 567 72 q 469 7 519 29 q 357 -15 418 -15 q 156 81 229 -15 q 82 357 82 178 q 152 638 82 538 q 343 739 222 739 q 529 648 465 739 q 593 392 593 557 m 531 413 q 485 614 531 543 q 344 685 439 685 q 206 613 258 685 q 147 385 153 540 l 531 385 l 531 413 m 361 -221 q 326 -207 339 -221 q 313 -174 313 -193 q 326 -140 313 -153 q 361 -126 339 -126 q 395 -140 382 -126 q 408 -174 408 -154 q 395 -207 408 -193 q 361 -221 382 -221 z "},"è":{"ha":668,"x_min":82,"x_max":593,"o":"m 593 392 q 590 335 593 363 l 147 335 q 209 111 153 182 q 358 40 265 40 q 451 57 411 40 q 535 111 490 74 l 567 72 q 469 7 519 29 q 357 -15 418 -15 q 156 81 229 -15 q 82 357 82 178 q 152 638 82 538 q 343 739 222 739 q 529 648 465 739 q 593 392 593 557 m 531 413 q 485 614 531 543 q 344 685 439 685 q 206 613 258 685 q 147 385 153 540 l 531 385 l 531 413 m 249 1074 l 479 936 l 457 900 l 218 1017 l 249 1074 z "},"ẻ":{"ha":668,"x_min":82,"x_max":593,"o":"m 593 392 q 590 335 593 363 l 147 335 q 209 111 153 182 q 358 40 265 40 q 451 57 411 40 q 535 111 490 74 l 567 72 q 469 7 519 29 q 357 -15 418 -15 q 156 81 229 -15 q 82 357 82 178 q 152 638 82 538 q 343 739 222 739 q 529 648 465 739 q 593 392 593 557 m 531 413 q 485 614 531 543 q 344 685 439 685 q 206 613 258 685 q 147 385 153 540 l 531 385 l 531 413 m 318 968 q 383 986 361 971 q 404 1036 404 1001 q 388 1079 404 1064 q 344 1094 372 1094 q 274 1076 310 1094 l 254 1115 q 351 1143 300 1143 q 433 1115 403 1143 q 463 1039 463 1086 q 371 936 463 949 l 371 860 l 318 860 l 318 968 z "},"ȇ":{"ha":668,"x_min":82,"x_max":593,"o":"m 593 392 q 590 335 593 363 l 147 335 q 209 111 153 182 q 358 40 265 40 q 451 57 411 40 q 535 111 490 74 l 567 72 q 469 7 519 29 q 357 -15 418 -15 q 156 81 229 -15 q 82 357 82 178 q 152 638 82 538 q 343 739 222 739 q 529 648 465 739 q 593 392 593 557 m 531 413 q 485 614 531 543 q 344 685 439 685 q 206 613 258 685 q 147 385 153 540 l 531 385 l 531 413 m 344 1021 q 451 983 408 1021 q 500 879 493 944 l 458 869 q 344 968 433 968 q 232 869 254 968 l 189 879 q 240 983 197 946 q 344 1021 282 1021 z "},"ē":{"ha":668,"x_min":82,"x_max":593,"o":"m 593 392 q 590 335 593 363 l 147 335 q 209 111 153 182 q 358 40 265 40 q 451 57 411 40 q 535 111 490 74 l 567 72 q 469 7 519 29 q 357 -15 418 -15 q 156 81 229 -15 q 82 357 82 178 q 152 638 82 538 q 343 739 222 739 q 529 648 465 739 q 593 392 593 557 m 531 413 q 485 614 531 543 q 344 685 439 685 q 206 613 258 685 q 147 385 153 540 l 531 385 l 531 413 m 490 944 l 200 944 l 200 996 l 490 996 l 490 944 z "},"ę":{"ha":668,"x_min":82,"x_max":593,"o":"m 593 392 q 590 335 593 363 l 147 335 q 209 111 153 182 q 358 40 265 40 q 451 57 411 40 q 535 111 490 74 l 567 72 q 458 3 515 25 q 347 -73 381 -37 q 314 -158 314 -108 q 335 -213 314 -193 q 397 -233 357 -233 q 467 -224 428 -233 l 461 -279 q 389 -287 424 -287 q 290 -253 325 -287 q 256 -165 256 -219 q 358 -15 256 -74 l 357 -15 q 156 81 229 -15 q 82 357 82 178 q 152 638 82 538 q 343 739 222 739 q 529 648 465 739 q 593 392 593 557 m 531 413 q 485 614 531 543 q 344 685 439 685 q 206 613 258 685 q 147 385 153 540 l 531 385 l 531 413 z "},"ɛ":{"ha":572,"x_min":82,"x_max":540,"o":"m 325 739 q 435 722 388 739 q 522 675 482 706 l 492 633 q 417 672 454 658 q 329 685 379 685 q 213 648 254 685 q 172 547 172 611 q 216 445 172 485 q 333 406 260 406 l 407 406 l 399 353 l 328 353 q 192 314 236 353 q 147 194 147 275 q 194 81 147 121 q 322 40 242 40 q 423 58 382 40 q 507 113 464 76 l 540 72 q 319 -15 449 -15 q 148 41 214 -15 q 82 194 82 97 q 127 327 82 281 q 249 383 172 374 q 108 549 108 417 q 169 688 108 636 q 325 739 229 739 z "},"ʚ":{"ha":694,"x_min":83,"x_max":613,"o":"m 331 -15 q 150 43 217 -15 q 83 208 83 101 q 128 335 83 293 q 256 386 172 376 q 117 547 117 414 q 176 686 117 633 q 331 739 235 739 q 538 641 463 739 q 613 361 613 543 q 540 82 613 179 q 331 -15 467 -15 m 331 40 q 547 361 547 40 q 491 605 547 525 q 331 685 435 685 q 220 647 260 685 q 181 546 181 608 q 224 443 181 479 q 350 407 268 407 l 382 407 l 386 356 l 340 356 q 198 322 247 356 q 149 208 149 288 q 197 81 149 121 q 331 40 244 40 z "},"ɜ":{"ha":597,"x_min":32,"x_max":514,"o":"m 272 739 q 422 688 364 739 q 481 550 481 638 q 445 441 481 481 q 340 386 410 401 q 469 334 425 376 q 514 208 514 292 q 447 43 514 101 q 271 -15 381 -15 q 32 81 133 -15 l 67 118 q 159 60 113 79 q 269 40 206 40 q 401 81 353 40 q 449 208 449 121 q 399 322 449 288 q 250 356 349 356 l 178 356 l 182 407 l 242 407 q 372 444 328 407 q 417 549 417 481 q 377 649 417 613 q 268 685 338 685 q 171 670 211 685 q 83 624 131 656 l 53 664 q 155 720 103 701 q 272 739 207 739 z "},"ɞ":{"ha":694,"x_min":82,"x_max":611,"o":"m 364 -15 q 155 82 228 -15 q 82 361 82 179 q 157 641 82 543 q 364 739 232 739 q 519 686 460 739 q 578 547 578 633 q 439 386 578 414 q 567 335 522 376 q 611 208 611 293 q 544 43 611 101 q 364 -15 478 -15 m 364 40 q 498 81 450 40 q 546 208 546 121 q 497 322 546 288 q 354 356 447 356 l 308 356 l 313 407 l 344 407 q 470 443 426 407 q 514 546 514 479 q 474 647 514 608 q 364 685 435 685 q 203 605 260 685 q 147 361 147 525 q 364 40 147 40 z "},"ɝ":{"ha":817,"x_min":32,"x_max":854,"o":"m 854 499 q 731 454 801 454 q 625 494 664 454 q 586 611 586 535 l 586 669 l 472 607 q 481 550 481 581 q 445 441 481 481 q 340 386 410 401 q 469 334 425 376 q 514 208 514 292 q 447 43 514 101 q 271 -15 381 -15 q 32 81 133 -15 l 67 118 q 159 60 113 79 q 269 40 206 40 q 401 81 353 40 q 449 208 449 121 q 399 322 449 288 q 250 356 349 356 l 178 356 l 182 407 l 242 407 q 372 444 328 407 q 417 549 417 481 q 377 649 417 613 q 268 685 338 685 q 171 670 211 685 q 83 624 131 656 l 53 664 q 155 720 103 701 q 272 739 207 739 q 379 717 332 739 q 453 653 426 694 l 586 725 l 646 725 l 646 617 q 733 507 646 507 q 783 515 763 507 q 826 539 804 524 l 854 499 z "},"ɘ":{"ha":668,"x_min":75,"x_max":586,"o":"m 329 739 q 520 643 454 739 q 586 357 586 547 q 513 82 586 179 q 311 -15 439 -15 q 198 7 249 -15 q 101 72 147 29 l 133 111 q 217 57 178 74 q 311 40 256 40 q 460 111 404 40 q 521 335 515 182 l 78 335 q 75 392 75 363 q 141 648 75 557 q 329 739 207 739 m 138 385 l 521 385 q 467 616 517 547 q 329 685 418 685 q 186 613 235 685 q 138 413 138 542 l 138 385 z "},"ʃ":{"ha":335,"x_min":-74,"x_max":407,"o":"m 283 1029 q 407 983 353 1029 l 379 943 q 335 967 356 958 q 285 975 314 975 q 199 864 199 975 l 199 -119 q 158 -240 199 -199 q 51 -281 118 -281 q -74 -236 -21 -281 l -46 -196 q -1 -219 -22 -211 q 49 -228 19 -228 q 136 -121 136 -228 l 136 863 q 176 987 136 944 q 283 1029 215 1029 z "},"ʆ":{"ha":354,"x_min":-103,"x_max":426,"o":"m 218 -28 q 347 -81 294 -53 l 329 -121 q 218 -75 276 -94 q 169 -227 215 -174 q 39 -281 124 -281 q -65 -245 -26 -281 q -103 -151 -103 -210 q -58 -46 -103 -83 q 64 -8 -12 -8 q 156 -17 118 -8 l 156 863 q 195 987 156 944 q 303 1029 235 1029 q 426 983 372 1029 l 399 943 q 354 967 375 958 q 304 975 333 975 q 218 864 218 975 l 218 -28 m 39 -233 q 126 -192 97 -233 q 156 -64 154 -150 q 64 -54 115 -54 q -20 -79 8 -54 q -49 -149 -49 -104 q -26 -210 -49 -187 q 39 -233 -3 -233 z "},"ƪ":{"ha":351,"x_min":-62,"x_max":425,"o":"m 425 -236 q 300 -281 372 -281 q 193 -240 233 -281 q 153 -119 153 -199 l 153 725 q 76 707 117 707 q -24 748 14 707 q -62 865 -62 789 q -24 985 -62 942 q 78 1029 15 1029 q 178 988 142 1029 q 215 876 215 947 l 215 -121 q 303 -228 215 -228 q 353 -219 332 -228 q 397 -196 374 -211 l 425 -236 m 82 760 q 153 776 117 760 l 153 878 q 133 951 153 926 q 78 976 114 976 q 19 948 40 976 q -1 867 -1 919 q 82 760 -1 760 z "},"ʅ":{"ha":488,"x_min":3,"x_max":483,"o":"m 483 31 q 358 -14 431 -14 q 251 27 292 -14 q 211 147 211 68 l 211 268 l 213 268 l 213 433 l 211 433 l 211 574 q 125 685 211 685 q 75 676 96 685 q 31 653 54 668 l 3 693 q 126 739 57 739 q 234 697 194 739 q 274 572 274 654 l 274 435 l 275 435 l 275 267 l 274 267 l 274 146 q 361 39 274 39 q 411 47 390 39 q 456 71 432 56 l 483 31 z "},"ɇ":{"ha":668,"x_min":82,"x_max":593,"o":"m 346 335 l 276 57 q 358 40 314 40 q 451 58 411 40 q 535 113 490 75 l 567 74 q 469 7 519 29 q 357 -15 419 -15 q 263 0 308 -15 l 239 -97 l 203 -89 l 229 17 q 120 142 158 56 q 82 357 82 229 q 153 638 82 536 q 343 739 224 739 q 406 732 374 739 l 428 821 l 464 811 l 442 721 q 555 603 517 688 q 593 392 593 519 q 590 335 593 363 l 346 335 m 344 685 q 206 613 258 685 q 147 385 153 540 l 319 385 l 393 679 q 344 685 372 685 m 531 413 q 428 665 531 613 l 358 385 l 531 385 l 531 413 m 307 335 l 147 335 q 243 76 156 146 l 307 335 z "},"ẽ":{"ha":668,"x_min":82,"x_max":593,"o":"m 593 392 q 590 335 593 363 l 147 335 q 209 111 153 182 q 358 40 265 40 q 451 57 411 40 q 535 111 490 74 l 567 72 q 469 7 519 29 q 357 -15 418 -15 q 156 81 229 -15 q 82 357 82 178 q 152 638 82 538 q 343 739 222 739 q 529 648 465 739 q 593 392 593 557 m 531 413 q 485 614 531 543 q 344 685 439 685 q 206 613 258 685 q 147 385 153 540 l 531 385 l 531 413 m 418 932 q 375 941 394 932 q 331 967 356 950 q 297 987 311 981 q 271 993 283 993 q 233 981 250 993 q 199 940 217 968 l 161 961 q 269 1043 207 1043 q 307 1035 289 1043 q 349 1011 325 1026 q 387 989 372 996 q 417 982 401 982 q 452 996 436 982 q 488 1042 468 1010 l 526 1022 q 418 932 485 932 z "},"ǝ":{"ha":674,"x_min":75,"x_max":592,"o":"m 333 739 q 526 647 460 739 q 592 367 592 554 q 522 78 592 172 q 331 -15 453 -15 q 143 77 211 -15 q 75 340 75 169 q 78 390 75 363 l 526 390 q 333 685 521 685 q 240 668 282 685 q 150 617 197 651 l 119 658 q 333 739 213 739 m 331 39 q 475 109 425 39 q 526 339 525 179 l 138 339 l 138 331 q 188 112 138 185 q 331 39 238 39 z "},"ə":{"ha":674,"x_min":75,"x_max":592,"o":"m 333 739 q 526 647 460 739 q 592 367 592 554 q 522 78 592 172 q 331 -15 453 -15 q 143 77 211 -15 q 75 340 75 169 q 78 390 75 363 l 526 390 q 333 685 521 685 q 240 668 282 685 q 150 617 197 651 l 119 658 q 333 739 213 739 m 331 39 q 475 109 425 39 q 526 339 525 179 l 138 339 l 138 331 q 188 112 138 185 q 331 39 238 39 z "},"ɚ":{"ha":890,"x_min":75,"x_max":928,"o":"m 928 499 q 804 454 875 454 q 699 494 738 454 q 660 611 660 535 l 660 669 l 549 608 q 592 367 592 515 q 522 78 592 172 q 331 -15 453 -15 q 143 77 211 -15 q 75 340 75 169 q 78 390 75 363 l 526 390 q 333 685 521 685 q 240 668 282 685 q 150 617 197 651 l 119 658 q 333 739 213 739 q 522 650 458 739 l 660 725 l 719 725 l 719 617 q 807 507 719 507 q 857 515 836 507 q 900 539 878 524 l 928 499 m 331 39 q 475 109 425 39 q 526 339 525 179 l 138 339 l 138 331 q 188 112 138 185 q 331 39 238 39 z "},"ʒ":{"ha":571,"x_min":17,"x_max":528,"o":"m 235 275 q 528 4 528 275 q 456 -202 528 -124 q 258 -281 383 -281 q 124 -251 182 -281 q 17 -164 65 -222 l 56 -129 q 149 -203 101 -181 q 258 -226 197 -226 q 410 -165 357 -226 q 463 6 463 -103 q 407 172 463 121 q 231 222 351 222 l 156 222 l 156 274 l 426 669 l 43 669 l 43 725 l 497 725 l 497 675 l 219 275 l 235 275 z "},"ǯ":{"ha":571,"x_min":17,"x_max":528,"o":"m 235 275 q 528 4 528 275 q 456 -202 528 -124 q 258 -281 383 -281 q 124 -251 182 -281 q 17 -164 65 -222 l 56 -129 q 149 -203 101 -181 q 258 -226 197 -226 q 410 -165 357 -226 q 463 6 463 -103 q 407 172 463 121 q 231 222 351 222 l 156 222 l 156 274 l 426 669 l 43 669 l 43 725 l 497 725 l 497 675 l 219 275 l 235 275 m 421 1058 l 449 1028 l 289 882 l 251 882 l 92 1028 l 121 1058 l 271 940 l 421 1058 z "},"ʓ":{"ha":571,"x_min":-15,"x_max":528,"o":"m 528 10 q 484 -153 528 -85 q 357 -256 440 -222 l 390 -333 l 343 -353 l 308 -269 q 206 -281 260 -281 q 40 -238 96 -281 q -15 -118 -15 -196 q 22 -15 -15 -54 q 121 25 60 25 q 201 5 167 25 q 267 -65 235 -15 q 335 -206 300 -115 q 464 10 464 -153 q 407 172 464 121 q 229 222 350 222 l 156 222 l 156 274 l 426 669 l 43 669 l 43 725 l 497 725 l 497 675 l 219 275 l 238 275 q 528 10 528 275 m 40 -117 q 84 -201 40 -176 q 207 -226 128 -226 q 288 -219 246 -226 q 206 -66 242 -107 q 124 -25 171 -25 q 63 -49 85 -25 q 40 -117 40 -74 z "},"ƹ":{"ha":571,"x_min":42,"x_max":553,"o":"m 553 -164 q 445 -251 504 -222 q 307 -281 386 -281 q 113 -206 185 -281 q 42 -8 42 -131 q 115 199 42 124 q 336 275 189 275 l 350 275 l 72 675 l 72 725 l 526 725 l 526 669 l 144 669 l 415 274 l 415 222 l 340 222 q 165 165 222 222 q 107 -7 107 108 q 158 -168 107 -110 q 307 -226 210 -226 q 421 -204 372 -226 q 514 -131 469 -182 l 553 -164 z "},"ƺ":{"ha":565,"x_min":40,"x_max":525,"o":"m 182 -282 q 76 -209 111 -249 q 42 -115 42 -169 q 94 -16 42 -51 q 257 36 146 19 q 375 65 332 49 q 439 114 418 82 q 460 200 460 146 q 423 293 460 264 q 314 322 386 322 l 143 322 l 143 375 l 410 669 l 40 669 l 40 725 l 488 725 l 488 675 l 213 375 l 317 375 q 472 329 418 375 q 525 199 525 283 q 466 53 525 100 q 282 -15 407 6 q 145 -51 185 -31 q 106 -118 106 -72 q 128 -181 106 -156 q 203 -237 150 -207 l 182 -282 z "},"f":{"ha":399,"x_min":31,"x_max":469,"o":"m 322 975 q 204 854 204 975 l 204 725 l 381 725 l 372 672 l 204 672 l 204 0 l 142 0 l 142 672 l 31 672 l 31 725 l 142 725 l 142 858 q 189 983 142 938 q 318 1029 236 1029 q 469 989 396 1029 l 446 943 q 322 975 382 975 z "},"ḟ":{"ha":399,"x_min":31,"x_max":469,"o":"m 322 975 q 204 854 204 975 l 204 725 l 381 725 l 372 672 l 204 672 l 204 0 l 142 0 l 142 672 l 31 672 l 31 725 l 142 725 l 142 858 q 189 983 142 938 q 318 1029 236 1029 q 469 989 396 1029 l 446 943 q 322 975 382 975 m 317 1278 q 352 1264 339 1278 q 365 1231 365 1250 q 352 1197 365 1210 q 317 1183 339 1183 q 283 1197 296 1183 q 269 1231 269 1211 q 283 1264 269 1250 q 317 1278 296 1278 z "},"ʩ":{"ha":1083,"x_min":31,"x_max":956,"o":"m 956 1 l 956 -119 q 915 -240 956 -199 q 808 -281 875 -281 q 683 -236 736 -281 l 711 -196 q 756 -219 735 -211 q 806 -228 776 -228 q 893 -121 893 -228 l 893 0 l 892 0 l 892 515 q 765 686 892 686 q 649 644 701 686 q 553 526 597 603 l 553 0 l 490 0 l 490 672 l 204 672 l 204 0 l 142 0 l 142 672 l 31 672 l 31 725 l 142 725 l 142 858 q 189 983 142 938 q 318 1029 236 1029 q 469 989 396 1029 l 446 943 q 322 975 382 975 q 204 854 204 975 l 204 725 l 544 725 l 550 594 q 775 739 640 739 q 908 683 863 739 q 954 524 954 626 l 954 1 l 956 1 z "},"g":{"ha":624,"x_min":44,"x_max":610,"o":"m 610 717 q 433 696 556 699 q 543 493 543 639 q 481 322 543 385 q 310 258 418 258 q 225 272 261 258 q 184 233 199 257 q 169 183 169 210 q 285 101 169 101 l 378 101 q 535 52 478 101 q 592 -76 592 3 q 522 -226 592 -172 q 314 -281 451 -281 q 108 -232 171 -281 q 44 -78 44 -183 l 101 -78 q 151 -194 104 -160 q 314 -228 197 -228 q 528 -81 528 -228 q 487 14 528 -19 q 369 47 446 47 l 281 47 q 153 81 197 47 q 110 171 110 115 q 182 292 110 242 q 72 497 72 354 q 137 673 72 607 q 310 739 201 739 q 482 747 429 738 q 590 778 535 756 l 610 717 m 310 689 q 180 638 224 689 q 136 497 136 588 q 183 357 136 407 q 308 307 229 307 q 435 354 392 307 q 479 494 479 401 q 437 637 479 585 q 310 689 394 689 z "},"ǵ":{"ha":624,"x_min":44,"x_max":610,"o":"m 610 717 q 433 696 556 699 q 543 493 543 639 q 481 322 543 385 q 310 258 418 258 q 225 272 261 258 q 184 233 199 257 q 169 183 169 210 q 285 101 169 101 l 378 101 q 535 52 478 101 q 592 -76 592 3 q 522 -226 592 -172 q 314 -281 451 -281 q 108 -232 171 -281 q 44 -78 44 -183 l 101 -78 q 151 -194 104 -160 q 314 -228 197 -228 q 528 -81 528 -228 q 487 14 528 -19 q 369 47 446 47 l 281 47 q 153 81 197 47 q 110 171 110 115 q 182 292 110 242 q 72 497 72 354 q 137 673 72 607 q 310 739 201 739 q 482 747 429 738 q 590 778 535 756 l 610 717 m 310 689 q 180 638 224 689 q 136 497 136 588 q 183 357 136 407 q 308 307 229 307 q 435 354 392 307 q 479 494 479 401 q 437 637 479 585 q 310 689 394 689 m 403 1074 l 432 1017 l 193 900 l 172 936 l 403 1074 z "},"ɣ":{"ha":583,"x_min":24,"x_max":560,"o":"m 326 69 q 383 -64 365 -10 q 401 -168 401 -118 q 373 -250 401 -219 q 293 -281 344 -281 q 213 -251 242 -281 q 185 -168 185 -221 q 203 -65 185 -121 q 258 68 221 -10 l 24 725 l 90 725 l 293 115 l 494 725 l 560 725 l 326 69 m 343 -165 q 331 -85 343 -125 q 293 24 319 -44 q 253 -84 265 -44 q 242 -165 242 -124 q 293 -229 242 -229 q 343 -165 343 -229 z "},"ğ":{"ha":624,"x_min":44,"x_max":610,"o":"m 610 717 q 433 696 556 699 q 543 493 543 639 q 481 322 543 385 q 310 258 418 258 q 225 272 261 258 q 184 233 199 257 q 169 183 169 210 q 285 101 169 101 l 378 101 q 535 52 478 101 q 592 -76 592 3 q 522 -226 592 -172 q 314 -281 451 -281 q 108 -232 171 -281 q 44 -78 44 -183 l 101 -78 q 151 -194 104 -160 q 314 -228 197 -228 q 528 -81 528 -228 q 487 14 528 -19 q 369 47 446 47 l 281 47 q 153 81 197 47 q 110 171 110 115 q 182 292 110 242 q 72 497 72 354 q 137 673 72 607 q 310 739 201 739 q 482 747 429 738 q 590 778 535 756 l 610 717 m 310 689 q 180 638 224 689 q 136 497 136 588 q 183 357 136 407 q 308 307 229 307 q 435 354 392 307 q 479 494 479 401 q 437 637 479 585 q 310 689 394 689 m 313 913 q 208 950 250 913 q 157 1054 165 988 l 200 1064 q 313 965 222 965 q 426 1064 401 965 l 468 1054 q 419 951 461 989 q 313 913 376 913 z "},"ǧ":{"ha":624,"x_min":44,"x_max":610,"o":"m 610 717 q 433 696 556 699 q 543 493 543 639 q 481 322 543 385 q 310 258 418 258 q 225 272 261 258 q 184 233 199 257 q 169 183 169 210 q 285 101 169 101 l 378 101 q 535 52 478 101 q 592 -76 592 3 q 522 -226 592 -172 q 314 -281 451 -281 q 108 -232 171 -281 q 44 -78 44 -183 l 101 -78 q 151 -194 104 -160 q 314 -228 197 -228 q 528 -81 528 -228 q 487 14 528 -19 q 369 47 446 47 l 281 47 q 153 81 197 47 q 110 171 110 115 q 182 292 110 242 q 72 497 72 354 q 137 673 72 607 q 310 739 201 739 q 482 747 429 738 q 590 778 535 756 l 610 717 m 310 689 q 180 638 224 689 q 136 497 136 588 q 183 357 136 407 q 308 307 229 307 q 435 354 392 307 q 479 494 479 401 q 437 637 479 585 q 310 689 394 689 m 463 1058 l 490 1028 l 331 882 l 293 882 l 133 1028 l 163 1058 l 313 940 l 463 1058 z "},"ĝ":{"ha":624,"x_min":44,"x_max":610,"o":"m 610 717 q 433 696 556 699 q 543 493 543 639 q 481 322 543 385 q 310 258 418 258 q 225 272 261 258 q 184 233 199 257 q 169 183 169 210 q 285 101 169 101 l 378 101 q 535 52 478 101 q 592 -76 592 3 q 522 -226 592 -172 q 314 -281 451 -281 q 108 -232 171 -281 q 44 -78 44 -183 l 101 -78 q 151 -194 104 -160 q 314 -228 197 -228 q 528 -81 528 -228 q 487 14 528 -19 q 369 47 446 47 l 281 47 q 153 81 197 47 q 110 171 110 115 q 182 292 110 242 q 72 497 72 354 q 137 673 72 607 q 310 739 201 739 q 482 747 429 738 q 590 778 535 756 l 610 717 m 310 689 q 180 638 224 689 q 136 497 136 588 q 183 357 136 407 q 308 307 229 307 q 435 354 392 307 q 479 494 479 401 q 437 637 479 585 q 310 689 394 689 m 161 900 l 133 931 l 293 1076 l 331 1076 l 490 931 l 461 900 l 311 1018 l 161 900 z "},"ģ":{"ha":624,"x_min":44,"x_max":610,"o":"m 610 717 q 433 696 556 699 q 543 493 543 639 q 481 322 543 385 q 310 258 418 258 q 225 272 261 258 q 184 233 199 257 q 169 183 169 210 q 285 101 169 101 l 378 101 q 535 52 478 101 q 592 -76 592 3 q 522 -226 592 -172 q 314 -281 451 -281 q 108 -232 171 -281 q 44 -78 44 -183 l 101 -78 q 151 -194 104 -160 q 314 -228 197 -228 q 528 -81 528 -228 q 487 14 528 -19 q 369 47 446 47 l 281 47 q 153 81 197 47 q 110 171 110 115 q 182 292 110 242 q 72 497 72 354 q 137 673 72 607 q 310 739 201 739 q 482 747 429 738 q 590 778 535 756 l 610 717 m 310 689 q 180 638 224 689 q 136 497 136 588 q 183 357 136 407 q 308 307 229 307 q 435 354 392 307 q 479 494 479 401 q 437 637 479 585 q 310 689 394 689 m 310 821 q 272 835 286 821 q 258 872 258 850 q 265 908 258 888 q 285 958 272 928 l 335 1078 l 374 1078 l 332 919 q 361 872 361 904 q 347 835 361 850 q 310 821 333 821 z "}}}
